<svg width="140" height="140" viewBox="0 0 140 140" fill="none" xmlns="http://www.w3.org/2000/svg">
<circle cx="38.5" cy="39.5" r="26.5" fill="#904689"/>
<path d="M36.9355 52H31.3633L31.3984 47.8867H36.9355C38.3184 47.8867 39.4844 47.5762 40.4336 46.9551C41.3828 46.3223 42.0977 45.4023 42.5781 44.1953C43.0703 42.9883 43.3164 41.5293 43.3164 39.8184V38.5703C43.3164 37.2578 43.1758 36.1035 42.8945 35.1074C42.625 34.1113 42.2207 33.2734 41.6816 32.5938C41.1426 31.9141 40.4805 31.4043 39.6953 31.0645C38.9102 30.7129 38.0078 30.5371 36.9883 30.5371H31.2578V26.4062H36.9883C38.6992 26.4062 40.2637 26.6992 41.6816 27.2852C43.1113 27.8594 44.3477 28.6855 45.3906 29.7637C46.4336 30.8418 47.2363 32.1309 47.7988 33.6309C48.373 35.1191 48.6602 36.7773 48.6602 38.6055V39.8184C48.6602 41.6348 48.373 43.293 47.7988 44.793C47.2363 46.293 46.4336 47.582 45.3906 48.6602C44.3594 49.7266 43.123 50.5527 41.6816 51.1387C40.252 51.7129 38.6699 52 36.9355 52ZM34.3516 26.4062V52H29.0781V26.4062H34.3516Z" fill="white"/>
<circle cx="102.5" cy="39.5" r="26.5" fill="#CE7D3D"/>
<path d="M111.5 47.8867V52H98.6152V47.8867H111.5ZM100.32 26.4062V52H95.0469V26.4062H100.32Z" fill="white"/>
<circle cx="102.5" cy="101.5" r="26.5" fill="#22559A"/>
<path d="M105.066 88.4062V114H99.8105V88.4062H105.066ZM112.941 88.4062V92.5371H92.0586V88.4062H112.941Z" fill="white"/>
<circle cx="38.5" cy="101.5" r="26.5" fill="#307D7E"/>
<path d="M36.9355 114H31.3633L31.3984 109.887H36.9355C38.3184 109.887 39.4844 109.576 40.4336 108.955C41.3828 108.322 42.0977 107.402 42.5781 106.195C43.0703 104.988 43.3164 103.529 43.3164 101.818V100.57C43.3164 99.2578 43.1758 98.1035 42.8945 97.1074C42.625 96.1113 42.2207 95.2734 41.6816 94.5938C41.1426 93.9141 40.4805 93.4043 39.6953 93.0645C38.9102 92.7129 38.0078 92.5371 36.9883 92.5371H31.2578V88.4062H36.9883C38.6992 88.4062 40.2637 88.6992 41.6816 89.2852C43.1113 89.8594 44.3477 90.6855 45.3906 91.7637C46.4336 92.8418 47.2363 94.1309 47.7988 95.6309C48.373 97.1191 48.6602 98.7773 48.6602 100.605V101.818C48.6602 103.635 48.373 105.293 47.7988 106.793C47.2363 108.293 46.4336 109.582 45.3906 110.66C44.3594 111.727 43.123 112.553 41.6816 113.139C40.252 113.713 38.6699 114 36.9355 114ZM34.3516 88.4062V114H29.0781V88.4062H34.3516Z" fill="white"/>
</svg>
