<svg width="430" height="140" viewBox="0 0 430 140" fill="none" xmlns="http://www.w3.org/2000/svg">
<rect width="430" height="140" fill="black"/>
<path d="M22.9385 57H17.3682L17.4131 53.4736H22.9385C24.9001 53.4736 26.4948 53.0993 27.7227 52.3506C28.9505 51.5869 29.8564 50.4639 30.4404 48.9814C31.0244 47.484 31.3164 45.6348 31.3164 43.4336V37.8408C31.3164 36.1038 31.1517 34.6064 30.8223 33.3486C30.4928 32.0908 29.9987 31.0576 29.3398 30.249C28.681 29.4404 27.8499 28.8415 26.8467 28.4521C25.8434 28.0479 24.668 27.8457 23.3203 27.8457H17.2559V24.2969H23.3203C25.1621 24.2969 26.8242 24.5889 28.3066 25.1729C29.7891 25.7419 31.0618 26.6029 32.125 27.7559C33.1882 28.8939 33.9967 30.3089 34.5508 32.001C35.1198 33.693 35.4043 35.6546 35.4043 37.8857V43.4336C35.4043 45.6647 35.1198 47.6263 34.5508 49.3184C33.9967 51.0104 33.1807 52.4255 32.1025 53.5635C31.0244 54.7015 29.7142 55.5625 28.1719 56.1465C26.6445 56.7155 24.9001 57 22.9385 57ZM19.6592 24.2969V57H15.5264V24.2969H19.6592ZM45.5342 32.6973V57H41.5811V32.6973H45.5342ZM41.3564 26.251C41.3564 25.5771 41.5436 25.0081 41.918 24.5439C42.2923 24.0798 42.8538 23.8477 43.6025 23.8477C44.3512 23.8477 44.9128 24.0798 45.2871 24.5439C45.6764 25.0081 45.8711 25.5771 45.8711 26.251C45.8711 26.8949 45.6764 27.4489 45.2871 27.9131C44.9128 28.3623 44.3512 28.5869 43.6025 28.5869C42.8538 28.5869 42.2923 28.3623 41.918 27.9131C41.5436 27.4489 41.3564 26.8949 41.3564 26.251ZM63.6152 50.7783C63.6152 50.1644 63.4655 49.6253 63.166 49.1611C62.8665 48.6969 62.3724 48.2477 61.6836 47.8135C61.0098 47.3792 60.0964 46.915 58.9434 46.4209C57.8203 45.9567 56.8096 45.5 55.9111 45.0508C55.0277 44.5866 54.279 44.085 53.665 43.5459C53.0511 43.0068 52.5794 42.3854 52.25 41.6816C51.9355 40.9629 51.7783 40.1169 51.7783 39.1436C51.7783 38.1702 51.958 37.2718 52.3174 36.4482C52.6917 35.6097 53.2158 34.876 53.8896 34.2471C54.5635 33.6182 55.3721 33.1315 56.3154 32.7871C57.2588 32.4277 58.3145 32.248 59.4824 32.248C61.1445 32.248 62.5596 32.57 63.7275 33.2139C64.8955 33.8577 65.7865 34.7412 66.4004 35.8643C67.0293 36.9723 67.3438 38.2227 67.3438 39.6152H63.3906C63.3906 38.9414 63.2409 38.305 62.9414 37.7061C62.6419 37.1071 62.2002 36.6204 61.6162 36.2461C61.0322 35.8568 60.321 35.6621 59.4824 35.6621C58.599 35.6621 57.8802 35.8193 57.3262 36.1338C56.7721 36.4482 56.3678 36.86 56.1133 37.3691C55.8737 37.8633 55.7539 38.4098 55.7539 39.0088C55.7539 39.458 55.8138 39.8473 55.9336 40.1768C56.0684 40.4912 56.293 40.7907 56.6074 41.0752C56.9219 41.3447 57.3486 41.6292 57.8877 41.9287C58.4417 42.2132 59.1455 42.5426 59.999 42.917C61.6462 43.5609 63.0312 44.2122 64.1543 44.8711C65.2773 45.5299 66.1309 46.3011 66.7148 47.1846C67.2988 48.068 67.5908 49.1611 67.5908 50.4639C67.5908 51.527 67.3962 52.4928 67.0068 53.3613C66.6325 54.2148 66.0934 54.9486 65.3896 55.5625C64.6859 56.1764 63.8398 56.6481 62.8516 56.9775C61.8783 57.292 60.7852 57.4492 59.5723 57.4492C57.7454 57.4492 56.1956 57.0898 54.9229 56.3711C53.665 55.6374 52.7067 54.6865 52.0479 53.5186C51.404 52.3356 51.082 51.0703 51.082 49.7227H55.0576C55.1025 50.8607 55.3571 51.7441 55.8213 52.373C56.3005 53.002 56.877 53.4362 57.5508 53.6758C58.2246 53.9154 58.8984 54.0352 59.5723 54.0352C60.4557 54.0352 61.1969 53.9079 61.7959 53.6533C62.3949 53.3838 62.8441 53.002 63.1436 52.5078C63.458 52.0137 63.6152 51.4372 63.6152 50.7783ZM84.7061 52.8447V39.6602C84.7061 38.7018 84.5563 37.9307 84.2568 37.3467C83.9723 36.7627 83.5381 36.3359 82.9541 36.0664C82.3851 35.7969 81.6663 35.6621 80.7979 35.6621C79.9593 35.6621 79.2331 35.8343 78.6191 36.1787C78.0202 36.5231 77.556 36.9798 77.2266 37.5488C76.9121 38.1178 76.7549 38.7467 76.7549 39.4355H72.7793C72.7793 38.5671 72.9665 37.7061 73.3408 36.8525C73.7301 35.999 74.2842 35.2279 75.0029 34.5391C75.7217 33.8353 76.5827 33.2812 77.5859 32.877C78.6042 32.4577 79.7422 32.248 81 32.248C82.4974 32.248 83.8226 32.4951 84.9756 32.9893C86.1286 33.4684 87.0345 34.2546 87.6934 35.3477C88.3522 36.4408 88.6816 37.8932 88.6816 39.7051V51.6992C88.6816 52.5078 88.7415 53.3688 88.8613 54.2822C88.9961 55.1956 89.1833 55.9818 89.4229 56.6406V57H85.3125C85.1178 56.5208 84.9681 55.8844 84.8633 55.0908C84.7585 54.2822 84.7061 53.5335 84.7061 52.8447ZM85.335 42.2656L85.3799 45.1855H82.6172C81.6738 45.1855 80.8128 45.2904 80.0342 45.5C79.2705 45.7096 78.6117 46.0166 78.0576 46.4209C77.5036 46.8102 77.0768 47.2969 76.7773 47.8809C76.4928 48.4648 76.3506 49.1312 76.3506 49.8799C76.3506 50.8532 76.4854 51.6318 76.7549 52.2158C77.0244 52.7848 77.4287 53.1966 77.9678 53.4512C78.5068 53.7057 79.1882 53.833 80.0117 53.833C81.015 53.833 81.8984 53.6009 82.6621 53.1367C83.4258 52.6725 84.0173 52.111 84.4365 51.4521C84.8708 50.7933 85.0729 50.1794 85.043 49.6104L85.9189 51.4746C85.859 52.0586 85.6644 52.695 85.335 53.3838C85.0205 54.0576 84.5788 54.709 84.0098 55.3379C83.4408 55.9518 82.7669 56.4609 81.9883 56.8652C81.2246 57.2546 80.3636 57.4492 79.4053 57.4492C77.9977 57.4492 76.7624 57.1797 75.6992 56.6406C74.651 56.1016 73.835 55.3079 73.251 54.2598C72.667 53.2116 72.375 51.9163 72.375 50.374C72.375 49.2061 72.5771 48.1279 72.9814 47.1396C73.3857 46.1514 73.9847 45.2979 74.7783 44.5791C75.5719 43.8454 76.5677 43.2764 77.7656 42.8721C78.9785 42.4678 80.3786 42.2656 81.9658 42.2656H85.335ZM106.65 50.7783C106.65 50.1644 106.501 49.6253 106.201 49.1611C105.902 48.6969 105.408 48.2477 104.719 47.8135C104.045 47.3792 103.132 46.915 101.979 46.4209C100.855 45.9567 99.8447 45.5 98.9463 45.0508C98.0628 44.5866 97.3141 44.085 96.7002 43.5459C96.0863 43.0068 95.6146 42.3854 95.2852 41.6816C94.9707 40.9629 94.8135 40.1169 94.8135 39.1436C94.8135 38.1702 94.9932 37.2718 95.3525 36.4482C95.7269 35.6097 96.251 34.876 96.9248 34.2471C97.5986 33.6182 98.4072 33.1315 99.3506 32.7871C100.294 32.4277 101.35 32.248 102.518 32.248C104.18 32.248 105.595 32.57 106.763 33.2139C107.931 33.8577 108.822 34.7412 109.436 35.8643C110.064 36.9723 110.379 38.2227 110.379 39.6152H106.426C106.426 38.9414 106.276 38.305 105.977 37.7061C105.677 37.1071 105.235 36.6204 104.651 36.2461C104.067 35.8568 103.356 35.6621 102.518 35.6621C101.634 35.6621 100.915 35.8193 100.361 36.1338C99.8073 36.4482 99.403 36.86 99.1484 37.3691C98.9089 37.8633 98.7891 38.4098 98.7891 39.0088C98.7891 39.458 98.849 39.8473 98.9688 40.1768C99.1035 40.4912 99.3281 40.7907 99.6426 41.0752C99.957 41.3447 100.384 41.6292 100.923 41.9287C101.477 42.2132 102.181 42.5426 103.034 42.917C104.681 43.5609 106.066 44.2122 107.189 44.8711C108.312 45.5299 109.166 46.3011 109.75 47.1846C110.334 48.068 110.626 49.1611 110.626 50.4639C110.626 51.527 110.431 52.4928 110.042 53.3613C109.668 54.2148 109.129 54.9486 108.425 55.5625C107.721 56.1764 106.875 56.6481 105.887 56.9775C104.913 57.292 103.82 57.4492 102.607 57.4492C100.781 57.4492 99.2308 57.0898 97.958 56.3711C96.7002 55.6374 95.7419 54.6865 95.083 53.5186C94.4391 52.3356 94.1172 51.0703 94.1172 49.7227H98.0928C98.1377 50.8607 98.3923 51.7441 98.8564 52.373C99.3356 53.002 99.9121 53.4362 100.586 53.6758C101.26 53.9154 101.934 54.0352 102.607 54.0352C103.491 54.0352 104.232 53.9079 104.831 53.6533C105.43 53.3838 105.879 53.002 106.179 52.5078C106.493 52.0137 106.65 51.4372 106.65 50.7783ZM124.709 32.6973V35.8867H113.366V32.6973H124.709ZM117.072 26.79H121.048V50.9805C121.048 51.804 121.145 52.4255 121.34 52.8447C121.549 53.264 121.812 53.541 122.126 53.6758C122.44 53.8105 122.777 53.8779 123.137 53.8779C123.406 53.8779 123.706 53.848 124.035 53.7881C124.365 53.7132 124.589 53.6533 124.709 53.6084L124.687 57C124.417 57.1048 124.058 57.2021 123.608 57.292C123.159 57.3968 122.59 57.4492 121.901 57.4492C121.048 57.4492 120.254 57.2471 119.521 56.8428C118.787 56.4385 118.195 55.7646 117.746 54.8213C117.297 53.863 117.072 52.5752 117.072 50.958V26.79ZM138.141 57.4492C136.688 57.4492 135.378 57.2321 134.21 56.7979C133.042 56.3636 132.046 55.7048 131.223 54.8213C130.399 53.9229 129.77 52.7923 129.336 51.4297C128.902 50.0671 128.685 48.4574 128.685 46.6006V43.8604C128.685 41.7191 128.932 39.9072 129.426 38.4248C129.935 36.9424 130.616 35.752 131.47 34.8535C132.323 33.9401 133.289 33.2812 134.367 32.877C135.445 32.4577 136.553 32.248 137.691 32.248C139.219 32.248 140.521 32.4951 141.6 32.9893C142.678 33.4834 143.554 34.2171 144.228 35.1904C144.901 36.1637 145.396 37.3617 145.71 38.7842C146.039 40.2067 146.204 41.8464 146.204 43.7031V46.0166H131.021V42.625H142.229V42.0635C142.169 40.8057 141.996 39.6976 141.712 38.7393C141.442 37.7809 140.993 37.0322 140.364 36.4932C139.735 35.9391 138.844 35.6621 137.691 35.6621C136.958 35.6621 136.276 35.7894 135.647 36.0439C135.034 36.2835 134.502 36.7103 134.053 37.3242C133.618 37.9232 133.274 38.7542 133.02 39.8174C132.78 40.8805 132.66 42.2282 132.66 43.8604V46.6006C132.66 47.9033 132.78 49.0264 133.02 49.9697C133.274 50.8981 133.641 51.6693 134.12 52.2832C134.614 52.8822 135.213 53.3314 135.917 53.6309C136.636 53.9154 137.452 54.0576 138.365 54.0576C139.698 54.0576 140.799 53.8031 141.667 53.2939C142.535 52.7699 143.292 52.1035 143.936 51.2949L146.024 53.7881C145.59 54.402 145.021 54.9935 144.317 55.5625C143.629 56.1165 142.775 56.5732 141.757 56.9326C140.754 57.277 139.548 57.4492 138.141 57.4492ZM154.986 36.5156V57H151.011V32.6973H154.852L154.986 36.5156ZM161.028 32.5625L161.051 36.4258C160.721 36.3509 160.422 36.306 160.152 36.291C159.898 36.2611 159.598 36.2461 159.254 36.2461C158.505 36.2461 157.846 36.3958 157.277 36.6953C156.723 36.9948 156.244 37.4141 155.84 37.9531C155.436 38.4922 155.114 39.1361 154.874 39.8848C154.634 40.6185 154.47 41.4271 154.38 42.3105L153.347 42.9844C153.347 41.5169 153.459 40.1393 153.684 38.8516C153.923 37.5638 154.29 36.4258 154.784 35.4375C155.278 34.4342 155.907 33.6556 156.671 33.1016C157.45 32.5326 158.378 32.248 159.456 32.248C159.696 32.248 159.988 32.2855 160.332 32.3604C160.691 32.4202 160.924 32.4876 161.028 32.5625ZM193.08 53.4736V57H179.514V53.4736H193.08ZM180.255 24.2969V57H176.122V24.2969H180.255ZM196.629 46.0166V43.7031C196.629 41.8164 196.868 40.1618 197.348 38.7393C197.827 37.3018 198.493 36.1038 199.347 35.1455C200.2 34.1872 201.196 33.4684 202.334 32.9893C203.472 32.4951 204.692 32.248 205.995 32.248C207.328 32.248 208.563 32.4951 209.701 32.9893C210.839 33.4684 211.835 34.1872 212.688 35.1455C213.557 36.1038 214.231 37.3018 214.71 38.7393C215.189 40.1618 215.429 41.8164 215.429 43.7031V46.0166C215.429 47.9033 215.189 49.5654 214.71 51.0029C214.231 52.4255 213.564 53.6159 212.711 54.5742C211.857 55.5326 210.862 56.2513 209.724 56.7305C208.586 57.2096 207.358 57.4492 206.04 57.4492C204.722 57.4492 203.494 57.2096 202.356 56.7305C201.218 56.2513 200.215 55.5326 199.347 54.5742C198.493 53.6159 197.827 52.4255 197.348 51.0029C196.868 49.5654 196.629 47.9033 196.629 46.0166ZM200.604 43.7031V46.0166C200.604 47.3493 200.739 48.5173 201.009 49.5205C201.278 50.5238 201.66 51.3623 202.154 52.0361C202.648 52.71 203.225 53.2191 203.884 53.5635C204.543 53.8929 205.261 54.0576 206.04 54.0576C206.938 54.0576 207.725 53.8929 208.398 53.5635C209.087 53.2191 209.656 52.71 210.105 52.0361C210.555 51.3623 210.892 50.5238 211.116 49.5205C211.341 48.5173 211.453 47.3493 211.453 46.0166V43.7031C211.453 42.3704 211.318 41.21 211.049 40.2217C210.779 39.2184 210.397 38.3799 209.903 37.7061C209.409 37.0173 208.825 36.5081 208.151 36.1787C207.493 35.8343 206.774 35.6621 205.995 35.6621C205.231 35.6621 204.52 35.8343 203.861 36.1787C203.202 36.5081 202.626 37.0173 202.132 37.7061C201.653 38.3799 201.278 39.2184 201.009 40.2217C200.739 41.21 200.604 42.3704 200.604 43.7031ZM232.342 50.7783C232.342 50.1644 232.192 49.6253 231.893 49.1611C231.593 48.6969 231.099 48.2477 230.41 47.8135C229.736 47.3792 228.823 46.915 227.67 46.4209C226.547 45.9567 225.536 45.5 224.638 45.0508C223.754 44.5866 223.006 44.085 222.392 43.5459C221.778 43.0068 221.306 42.3854 220.977 41.6816C220.662 40.9629 220.505 40.1169 220.505 39.1436C220.505 38.1702 220.685 37.2718 221.044 36.4482C221.418 35.6097 221.942 34.876 222.616 34.2471C223.29 33.6182 224.099 33.1315 225.042 32.7871C225.985 32.4277 227.041 32.248 228.209 32.248C229.871 32.248 231.286 32.57 232.454 33.2139C233.622 33.8577 234.513 34.7412 235.127 35.8643C235.756 36.9723 236.07 38.2227 236.07 39.6152H232.117C232.117 38.9414 231.967 38.305 231.668 37.7061C231.368 37.1071 230.927 36.6204 230.343 36.2461C229.759 35.8568 229.048 35.6621 228.209 35.6621C227.326 35.6621 226.607 35.8193 226.053 36.1338C225.499 36.4482 225.094 36.86 224.84 37.3691C224.6 37.8633 224.48 38.4098 224.48 39.0088C224.48 39.458 224.54 39.8473 224.66 40.1768C224.795 40.4912 225.02 40.7907 225.334 41.0752C225.648 41.3447 226.075 41.6292 226.614 41.9287C227.168 42.2132 227.872 42.5426 228.726 42.917C230.373 43.5609 231.758 44.2122 232.881 44.8711C234.004 45.5299 234.857 46.3011 235.441 47.1846C236.025 48.068 236.317 49.1611 236.317 50.4639C236.317 51.527 236.123 52.4928 235.733 53.3613C235.359 54.2148 234.82 54.9486 234.116 55.5625C233.412 56.1764 232.566 56.6481 231.578 56.9775C230.605 57.292 229.512 57.4492 228.299 57.4492C226.472 57.4492 224.922 57.0898 223.649 56.3711C222.392 55.6374 221.433 54.6865 220.774 53.5186C220.131 52.3356 219.809 51.0703 219.809 49.7227H223.784C223.829 50.8607 224.084 51.7441 224.548 52.373C225.027 53.002 225.604 53.4362 226.277 53.6758C226.951 53.9154 227.625 54.0352 228.299 54.0352C229.182 54.0352 229.924 53.9079 230.522 53.6533C231.121 53.3838 231.571 53.002 231.87 52.5078C232.185 52.0137 232.342 51.4372 232.342 50.7783ZM253.32 50.7783C253.32 50.1644 253.171 49.6253 252.871 49.1611C252.572 48.6969 252.077 48.2477 251.389 47.8135C250.715 47.3792 249.801 46.915 248.648 46.4209C247.525 45.9567 246.515 45.5 245.616 45.0508C244.733 44.5866 243.984 44.085 243.37 43.5459C242.756 43.0068 242.285 42.3854 241.955 41.6816C241.641 40.9629 241.483 40.1169 241.483 39.1436C241.483 38.1702 241.663 37.2718 242.022 36.4482C242.397 35.6097 242.921 34.876 243.595 34.2471C244.269 33.6182 245.077 33.1315 246.021 32.7871C246.964 32.4277 248.02 32.248 249.188 32.248C250.85 32.248 252.265 32.57 253.433 33.2139C254.601 33.8577 255.492 34.7412 256.105 35.8643C256.734 36.9723 257.049 38.2227 257.049 39.6152H253.096C253.096 38.9414 252.946 38.305 252.646 37.7061C252.347 37.1071 251.905 36.6204 251.321 36.2461C250.737 35.8568 250.026 35.6621 249.188 35.6621C248.304 35.6621 247.585 35.8193 247.031 36.1338C246.477 36.4482 246.073 36.86 245.818 37.3691C245.579 37.8633 245.459 38.4098 245.459 39.0088C245.459 39.458 245.519 39.8473 245.639 40.1768C245.773 40.4912 245.998 40.7907 246.312 41.0752C246.627 41.3447 247.054 41.6292 247.593 41.9287C248.147 42.2132 248.851 42.5426 249.704 42.917C251.351 43.5609 252.736 44.2122 253.859 44.8711C254.982 45.5299 255.836 46.3011 256.42 47.1846C257.004 48.068 257.296 49.1611 257.296 50.4639C257.296 51.527 257.101 52.4928 256.712 53.3613C256.338 54.2148 255.799 54.9486 255.095 55.5625C254.391 56.1764 253.545 56.6481 252.557 56.9775C251.583 57.292 250.49 57.4492 249.277 57.4492C247.451 57.4492 245.901 57.0898 244.628 56.3711C243.37 55.6374 242.412 54.6865 241.753 53.5186C241.109 52.3356 240.787 51.0703 240.787 49.7227H244.763C244.808 50.8607 245.062 51.7441 245.526 52.373C246.006 53.002 246.582 53.4362 247.256 53.6758C247.93 53.9154 248.604 54.0352 249.277 54.0352C250.161 54.0352 250.902 53.9079 251.501 53.6533C252.1 53.3838 252.549 53.002 252.849 52.5078C253.163 52.0137 253.32 51.4372 253.32 50.7783ZM271.199 57.4492C269.747 57.4492 268.437 57.2321 267.269 56.7979C266.101 56.3636 265.105 55.7048 264.281 54.8213C263.458 53.9229 262.829 52.7923 262.395 51.4297C261.96 50.0671 261.743 48.4574 261.743 46.6006V43.8604C261.743 41.7191 261.99 39.9072 262.484 38.4248C262.993 36.9424 263.675 35.752 264.528 34.8535C265.382 33.9401 266.348 33.2812 267.426 32.877C268.504 32.4577 269.612 32.248 270.75 32.248C272.277 32.248 273.58 32.4951 274.658 32.9893C275.736 33.4834 276.612 34.2171 277.286 35.1904C277.96 36.1637 278.454 37.3617 278.769 38.7842C279.098 40.2067 279.263 41.8464 279.263 43.7031V46.0166H264.079V42.625H275.287V42.0635C275.227 40.8057 275.055 39.6976 274.771 38.7393C274.501 37.7809 274.052 37.0322 273.423 36.4932C272.794 35.9391 271.903 35.6621 270.75 35.6621C270.016 35.6621 269.335 35.7894 268.706 36.0439C268.092 36.2835 267.561 36.7103 267.111 37.3242C266.677 37.9232 266.333 38.7542 266.078 39.8174C265.839 40.8805 265.719 42.2282 265.719 43.8604V46.6006C265.719 47.9033 265.839 49.0264 266.078 49.9697C266.333 50.8981 266.7 51.6693 267.179 52.2832C267.673 52.8822 268.272 53.3314 268.976 53.6309C269.694 53.9154 270.51 54.0576 271.424 54.0576C272.757 54.0576 273.857 53.8031 274.726 53.2939C275.594 52.7699 276.35 52.1035 276.994 51.2949L279.083 53.7881C278.649 54.402 278.08 54.9935 277.376 55.5625C276.687 56.1165 275.834 56.5732 274.815 56.9326C273.812 57.277 272.607 57.4492 271.199 57.4492ZM295.861 50.7783C295.861 50.1644 295.712 49.6253 295.412 49.1611C295.113 48.6969 294.618 48.2477 293.93 47.8135C293.256 47.3792 292.342 46.915 291.189 46.4209C290.066 45.9567 289.056 45.5 288.157 45.0508C287.274 44.5866 286.525 44.085 285.911 43.5459C285.297 43.0068 284.826 42.3854 284.496 41.6816C284.182 40.9629 284.024 40.1169 284.024 39.1436C284.024 38.1702 284.204 37.2718 284.563 36.4482C284.938 35.6097 285.462 34.876 286.136 34.2471C286.81 33.6182 287.618 33.1315 288.562 32.7871C289.505 32.4277 290.561 32.248 291.729 32.248C293.391 32.248 294.806 32.57 295.974 33.2139C297.142 33.8577 298.033 34.7412 298.646 35.8643C299.275 36.9723 299.59 38.2227 299.59 39.6152H295.637C295.637 38.9414 295.487 38.305 295.188 37.7061C294.888 37.1071 294.446 36.6204 293.862 36.2461C293.278 35.8568 292.567 35.6621 291.729 35.6621C290.845 35.6621 290.126 35.8193 289.572 36.1338C289.018 36.4482 288.614 36.86 288.359 37.3691C288.12 37.8633 288 38.4098 288 39.0088C288 39.458 288.06 39.8473 288.18 40.1768C288.314 40.4912 288.539 40.7907 288.854 41.0752C289.168 41.3447 289.595 41.6292 290.134 41.9287C290.688 42.2132 291.392 42.5426 292.245 42.917C293.892 43.5609 295.277 44.2122 296.4 44.8711C297.523 45.5299 298.377 46.3011 298.961 47.1846C299.545 48.068 299.837 49.1611 299.837 50.4639C299.837 51.527 299.642 52.4928 299.253 53.3613C298.879 54.2148 298.34 54.9486 297.636 55.5625C296.932 56.1764 296.086 56.6481 295.098 56.9775C294.124 57.292 293.031 57.4492 291.818 57.4492C289.992 57.4492 288.442 57.0898 287.169 56.3711C285.911 55.6374 284.953 54.6865 284.294 53.5186C283.65 52.3356 283.328 51.0703 283.328 49.7227H287.304C287.349 50.8607 287.603 51.7441 288.067 52.373C288.547 53.002 289.123 53.4362 289.797 53.6758C290.471 53.9154 291.145 54.0352 291.818 54.0352C292.702 54.0352 293.443 53.9079 294.042 53.6533C294.641 53.3838 295.09 53.002 295.39 52.5078C295.704 52.0137 295.861 51.4372 295.861 50.7783ZM26.8916 107.845V94.6602C26.8916 93.7018 26.7419 92.9307 26.4424 92.3467C26.1579 91.7627 25.7236 91.3359 25.1396 91.0664C24.5706 90.7969 23.8519 90.6621 22.9834 90.6621C22.1449 90.6621 21.4186 90.8343 20.8047 91.1787C20.2057 91.5231 19.7415 91.9798 19.4121 92.5488C19.0977 93.1178 18.9404 93.7467 18.9404 94.4355H14.9648C14.9648 93.5671 15.152 92.7061 15.5264 91.8525C15.9157 90.999 16.4697 90.2279 17.1885 89.5391C17.9072 88.8353 18.7682 88.2812 19.7715 87.877C20.7897 87.4577 21.9277 87.248 23.1855 87.248C24.6829 87.248 26.0081 87.4951 27.1611 87.9893C28.3141 88.4684 29.2201 89.2546 29.8789 90.3477C30.5378 91.4408 30.8672 92.8932 30.8672 94.7051V106.699C30.8672 107.508 30.9271 108.369 31.0469 109.282C31.1816 110.196 31.3688 110.982 31.6084 111.641V112H27.498C27.3034 111.521 27.1536 110.884 27.0488 110.091C26.944 109.282 26.8916 108.534 26.8916 107.845ZM27.5205 97.2656L27.5654 100.186H24.8027C23.8594 100.186 22.9984 100.29 22.2197 100.5C21.4561 100.71 20.7972 101.017 20.2432 101.421C19.6891 101.81 19.2624 102.297 18.9629 102.881C18.6784 103.465 18.5361 104.131 18.5361 104.88C18.5361 105.853 18.6709 106.632 18.9404 107.216C19.21 107.785 19.6143 108.197 20.1533 108.451C20.6924 108.706 21.3737 108.833 22.1973 108.833C23.2005 108.833 24.084 108.601 24.8477 108.137C25.6113 107.673 26.2028 107.111 26.6221 106.452C27.0563 105.793 27.2585 105.179 27.2285 104.61L28.1045 106.475C28.0446 107.059 27.8499 107.695 27.5205 108.384C27.2061 109.058 26.7643 109.709 26.1953 110.338C25.6263 110.952 24.9525 111.461 24.1738 111.865C23.4102 112.255 22.5492 112.449 21.5908 112.449C20.1833 112.449 18.9479 112.18 17.8848 111.641C16.8366 111.102 16.0205 110.308 15.4365 109.26C14.8525 108.212 14.5605 106.916 14.5605 105.374C14.5605 104.206 14.7627 103.128 15.167 102.14C15.5713 101.151 16.1702 100.298 16.9639 99.5791C17.7575 98.8454 18.7533 98.2764 19.9512 97.8721C21.1641 97.4678 22.5641 97.2656 24.1514 97.2656H27.5205ZM41.0195 92.8857V112H37.0439V87.6973H40.7949L41.0195 92.8857ZM40.0537 98.9277L38.4365 98.8604C38.4215 97.1982 38.6087 95.6634 38.998 94.2559C39.4023 92.8333 39.9714 91.598 40.7051 90.5498C41.4538 89.5016 42.3447 88.693 43.3779 88.124C44.4111 87.54 45.5566 87.248 46.8145 87.248C47.8027 87.248 48.7012 87.4128 49.5098 87.7422C50.3184 88.0566 51.0072 88.5658 51.5762 89.2695C52.1452 89.9733 52.5794 90.8867 52.8789 92.0098C53.1934 93.1178 53.3506 94.473 53.3506 96.0752V112H49.375V96.0303C49.375 94.7575 49.2327 93.7393 48.9482 92.9756C48.6787 92.1969 48.2594 91.6354 47.6904 91.291C47.1364 90.9316 46.4326 90.752 45.5791 90.752C44.8005 90.752 44.0742 90.9691 43.4004 91.4033C42.7266 91.8376 42.1351 92.4365 41.626 93.2002C41.1318 93.9639 40.7425 94.8398 40.458 95.8281C40.1885 96.8014 40.0537 97.8346 40.0537 98.9277ZM72.0605 107.283V77.5H76.0137V112H72.3975L72.0605 107.283ZM58.4717 101.017V98.748C58.4717 96.7415 58.6663 95.0195 59.0557 93.582C59.445 92.1296 59.999 90.9391 60.7178 90.0107C61.4365 89.0674 62.2975 88.3711 63.3008 87.9219C64.304 87.4727 65.4121 87.248 66.625 87.248C67.8828 87.248 68.9609 87.5026 69.8594 88.0117C70.7728 88.5208 71.5365 89.262 72.1504 90.2354C72.7643 91.1937 73.2435 92.3617 73.5879 93.7393C73.9473 95.1019 74.1868 96.6442 74.3066 98.3662V101.398C74.1719 103.105 73.9248 104.64 73.5654 106.003C73.221 107.366 72.7419 108.526 72.1279 109.484C71.514 110.443 70.7503 111.176 69.8369 111.686C68.9235 112.195 67.8379 112.449 66.5801 112.449C65.3822 112.449 64.2891 112.217 63.3008 111.753C62.3125 111.274 61.4515 110.562 60.7178 109.619C59.999 108.661 59.445 107.47 59.0557 106.048C58.6663 104.61 58.4717 102.933 58.4717 101.017ZM62.4473 98.748V101.017C62.4473 102.364 62.5446 103.54 62.7393 104.543C62.9339 105.531 63.2409 106.355 63.6602 107.014C64.0794 107.658 64.611 108.137 65.2549 108.451C65.9137 108.766 66.6999 108.923 67.6133 108.923C68.7214 108.923 69.6273 108.653 70.3311 108.114C71.0348 107.575 71.5964 106.864 72.0156 105.98C72.4499 105.082 72.7943 104.116 73.0488 103.083V96.7041C72.8991 95.9404 72.682 95.2067 72.3975 94.5029C72.113 93.7842 71.7536 93.1478 71.3193 92.5938C70.9001 92.0247 70.3835 91.5755 69.7695 91.2461C69.1706 90.9167 68.4668 90.752 67.6582 90.752C66.7448 90.752 65.9512 90.9167 65.2773 91.2461C64.6185 91.5755 64.0794 92.0697 63.6602 92.7285C63.2559 93.3874 62.9489 94.2184 62.7393 95.2217C62.5446 96.2249 62.4473 97.4004 62.4473 98.748ZM100.653 112H95.083L95.1279 108.474H100.653C102.615 108.474 104.21 108.099 105.438 107.351C106.665 106.587 107.571 105.464 108.155 103.981C108.739 102.484 109.031 100.635 109.031 98.4336V92.8408C109.031 91.1038 108.867 89.6064 108.537 88.3486C108.208 87.0908 107.714 86.0576 107.055 85.249C106.396 84.4404 105.565 83.8415 104.562 83.4521C103.558 83.0479 102.383 82.8457 101.035 82.8457H94.9707V79.2969H101.035C102.877 79.2969 104.539 79.5889 106.021 80.1729C107.504 80.7419 108.777 81.6029 109.84 82.7559C110.903 83.8939 111.712 85.3089 112.266 87.001C112.835 88.693 113.119 90.6546 113.119 92.8857V98.4336C113.119 100.665 112.835 102.626 112.266 104.318C111.712 106.01 110.896 107.425 109.817 108.563C108.739 109.701 107.429 110.562 105.887 111.146C104.359 111.715 102.615 112 100.653 112ZM97.374 79.2969V112H93.2412V79.2969H97.374ZM130.886 107.845V94.6602C130.886 93.7018 130.736 92.9307 130.437 92.3467C130.152 91.7627 129.718 91.3359 129.134 91.0664C128.565 90.7969 127.846 90.6621 126.978 90.6621C126.139 90.6621 125.413 90.8343 124.799 91.1787C124.2 91.5231 123.736 91.9798 123.406 92.5488C123.092 93.1178 122.935 93.7467 122.935 94.4355H118.959C118.959 93.5671 119.146 92.7061 119.521 91.8525C119.91 90.999 120.464 90.2279 121.183 89.5391C121.901 88.8353 122.762 88.2812 123.766 87.877C124.784 87.4577 125.922 87.248 127.18 87.248C128.677 87.248 130.002 87.4951 131.155 87.9893C132.308 88.4684 133.214 89.2546 133.873 90.3477C134.532 91.4408 134.861 92.8932 134.861 94.7051V106.699C134.861 107.508 134.921 108.369 135.041 109.282C135.176 110.196 135.363 110.982 135.603 111.641V112H131.492C131.298 111.521 131.148 110.884 131.043 110.091C130.938 109.282 130.886 108.534 130.886 107.845ZM131.515 97.2656L131.56 100.186H128.797C127.854 100.186 126.993 100.29 126.214 100.5C125.45 100.71 124.791 101.017 124.237 101.421C123.683 101.81 123.257 102.297 122.957 102.881C122.673 103.465 122.53 104.131 122.53 104.88C122.53 105.853 122.665 106.632 122.935 107.216C123.204 107.785 123.608 108.197 124.147 108.451C124.687 108.706 125.368 108.833 126.191 108.833C127.195 108.833 128.078 108.601 128.842 108.137C129.605 107.673 130.197 107.111 130.616 106.452C131.05 105.793 131.253 105.179 131.223 104.61L132.099 106.475C132.039 107.059 131.844 107.695 131.515 108.384C131.2 109.058 130.758 109.709 130.189 110.338C129.62 110.952 128.947 111.461 128.168 111.865C127.404 112.255 126.543 112.449 125.585 112.449C124.177 112.449 122.942 112.18 121.879 111.641C120.831 111.102 120.015 110.308 119.431 109.26C118.847 108.212 118.555 106.916 118.555 105.374C118.555 104.206 118.757 103.128 119.161 102.14C119.565 101.151 120.164 100.298 120.958 99.5791C121.752 98.8454 122.747 98.2764 123.945 97.8721C125.158 97.4678 126.558 97.2656 128.146 97.2656H131.515ZM145.014 92.5264V112H141.061V87.6973H144.789L145.014 92.5264ZM144.205 98.9277L142.363 98.8604C142.348 97.1982 142.513 95.6634 142.857 94.2559C143.202 92.8333 143.718 91.598 144.407 90.5498C145.111 89.5016 145.987 88.693 147.035 88.124C148.098 87.54 149.334 87.248 150.741 87.248C151.67 87.248 152.531 87.4128 153.324 87.7422C154.133 88.0566 154.837 88.5583 155.436 89.2471C156.035 89.9359 156.499 90.8193 156.828 91.8975C157.173 92.9756 157.345 94.2783 157.345 95.8057V112H153.369V96.0078C153.369 94.735 153.197 93.7168 152.853 92.9531C152.523 92.1895 152.051 91.6354 151.438 91.291C150.824 90.9316 150.09 90.752 149.236 90.752C148.263 90.752 147.447 90.9691 146.788 91.4033C146.144 91.8376 145.628 92.4365 145.238 93.2002C144.864 93.9639 144.594 94.8398 144.43 95.8281C144.28 96.8014 144.205 97.8346 144.205 98.9277ZM157.3 96.6367L154.649 97.4902C154.634 96.1576 154.799 94.8773 155.144 93.6494C155.488 92.4215 155.997 91.3285 156.671 90.3701C157.36 89.4118 158.213 88.6556 159.231 88.1016C160.25 87.5326 161.433 87.248 162.78 87.248C163.888 87.248 164.869 87.4202 165.723 87.7646C166.576 88.109 167.295 88.6406 167.879 89.3594C168.478 90.0632 168.927 90.9691 169.227 92.0771C169.526 93.1852 169.676 94.5029 169.676 96.0303V112H165.7V95.9854C165.7 94.6227 165.528 93.5671 165.184 92.8184C164.854 92.0547 164.382 91.5231 163.769 91.2236C163.155 90.9092 162.421 90.752 161.567 90.752C160.879 90.752 160.265 90.9092 159.726 91.2236C159.201 91.5381 158.76 91.9723 158.4 92.5264C158.041 93.0654 157.764 93.6868 157.569 94.3906C157.39 95.0944 157.3 95.8431 157.3 96.6367ZM187.577 107.845V94.6602C187.577 93.7018 187.427 92.9307 187.128 92.3467C186.843 91.7627 186.409 91.3359 185.825 91.0664C185.256 90.7969 184.537 90.6621 183.669 90.6621C182.83 90.6621 182.104 90.8343 181.49 91.1787C180.891 91.5231 180.427 91.9798 180.098 92.5488C179.783 93.1178 179.626 93.7467 179.626 94.4355H175.65C175.65 93.5671 175.838 92.7061 176.212 91.8525C176.601 90.999 177.155 90.2279 177.874 89.5391C178.593 88.8353 179.454 88.2812 180.457 87.877C181.475 87.4577 182.613 87.248 183.871 87.248C185.368 87.248 186.694 87.4951 187.847 87.9893C189 88.4684 189.906 89.2546 190.564 90.3477C191.223 91.4408 191.553 92.8932 191.553 94.7051V106.699C191.553 107.508 191.613 108.369 191.732 109.282C191.867 110.196 192.054 110.982 192.294 111.641V112H188.184C187.989 111.521 187.839 110.884 187.734 110.091C187.63 109.282 187.577 108.534 187.577 107.845ZM188.206 97.2656L188.251 100.186H185.488C184.545 100.186 183.684 100.29 182.905 100.5C182.142 100.71 181.483 101.017 180.929 101.421C180.375 101.81 179.948 102.297 179.648 102.881C179.364 103.465 179.222 104.131 179.222 104.88C179.222 105.853 179.356 106.632 179.626 107.216C179.896 107.785 180.3 108.197 180.839 108.451C181.378 108.706 182.059 108.833 182.883 108.833C183.886 108.833 184.77 108.601 185.533 108.137C186.297 107.673 186.888 107.111 187.308 106.452C187.742 105.793 187.944 105.179 187.914 104.61L188.79 106.475C188.73 107.059 188.535 107.695 188.206 108.384C187.892 109.058 187.45 109.709 186.881 110.338C186.312 110.952 185.638 111.461 184.859 111.865C184.096 112.255 183.235 112.449 182.276 112.449C180.869 112.449 179.633 112.18 178.57 111.641C177.522 111.102 176.706 110.308 176.122 109.26C175.538 108.212 175.246 106.916 175.246 105.374C175.246 104.206 175.448 103.128 175.853 102.14C176.257 101.151 176.856 100.298 177.649 99.5791C178.443 98.8454 179.439 98.2764 180.637 97.8721C181.85 97.4678 183.25 97.2656 184.837 97.2656H188.206ZM210.892 87.6973H214.463V112.202C214.463 114.343 214.089 116.11 213.34 117.503C212.606 118.896 211.58 119.921 210.263 120.58C208.945 121.254 207.425 121.591 205.703 121.591C205.089 121.591 204.318 121.479 203.39 121.254C202.461 121.029 201.533 120.685 200.604 120.221C199.676 119.771 198.912 119.202 198.313 118.514L199.953 115.751C200.807 116.619 201.713 117.241 202.671 117.615C203.629 117.99 204.543 118.177 205.411 118.177C206.444 118.177 207.343 117.99 208.106 117.615C208.87 117.241 209.462 116.627 209.881 115.773C210.3 114.935 210.51 113.812 210.51 112.404V93.043L210.892 87.6973ZM196.921 101.017V98.748C196.921 96.7415 197.108 95.0195 197.482 93.582C197.857 92.1296 198.396 90.9391 199.1 90.0107C199.818 89.0674 200.679 88.3711 201.683 87.9219C202.686 87.4727 203.809 87.248 205.052 87.248C206.31 87.248 207.395 87.5026 208.309 88.0117C209.222 88.5208 209.978 89.262 210.577 90.2354C211.191 91.1937 211.67 92.3617 212.015 93.7393C212.374 95.1019 212.621 96.6442 212.756 98.3662V101.398C212.621 103.105 212.374 104.64 212.015 106.003C211.67 107.366 211.184 108.526 210.555 109.484C209.941 110.443 209.177 111.176 208.264 111.686C207.35 112.195 206.265 112.449 205.007 112.449C203.779 112.449 202.671 112.217 201.683 111.753C200.694 111.274 199.841 110.562 199.122 109.619C198.418 108.661 197.872 107.47 197.482 106.048C197.108 104.61 196.921 102.933 196.921 101.017ZM200.896 98.748V101.017C200.896 102.364 200.994 103.54 201.188 104.543C201.383 105.531 201.683 106.355 202.087 107.014C202.506 107.658 203.038 108.137 203.682 108.451C204.34 108.766 205.127 108.923 206.04 108.923C207.148 108.923 208.054 108.653 208.758 108.114C209.462 107.575 210.023 106.864 210.442 105.98C210.877 105.082 211.221 104.116 211.476 103.083V96.7041C211.326 95.9404 211.109 95.2067 210.824 94.5029C210.555 93.7842 210.203 93.1478 209.769 92.5938C209.334 92.0247 208.81 91.5755 208.196 91.2461C207.597 90.9167 206.894 90.752 206.085 90.752C205.172 90.752 204.385 90.9167 203.727 91.2461C203.068 91.5755 202.529 92.0697 202.109 92.7285C201.69 93.3874 201.383 94.2184 201.188 95.2217C200.994 96.2249 200.896 97.4004 200.896 98.748ZM229.107 112.449C227.655 112.449 226.345 112.232 225.177 111.798C224.009 111.364 223.013 110.705 222.189 109.821C221.366 108.923 220.737 107.792 220.303 106.43C219.868 105.067 219.651 103.457 219.651 101.601V98.8604C219.651 96.7191 219.898 94.9072 220.393 93.4248C220.902 91.9424 221.583 90.752 222.437 89.8535C223.29 88.9401 224.256 88.2812 225.334 87.877C226.412 87.4577 227.52 87.248 228.658 87.248C230.186 87.248 231.488 87.4951 232.566 87.9893C233.645 88.4834 234.521 89.2171 235.194 90.1904C235.868 91.1637 236.362 92.3617 236.677 93.7842C237.006 95.2067 237.171 96.8464 237.171 98.7031V101.017H221.987V97.625H233.195V97.0635C233.135 95.8057 232.963 94.6976 232.679 93.7393C232.409 92.7809 231.96 92.0322 231.331 91.4932C230.702 90.9391 229.811 90.6621 228.658 90.6621C227.924 90.6621 227.243 90.7894 226.614 91.0439C226 91.2835 225.469 91.7103 225.02 92.3242C224.585 92.9232 224.241 93.7542 223.986 94.8174C223.747 95.8805 223.627 97.2282 223.627 98.8604V101.601C223.627 102.903 223.747 104.026 223.986 104.97C224.241 105.898 224.608 106.669 225.087 107.283C225.581 107.882 226.18 108.331 226.884 108.631C227.603 108.915 228.419 109.058 229.332 109.058C230.665 109.058 231.765 108.803 232.634 108.294C233.502 107.77 234.258 107.104 234.902 106.295L236.991 108.788C236.557 109.402 235.988 109.993 235.284 110.562C234.595 111.117 233.742 111.573 232.724 111.933C231.72 112.277 230.515 112.449 229.107 112.449ZM262.687 79.2969V112H258.599V79.2969H262.687ZM271.289 79.2969V82.8457H250.019V79.2969H271.289ZM277.848 91.5156V112H273.872V87.6973H277.713L277.848 91.5156ZM283.89 87.5625L283.912 91.4258C283.583 91.3509 283.283 91.306 283.014 91.291C282.759 91.2611 282.46 91.2461 282.115 91.2461C281.367 91.2461 280.708 91.3958 280.139 91.6953C279.585 91.9948 279.105 92.4141 278.701 92.9531C278.297 93.4922 277.975 94.1361 277.735 94.8848C277.496 95.6185 277.331 96.4271 277.241 97.3105L276.208 97.9844C276.208 96.5169 276.32 95.1393 276.545 93.8516C276.785 92.5638 277.151 91.4258 277.646 90.4375C278.14 89.4342 278.769 88.6556 279.532 88.1016C280.311 87.5326 281.239 87.248 282.317 87.248C282.557 87.248 282.849 87.2855 283.193 87.3604C283.553 87.4202 283.785 87.4876 283.89 87.5625ZM298.894 107.845V94.6602C298.894 93.7018 298.744 92.9307 298.444 92.3467C298.16 91.7627 297.726 91.3359 297.142 91.0664C296.573 90.7969 295.854 90.6621 294.985 90.6621C294.147 90.6621 293.421 90.8343 292.807 91.1787C292.208 91.5231 291.743 91.9798 291.414 92.5488C291.1 93.1178 290.942 93.7467 290.942 94.4355H286.967C286.967 93.5671 287.154 92.7061 287.528 91.8525C287.918 90.999 288.472 90.2279 289.19 89.5391C289.909 88.8353 290.77 88.2812 291.773 87.877C292.792 87.4577 293.93 87.248 295.188 87.248C296.685 87.248 298.01 87.4951 299.163 87.9893C300.316 88.4684 301.222 89.2546 301.881 90.3477C302.54 91.4408 302.869 92.8932 302.869 94.7051V106.699C302.869 107.508 302.929 108.369 303.049 109.282C303.184 110.196 303.371 110.982 303.61 111.641V112H299.5C299.305 111.521 299.156 110.884 299.051 110.091C298.946 109.282 298.894 108.534 298.894 107.845ZM299.522 97.2656L299.567 100.186H296.805C295.861 100.186 295 100.29 294.222 100.5C293.458 100.71 292.799 101.017 292.245 101.421C291.691 101.81 291.264 102.297 290.965 102.881C290.68 103.465 290.538 104.131 290.538 104.88C290.538 105.853 290.673 106.632 290.942 107.216C291.212 107.785 291.616 108.197 292.155 108.451C292.694 108.706 293.376 108.833 294.199 108.833C295.202 108.833 296.086 108.601 296.85 108.137C297.613 107.673 298.205 107.111 298.624 106.452C299.058 105.793 299.26 105.179 299.23 104.61L300.106 106.475C300.047 107.059 299.852 107.695 299.522 108.384C299.208 109.058 298.766 109.709 298.197 110.338C297.628 110.952 296.954 111.461 296.176 111.865C295.412 112.255 294.551 112.449 293.593 112.449C292.185 112.449 290.95 112.18 289.887 111.641C288.839 111.102 288.022 110.308 287.438 109.26C286.854 108.212 286.562 106.916 286.562 105.374C286.562 104.206 286.765 103.128 287.169 102.14C287.573 101.151 288.172 100.298 288.966 99.5791C289.759 98.8454 290.755 98.2764 291.953 97.8721C293.166 97.4678 294.566 97.2656 296.153 97.2656H299.522ZM317.469 109.058C318.262 109.058 318.981 108.9 319.625 108.586C320.284 108.257 320.823 107.747 321.242 107.059C321.661 106.355 321.901 105.441 321.961 104.318H325.689C325.63 105.936 325.218 107.358 324.454 108.586C323.705 109.799 322.717 110.75 321.489 111.438C320.276 112.112 318.936 112.449 317.469 112.449C315.896 112.449 314.526 112.195 313.358 111.686C312.205 111.176 311.247 110.443 310.483 109.484C309.735 108.511 309.173 107.336 308.799 105.958C308.424 104.565 308.237 102.986 308.237 101.219V98.4785C308.237 96.7116 308.424 95.1393 308.799 93.7617C309.173 92.3691 309.735 91.1937 310.483 90.2354C311.247 89.262 312.205 88.5208 313.358 88.0117C314.526 87.5026 315.896 87.248 317.469 87.248C319.116 87.248 320.538 87.5999 321.736 88.3037C322.949 88.9925 323.893 89.9958 324.566 91.3135C325.255 92.6162 325.63 94.196 325.689 96.0527H321.961C321.901 94.8548 321.684 93.859 321.31 93.0654C320.935 92.2568 320.426 91.6579 319.782 91.2686C319.138 90.8643 318.367 90.6621 317.469 90.6621C316.421 90.6621 315.552 90.8493 314.863 91.2236C314.189 91.583 313.658 92.1071 313.269 92.7959C312.879 93.4847 312.602 94.3083 312.438 95.2666C312.288 96.2249 312.213 97.2956 312.213 98.4785V101.219C312.213 102.402 312.288 103.48 312.438 104.453C312.602 105.411 312.872 106.235 313.246 106.924C313.635 107.613 314.174 108.144 314.863 108.519C315.552 108.878 316.421 109.058 317.469 109.058ZM334.292 77.5V112H330.316V77.5H334.292ZM346.623 87.6973L337.976 99.04L332.63 105.194L332.36 100.77L336.044 95.6934L341.839 87.6973H346.623ZM342.984 112L336.156 100.41L338.2 96.7041L347.611 112H342.984ZM355.315 87.6973V112H351.362V87.6973H355.315ZM351.138 81.251C351.138 80.5771 351.325 80.0081 351.699 79.5439C352.074 79.0798 352.635 78.8477 353.384 78.8477C354.132 78.8477 354.694 79.0798 355.068 79.5439C355.458 80.0081 355.652 80.5771 355.652 81.251C355.652 81.8949 355.458 82.4489 355.068 82.9131C354.694 83.3623 354.132 83.5869 353.384 83.5869C352.635 83.5869 352.074 83.3623 351.699 82.9131C351.325 82.4489 351.138 81.8949 351.138 81.251ZM365.58 92.8857V112H361.604V87.6973H365.355L365.58 92.8857ZM364.614 98.9277L362.997 98.8604C362.982 97.1982 363.169 95.6634 363.559 94.2559C363.963 92.8333 364.532 91.598 365.266 90.5498C366.014 89.5016 366.905 88.693 367.938 88.124C368.972 87.54 370.117 87.248 371.375 87.248C372.363 87.248 373.262 87.4128 374.07 87.7422C374.879 88.0566 375.568 88.5658 376.137 89.2695C376.706 89.9733 377.14 90.8867 377.439 92.0098C377.754 93.1178 377.911 94.473 377.911 96.0752V112H373.936V96.0303C373.936 94.7575 373.793 93.7393 373.509 92.9756C373.239 92.1969 372.82 91.6354 372.251 91.291C371.697 90.9316 370.993 90.752 370.14 90.752C369.361 90.752 368.635 90.9691 367.961 91.4033C367.287 91.8376 366.696 92.4365 366.187 93.2002C365.692 93.9639 365.303 94.8398 365.019 95.8281C364.749 96.8014 364.614 97.8346 364.614 98.9277ZM397.048 87.6973H400.619V112.202C400.619 114.343 400.245 116.11 399.496 117.503C398.762 118.896 397.737 119.921 396.419 120.58C395.101 121.254 393.581 121.591 391.859 121.591C391.245 121.591 390.474 121.479 389.546 121.254C388.618 121.029 387.689 120.685 386.761 120.221C385.832 119.771 385.069 119.202 384.47 118.514L386.109 115.751C386.963 116.619 387.869 117.241 388.827 117.615C389.785 117.99 390.699 118.177 391.567 118.177C392.601 118.177 393.499 117.99 394.263 117.615C395.026 117.241 395.618 116.627 396.037 115.773C396.456 114.935 396.666 113.812 396.666 112.404V93.043L397.048 87.6973ZM383.077 101.017V98.748C383.077 96.7415 383.264 95.0195 383.639 93.582C384.013 92.1296 384.552 90.9391 385.256 90.0107C385.975 89.0674 386.836 88.3711 387.839 87.9219C388.842 87.4727 389.965 87.248 391.208 87.248C392.466 87.248 393.551 87.5026 394.465 88.0117C395.378 88.5208 396.134 89.262 396.733 90.2354C397.347 91.1937 397.826 92.3617 398.171 93.7393C398.53 95.1019 398.777 96.6442 398.912 98.3662V101.398C398.777 103.105 398.53 104.64 398.171 106.003C397.826 107.366 397.34 108.526 396.711 109.484C396.097 110.443 395.333 111.176 394.42 111.686C393.507 112.195 392.421 112.449 391.163 112.449C389.935 112.449 388.827 112.217 387.839 111.753C386.851 111.274 385.997 110.562 385.278 109.619C384.575 108.661 384.028 107.47 383.639 106.048C383.264 104.61 383.077 102.933 383.077 101.017ZM387.053 98.748V101.017C387.053 102.364 387.15 103.54 387.345 104.543C387.539 105.531 387.839 106.355 388.243 107.014C388.662 107.658 389.194 108.137 389.838 108.451C390.497 108.766 391.283 108.923 392.196 108.923C393.304 108.923 394.21 108.653 394.914 108.114C395.618 107.575 396.179 106.864 396.599 105.98C397.033 105.082 397.377 104.116 397.632 103.083V96.7041C397.482 95.9404 397.265 95.2067 396.98 94.5029C396.711 93.7842 396.359 93.1478 395.925 92.5938C395.491 92.0247 394.966 91.5755 394.353 91.2461C393.754 90.9167 393.05 90.752 392.241 90.752C391.328 90.752 390.542 90.9167 389.883 91.2461C389.224 91.5755 388.685 92.0697 388.266 92.7285C387.846 93.3874 387.539 94.2184 387.345 95.2217C387.15 96.2249 387.053 97.4004 387.053 98.748Z" fill="white"/>
</svg>
