<svg xmlns="http://www.w3.org/2000/svg" id="Calque_1" data-name="Calque 1" viewBox="0 0 233.23 81.74">
  <defs>
    <style>
      .cls-1{fill:#fff}
    </style>
  </defs>
  <path d="M51.56 16.25c.1.09.1.21.17.32.04.05.16.08.12.16.01.06-.03.1-.05.15-.1.01-.18-.07-.26-.11-.04-.05-.08-.1-.14-.11-.13-.13-.27-.27-.31-.46 0-.04.02-.1.07-.13.04-.03.1-.02.15-.01.08.05.15.15.24.2m.49.51h-.03v-.02s.02 0 .02.02m.23.1s.02.11 0 .15a.35.35 0 0 1-.17.06c-.04-.02-.11-.04-.11-.1 0-.06.07-.07.09-.13a.12.12 0 0 1 .18.02m.01.58s.05.08.09.08c.03 0 .08-.04.11 0 .03.05.09.04.09.09a.4.4 0 0 1 .03.24.16.16 0 0 1-.11.05c-.09-.09 0-.23-.12-.31-.04 0-.06.02-.08.05-.02.07.13.11.07.19l.01.1c-.07.06-.13-.02-.21-.02-.06-.04-.11-.1-.12-.16-.02-.04.01-.08.06-.09.02-.01.05 0 .07-.03-.03-.07-.1-.07-.15-.12-.1 0-.19-.1-.23-.18 0-.06-.03-.09 0-.14a.24.24 0 0 1 .23-.03l.26.28Zm.41.64s.05.11.09.15c.01.11.15.18.1.31-.07.06-.11.17-.22.14-.08-.02-.1-.12-.18-.14-.01-.05-.08-.07-.07-.14.02-.07.04-.16.02-.24 0-.04.04-.07.07-.09.07-.01.15-.04.19.01m.39.81c.02.06-.06.07-.09.12-.08-.02-.14.07-.2 0-.02-.03-.06-.07-.03-.1.08-.05.14-.15.24-.13l.08.11Zm.13.3c0 .08-.11.07-.15.12-.07-.04-.14.05-.21-.02-.04-.05-.02-.11-.02-.16.08-.04.16.03.24-.04.06 0 .12.02.13.09m.09.37c0 .09.05.16.05.25.09.09.08.21.15.31.05.22.05.43.12.64.02.16.11.3.14.47-.01.13.02.26.04.39v.14c-.06.12-.18.06-.25.12-.1 0-.09-.12-.14-.18l-.11-.19c0-.08-.04-.18 0-.26 0-.3-.1-.57-.23-.83-.02-.11-.13-.17-.19-.27-.03-.12-.04-.23-.13-.33-.04-.08-.08-.2-.03-.29.04-.06.13-.03.18-.05.03.03.09.03.1.08-.13.09-.02.23-.09.35.02.05 0 .09.04.12.12 0 .1-.13.14-.21 0-.1.03-.22-.04-.31 0-.02.01-.04.04-.05.07.01.15.03.2.1m.65 3.23s0 .12-.04.15c-.02.02-.05.02-.08.01-.06-.05-.04-.13-.06-.2.02-.02.02-.05.06-.06.07-.01.08.07.13.1m-.24.61s.02.08 0 .12c-.02.03-.05.06-.08.05-.04 0-.07-.01-.09-.04-.01-.06.04-.12.05-.17.04-.03.12-.01.13.03m-1.4 1.89s0 .11-.04.14c-.06.06-.16.06-.24.03-.04-.02-.04-.06-.05-.1a.27.27 0 0 1 .24-.15c.06-.02.07.04.09.08m-1.36.39-.05.04c-.05 0-.08-.03-.1-.06 0-.03-.04-.08 0-.11.04 0 .08-.04.11-.01l.03.14Zm.16-.06s.02.11-.04.14c-.03 0-.04-.02-.06-.04 0-.05-.06-.09 0-.14.03-.05.08 0 .1.03m.57.06s0 .11-.06.11c-.09.04-.16-.16-.22 0-.03.02-.08.01-.11 0-.04-.03-.01-.08-.04-.11 0-.06.07-.04.11-.05.03 0 .06.04.09.06.03-.04.09-.06.15-.06.03 0 .07 0 .09.05m.41 2.85c.05.11.14.23.09.36-.15.12-.37.1-.55.14-.13 0-.23-.08-.32-.15-.06 0-.08-.09-.12-.13-.01-.09.08-.1.12-.14.07 0 .08-.08.15-.08.09-.08.2-.08.31-.09.12-.05.22.05.33.11m7.63 2.58s.02.07 0 .09c-.06.08-.18.03-.26.11-.05.01-.13.03-.18 0-.03-.03-.07-.08-.04-.13.03-.03.05-.08.1-.09.13.04.2-.14.33-.06l.05.07Zm-44.3 1.34v.15c-.05.12-.18.02-.26.04-.07-.04-.07-.12-.12-.17 0-.05.01-.1.06-.13.05-.02.12 0 .17 0l.15.11Zm-1.38.19-.03.13c-.04.03-.09 0-.13 0-.09-.05-.13-.17-.23-.2a.05.05 0 0 1 0-.07.19.19 0 0 1 .12-.07c.13 0 .19.12.26.21m5.04-.09s-.05.02-.07 0c0-.02-.03-.04-.02-.07.03.04.13-.02.1.07m-5.35.32s.03.05.02.06c-.08.09-.2-.03-.27.07-.01.01-.02 0-.02-.03 0-.09.02-.18.12-.22.07 0 .1.08.15.11m47.77.61c.04.06-.02.11-.03.15-.02.04-.07.02-.1.01-.04-.02-.08-.03-.08-.07 0-.05 0-.14.08-.15.05 0 .12-.02.13.06m-47.8.18s-.02.09-.07.1a.3.3 0 0 1-.24-.13c-.02-.05.04-.07.08-.08.08 0 .13-.09.2-.04.03.04.02.1.03.15m47.57.21s0 .09-.02.12c-.03.03-.09.08-.13.04-.04-.03-.04-.09-.04-.13 0-.03.03-.07.06-.08.05 0 .1 0 .12.05m-.8.66a.4.4 0 0 1-.09.26c-.09.12-.05.35-.25.35-.08-.01-.17-.01-.2-.1 0-.09-.04-.2.02-.28.09-.12.22-.17.31-.28.07-.04.17-.03.2.06m-46.85.09-.05-.03v-.07s.08.06.05.11m.4.16c.05.06.12.12.12.21-.05.05-.09.12-.13.18-.04.01-.04-.03-.04-.05-.03-.09-.04-.19 0-.27.05-.05 0-.12 0-.18.05 0 .04.07.06.11m.27.41s.05.07.04.11h-.02c-.04-.05-.11-.1-.09-.16.03 0 .07.02.07.06m39.67 1.48v.15c-.08.06-.13.19-.24.14-.04-.03-.08-.06-.1-.1.02-.1.02-.21.08-.29.1-.04.21 0 .27.11M15 37.22s.01.08-.02.12c-.03.05-.08.05-.12.07-.06 0-.11-.05-.16-.1l-.04-.14c-.04-.07-.04-.14-.09-.19v-.11a.27.27 0 0 1 .1-.08c.22.03.25.27.32.43m38.66.02.02.14c-.04.08-.11.19-.22.16-.07 0-.13-.04-.14-.1 0-.05-.03-.11 0-.15.05-.07.13-.09.2-.11.05-.02.11 0 .13.05m-36.57.03s0 .07-.03.05c-.03-.02-.04-.05-.03-.08.03-.03.04 0 .06.02m-.85.95c.05.1.16.15.13.27a.23.23 0 0 1-.24.11c-.13-.07-.28-.22-.29-.37 0-.06 0-.12.06-.15.15-.05.22.1.33.13m.46.69s.08.06.08.11c.07.11.14.22.18.35-.01.04-.01.08-.06.1-.04.03-.11.02-.16.03a.47.47 0 0 1-.27-.36c-.02-.08-.17-.13-.09-.22.06-.05.1-.14.19-.16.1-.01.09.11.15.15m5.87 7.31c.09.11.25.19.24.34 0 .05 0 .1-.02.15l-.08.08c-.1 0-.17-.08-.23-.16l-.42-.41c-.05-.02-.07-.08-.1-.14 0-.05 0-.09.04-.14.05-.04.14-.04.21-.02.16.06.22.23.35.31m-9.36 10.96c5.92 2.5 9.85-1.18 16.34-1.18 4.2 0 12.22 1.05 17.56 7.36l-1.35.43c-3.02-4.16-7.01-6.39-10.47-6.39-2.85-.04-7.13 2.89-12.26 2.89-2.76 0-7.88-.57-9.81-3.11" class="cls-1"/>
  <path d="M61.75 57.18C55.84 59.68 51.9 56 45.42 56c-4.2 0-12.22 1.05-17.56 7.36l1.36.44c3.03-4.16 7.01-6.39 10.47-6.39 2.85-.04 7.14 2.89 12.26 2.89 2.76 0 7.88-.57 9.81-3.11m-36.62-2c-1.23.22-5.17 1.22-7.27 1.09A13.03 13.03 0 0 1 7.4 49.4c3.15 2.41 8.54 3.34 10.6 3.86 2.06.53 3.77 1.27 5.04 1.49-3.03-1.19-4.6-2.68-5.34-4.29-1.05-2.1-1.53-3.77-2.36-7.01 1.44 1.39 3.98 4.33 4.95 5.39 1.88 2.06 2.41 5.43 4.86 6.35" class="cls-1"/>
  <path d="M16.48 51.56c-2.13-.79-5.52-1.24-7.33-2.33-2.47-1.47-5.75-5-6.45-10.55 1.87 3.5 5.78 5.96 7.43 7.3 1.65 1.32 3.95 3.81 5.01 4.54-2.26-2.33-3.43-4.78-3.65-6.21-.09-2.35-.62-4.5-.47-7.89.73 1.88 3.2 6 3.67 7.35 1.3 3.7.46 5.32 1.79 7.79" class="cls-1"/>
  <path d="M10.49 44.35c-1.75-1.55-6.27-5.08-7.41-7.08a17.25 17.25 0 0 1-2.5-8.74c1 3.87 4.47 6.89 5.71 8.61s2.18 4.51 3.02 5.49a13.24 13.24 0 0 1-1.61-6.82c-.03-2.25.38-5.07 1.25-7.98a17.3 17.3 0 0 1 1.15 4.78c.44 5.14-1.32 9.46.4 11.75" class="cls-1"/>
  <path d="M6.09 35.37C4.68 32.61 1.97 29.62 1.2 27c-.82-2.76-1.32-6.03-.42-9.26.2 3.96 2.43 5.9 3.24 9.39.42 1.83.78 3.83 1.17 5.13-.21-2.99.51-4.96 1.25-6.61a39.18 39.18 0 0 1 2.77-4.78c.21 2.67-.72 6.07-.96 6.74-.56 1.55-2.76 5-2.16 7.76" class="cls-1"/>
  <path d="M4.72 27.54c-.51-2.72-1.69-6.22-1.85-8.66-.14-2.1.37-7.09 3.24-10.01-1.19 2.8-.7 5.7-.47 7.81.35 3.16-.92 5.07-.66 6.32.36-1.27.74-3.02 1.77-4.25 1.58-1.74 2.43-2.26 5.37-5.17a68.53 68.53 0 0 1-3.33 6.6c-1.06 1.76-4.1 4.73-4.07 7.35" class="cls-1"/>
  <path d="M6.52 18.09c.33-3.02-.48-4.3-.02-6.7.4-2.07 1.81-5.75 4.77-7.63a13.31 13.31 0 0 0-1.92 5.21c-.47 3.14-1.17 3.66-1.24 4.94a13.15 13.15 0 0 1 3.27-3.58c1.97-1.27 2.76-1.7 4.55-3.5-.79 2.4-3.29 5.18-3.8 5.72-2.24 2.32-3.81 2.61-5.6 5.54" class="cls-1"/>
  <path d="M17.92 2.02c-1.45.57-4.73 2.54-5.7 3.68a14.82 14.82 0 0 0-2.58 5.08c1.03-1.03 2.5-1.8 3.68-2.89 1.18-1.09 2.85-3.85 4.6-5.87m31.79 53.19c1.23.22 5.17 1.23 7.27 1.1a13.05 13.05 0 0 0 10.47-6.88c-3.15 2.41-8.54 3.33-10.6 3.86-2.05.52-3.76 1.27-5.03 1.49 3.03-1.19 4.6-2.68 5.34-4.3 1.05-2.1 1.53-3.76 2.37-7-1.44 1.4-3.98 4.33-4.95 5.39-1.88 2.05-2.41 5.43-4.86 6.35" class="cls-1"/>
  <path d="M58.37 51.58c2.12-.8 5.52-1.25 7.33-2.32 2.47-1.48 5.75-5 6.45-10.55-1.87 3.5-5.78 5.95-7.43 7.28-1.66 1.34-3.95 3.82-5.02 4.54 2.26-2.34 3.43-4.78 3.65-6.21.08-2.35.62-4.5.47-7.88-.73 1.87-3.19 5.99-3.67 7.35-1.3 3.7-.47 5.32-1.79 7.79" class="cls-1"/>
  <path d="M64.37 44.37c1.75-1.55 6.26-5.08 7.41-7.08a17.3 17.3 0 0 0 2.49-8.74c-1 3.87-4.47 6.88-5.71 8.61-1.25 1.72-2.19 4.5-3.02 5.49a13.13 13.13 0 0 0 1.6-6.83c.03-2.24-.38-5.07-1.25-7.98a16.97 16.97 0 0 0-1.15 4.77c-.44 5.14 1.32 9.46-.39 11.75" class="cls-1"/>
  <path d="M68.76 35.4c1.41-2.76 4.12-5.76 4.9-8.37.82-2.76 1.32-6.03.41-9.26-.19 3.95-2.43 5.9-3.24 9.39-.42 1.83-.78 3.83-1.17 5.13.21-2.99-.51-4.96-1.25-6.61a39.97 39.97 0 0 0-2.77-4.78c-.21 2.67.72 6.07.96 6.75.55 1.55 2.75 5 2.15 7.76" class="cls-1"/>
  <path d="M70.13 27.56c.51-2.72 1.68-6.22 1.85-8.67.15-2.09-.37-7.08-3.24-10.01 1.19 2.8.69 5.71.47 7.82-.35 3.16.92 5.07.66 6.33-.36-1.28-.74-3.02-1.77-4.26-1.58-1.73-2.43-2.26-5.38-5.17a69.8 69.8 0 0 0 3.33 6.6c1.06 1.75 4.11 4.73 4.08 7.35" class="cls-1"/>
  <path d="M68.33 18.12c-.33-3.03.48-4.3.02-6.7-.4-2.07-1.81-5.75-4.77-7.63A13.2 13.2 0 0 1 65.5 9c.47 3.14 1.17 3.65 1.25 4.94a13.15 13.15 0 0 0-3.27-3.58c-1.97-1.28-2.76-1.7-4.54-3.5.79 2.4 3.28 5.18 3.8 5.72 2.24 2.32 3.81 2.62 5.59 5.55" class="cls-1"/>
  <path d="M56.94 2.05c1.44.57 4.73 2.54 5.69 3.68a14.82 14.82 0 0 1 2.58 5.08c-1.03-1.03-2.5-1.8-3.68-2.89-1.18-1.09-2.85-3.85-4.6-5.87M13.37 33.3l.01.04c.08.03.18.05.25 0 .01-.02.03-.04.05-.04h-.31ZM40.04 1.56s-.05.04-.05.07c.02.04.04.09.09.09.03-.01.04-.04.04-.07-.02-.03-.05-.07-.08-.08m2.02.5c-.12-.05-.29-.08-.39.04-.03.05 0 .09.03.14.11.08.27.15.42.07a.11.11 0 0 0 .07-.13c.01-.07-.06-.11-.12-.13m1.01.88c.13.03.33.12.43-.03.04-.04.02-.1 0-.13-.06-.1-.17-.12-.28-.13-.09.03-.23.06-.27.17 0 .07.08.08.11.13m-.31.25s-.09-.1-.15-.13c-.06 0-.13-.02-.18.02-.02.06.01.1.05.14.11 0 .18.11.28.09.03-.04 0-.07 0-.13m6.62 4.1c.12.08.24.21.4.18.15.02.19.19.29.26.14.09.27.3.47.2.14-.05.02-.2.11-.29.04-.11-.04-.21-.08-.31-.03-.08-.13-.13-.13-.22-.04-.13-.2-.16-.29-.25-.11-.11-.28-.07-.42-.12-.03.04-.04.09-.08.12-.1.03-.14-.1-.24-.06-.06.06-.15.1-.16.19-.02.12.05.21.11.3h.03Zm-7.8.38c.01-.07-.03-.13-.05-.19-.01-.04-.06-.04-.1-.06-.06-.01-.12 0-.16.04-.03.06.01.13.05.19.06.09.17.04.26.03m1.15.48c.05-.12-.02-.23-.1-.3-.16-.05-.2-.26-.38-.27l-.2-.06c-.09-.04-.18-.14-.29-.06 0 .04-.03.08 0 .11.09.05.08.14.14.21 0 .03 0 .07.04.09.1.04.19.11.25.19.07.04.13.11.2.14.11 0 .23.03.32-.05m-1.69-.42c-.07-.04-.11-.14-.21-.12l-.08.06c-.02.12.14.14.2.23.13.04.13.26.29.2.04-.03.08-.04.07-.1-.09-.09-.13-.24-.26-.27m.38.68s.06-.06.04-.09c-.03-.05-.12-.07-.15-.02-.02.03 0 .07.02.09.03.01.06.03.09.02m-6.7 0c-.06.01-.13-.08-.18-.01l.04.25c.06.06.15.09.22.06.03-.08.12-.15.07-.24-.04-.05-.1-.05-.15-.05m-.43-.01s-.05.06-.05.1c0 .07.04.11.11.11.06-.02.08-.11.08-.17-.02-.05-.09-.05-.14-.04m7.2.04c-.06 0-.07.06-.1.09.01.1-.05.17.02.25.05.08.13.1.21.12.06-.02.14-.04.16-.11.03-.1-.06-.14-.08-.22-.04-.09-.12-.15-.21-.14m-6.24.19c-.06-.02-.12-.08-.18-.06-.09.05-.12.16-.11.24.08.06.19.07.27.02.06-.03.04-.09.04-.16l-.03-.04Zm7.32.82h-.09c0 .05-.04.04-.06.05 0 .02 0 .03.02.03.05 0 .08.08.13.04 0-.06.03-.09 0-.13m.34.62c.05 0 .05-.06.06-.1 0-.03-.03-.05-.07-.07-.03-.05.05-.07 0-.12-.09.03-.12-.07-.2-.07-.03.02-.07.04-.07.06-.01.1 0 .17.07.24.05.06.13.08.2.06m.53.23s.05 0 .06-.03c.04-.04.02-.1 0-.15-.08-.05-.14-.11-.22-.11-.03.01-.04.05-.03.08l.2.2Zm-.47-.14s-.09.04-.12.08c-.03.05.01.09 0 .15.04.13.19.2.31.22.07-.03.14-.07.17-.14.03-.04-.02-.08-.03-.12-.05-.04-.1-.08-.16-.06-.06-.02-.04-.09-.08-.13-.06-.05-.06.08-.11 0m-14.75.1s-.07-.06-.11-.05c-.09.01-.17.07-.19.15-.02.04-.02.08.03.1.08.04.19.07.27 0-.02-.08.09-.14.01-.2m15.11.48c.06.11.17.17.28.17.1-.04.1-.16.13-.25a.33.33 0 0 0-.15-.16c-.06-.04-.12.04-.16.06a.23.23 0 0 0-.09.18m.74.34c.08-.02.1-.09.12-.16.02-.09-.07-.01-.1-.08-.02-.02-.01-.05.01-.06a.32.32 0 0 0-.18-.1l-.06.03c-.02.1 0 .2.03.28.05.04.1.09.17.08m.19.22c-.01.06.04.1.04.16.03.06.11.09.16.1.06 0 .12 0 .16-.04.07-.03.05-.11.05-.17-.05-.08-.11-.13-.12-.22-.05-.12-.17-.11-.25-.14-.05.04-.06.08-.07.14.02.06-.01.11.03.17m-11.27 3.86c-.06.03-.11-.02-.16.03-.03 0-.03.04-.06.03-.04-.02-.09-.05-.1-.09a.28.28 0 0 0-.28-.08c-.09.07-.21.15-.24.26 0 .06.05.1.09.13.05 0 .08.04.14.04.08 0 .18.04.24-.03.03-.08.1-.05.14-.12.04 0 .04.05.07.07.08.03.16.01.24-.03.02-.03.06-.07.04-.11-.04-.03-.06-.09-.12-.09m16.95-.04c-.02.06.04.08.06.14.08.02.21.04.26-.04.02-.04 0-.08-.02-.12-.09-.05-.22-.05-.3.02m-.6 2.43c.05 0 .1-.03.14-.06.02-.02.01-.08 0-.11a.22.22 0 0 0-.16-.04c-.03.04-.1.06-.1.13.02.05.09.06.12.08m.34.23s.1 0 .15-.02c.04-.02.03-.07.02-.11-.01-.05-.07-.06-.12-.08-.05 0-.09.05-.11.1 0 .04.03.08.06.11m-.57.61c.13.04.14.18.21.27 0 .05.02.11.06.15.12.04.28.04.37-.05.09-.16-.09-.25-.16-.38-.03-.1.07-.15.06-.25.01-.15-.07-.26-.16-.35-.13-.02-.25 0-.36 0-.1 0-.17.11-.26.15-.02.06-.07.09-.11.14-.05.06 0 .13.02.17.13.02.22.11.32.16" class="cls-1"/>
  <path d="M48.39 18.6v.13c.03.03.03.07.09.07.2.13.18-.17.3-.24l.04.03c.02.08-.01.17.02.26.1.02.14-.13.26-.09.08-.03.04-.11.05-.17a.8.8 0 0 0-.13-.13.25.25 0 0 0-.19 0c-.02-.02-.02-.05-.03-.07-.02 0-.05.01-.05-.04-.03 0-.04.01-.07.05-.12.01-.21.09-.29.18m1.59.34c.06.03.14.02.19-.02.02-.04-.02-.08-.04-.11-.05-.04-.1-.06-.16-.04-.03 0-.05.02-.05.05 0 .04.02.08.06.11m-.76-.11-.24.24s-.1.05-.13.11c-.02.06.03.11.05.16.08.01.14-.06.21-.04.11-.04.13-.15.21-.23 0-.08.06-.15 0-.22-.03-.01-.06-.03-.1-.03m1.09.17c.05 0 .13 0 .12-.07 0-.05-.06-.07-.11-.07-.04.02-.09.02-.11.07.03.04.06.07.1.07" class="cls-1"/>
  <path d="M49.24 19.45c-.08 0-.17-.03-.25 0-.07-.01-.09-.08-.11-.13-.05 0-.09-.03-.13-.05-.04-.11-.14-.21-.09-.33 0-.03-.02-.03-.05-.03s-.05.03-.08.05c0 .09-.07.16-.06.24 0 .13.09.25 0 .34-.19.06-.43.06-.52.27 0 .11-.03.25.06.33.06.02.11.07.18.06a.43.43 0 0 0 .17-.13c.06-.02.08.03.11.06.12.05.23.02.34-.03.09-.02.19.06.27 0 .02-.02.01-.04 0-.06h-.06c-.06-.05-.14-.07-.18-.15 0-.05 0-.1.06-.13.1.04.18 0 .28-.02l.1-.09c-.02-.08.06-.15-.04-.2m-7.61.42c.07 0 .16.02.22-.02.05-.04.11-.09.1-.16-.03-.07.02-.14 0-.2-.05-.04-.09 0-.13.04-.05.18-.24-.01-.34.13v.09c.06.03.07.12.15.13m.43.04c.07.08.07.21.06.3.05.08.16.09.25.07.08-.01.12-.11.21-.1.06.02.11-.04.18-.02.08-.09.19-.14.26-.24 0-.02.01-.06-.02-.07-.06-.02-.1-.08-.14-.14-.1-.07-.16.06-.26.06-.09-.02-.04-.12-.07-.18-.04-.09-.16-.04-.22-.04-.06-.02-.11-.04-.17-.04-.03.02-.1.02-.09.07-.07.1 0 .23 0 .33m-1.34.02s.05-.05.05-.08c.03-.08.08 0 .11 0 .11.06.19-.03.28-.06.05.05.11.07.18.05.05-.03.1-.08.09-.15 0-.03-.03-.04-.06-.06-.11-.07-.24 0-.34.04-.12-.02-.21.06-.34.04-.03.04-.09.02-.13.06-.03.07.04.1.06.15h.09Zm8.89-.24c-.05 0-.11-.05-.15 0a.1.1 0 0 0 0 .1c.08.07.23.04.33.07.08 0 .17.05.25 0 .01-.05.07-.12 0-.16-.02-.04-.09-.01-.12-.01-.02.04-.07.04-.11.05-.07-.01-.15 0-.19-.05m-9.24.32s.08.02.11 0c.02-.03.03-.09.02-.13l-.04-.05c-.04-.07-.08.01-.1.04 0 .05-.05.11.02.14m-2.21-.2s-.06.07-.04.12c.04.02.07.09.12.08.06-.03.08-.09.08-.15-.03-.06-.11-.08-.16-.05m-1.76.02c-.05.06-.12.05-.2.04-.02.03-.06.02-.09.03-.02.02-.05.04-.04.08.04.08.13.08.21.09.06 0 .06-.09.11-.12 0-.03-.02-.06 0-.09v-.03m11.32.07.02-.03c0-.02-.02-.02-.03-.02v.05m-.6.22-.02-.1c-.05-.04-.11-.08-.17-.05-.05.02-.06.08-.06.12.03.02.06.08.1.08.06 0 .12.02.15-.06m-10.99.01c-.02-.07-.1-.06-.16-.07-.05 0-.08.05-.1.09 0 .04 0 .1.02.13.06.03.12.06.17.05.07-.01.11-.06.13-.12 0-.04-.04-.07-.06-.07m2.58-.05s-.05.08-.04.13c.01.03.04.07.08.06.03 0 .06 0 .09-.02l.02-.11c-.01-.08-.1-.04-.14-.06m8.67.15a.47.47 0 0 1-.29.12c-.05.01-.12.05-.11.11.02.04.02.09.07.11.16.03.3.09.47.07.08.01.12-.08.18-.12.03-.01.06-.03.07-.07a.18.18 0 0 0-.03-.17c-.1-.08-.24-.05-.36-.05m-6.21 1.01s-.05.1-.02.14c.04.05.08.09.14.07.03-.05.09-.08.09-.15.05-.16.23-.27.33-.4.1-.06.19-.17.33-.17.05-.01.06-.08.1-.12 0-.07.1-.11.08-.18 0-.04-.04-.06-.08-.07-.08.02-.13-.04-.18-.09-.11 0-.13.12-.2.18-.07.17-.31.07-.33.27-.02.16-.13.28-.21.43-.01.03-.03.08-.06.1m-5.41-.97s-.09.02-.12.07c-.03.08.07.09.09.16.02.02.06.04.09.03.06-.01.07-.07.09-.13-.02-.07-.08-.1-.14-.13m3.3.07s-.06-.05-.1-.05c-.03 0-.05.02-.07.05-.03.03 0 .07.04.09.04.03.08.03.12 0 .01-.03.03-.06 0-.09m-4.18.65c-.13.06-.14.19-.16.31.02.04 0 .08.04.1.04.02.08.01.1-.01.03-.03.06-.05.06-.12.06-.06.02-.16.04-.25-.01-.04-.06-.03-.09-.04m4.42 3.25s.01-.06 0-.07c-.07-.02-.1-.18-.18-.09a.06.06 0 0 0 0 .08c.06.02.12.11.19.08m-.43.11s.04-.06.04-.1c0-.02.04-.04.03-.08l-.08-.08s-.1.01-.13.06c-.02.05.02.08.02.12.02.05.07.06.12.08m.2.2c.06.01.12.01.18-.03 0-.05.06-.08.02-.13-.08.03-.14-.09-.22-.02-.02.05-.04.08-.03.12 0 .02.03.03.05.05m-4.04.47c.07.02.12-.06.16-.1.04-.06.03-.16 0-.23a.48.48 0 0 0-.36-.16c-.07.03-.07.11-.13.13-.01.02 0 .04.01.06.16.02.15.26.33.29m.52.56s.2.03.17-.11c-.03-.05-.1-.06-.15-.09-.05-.09.05-.16.01-.26-.05-.07-.13-.14-.23-.1-.07 0-.1.07-.13.11-.03.06.06.11.06.15 0 .04-.03.05 0 .08.06 0 .03.05.05.08 0 .03-.03.07-.07.06a.19.19 0 0 1-.07-.12c-.08-.05 0-.14-.08-.2h-.09c-.1.06-.19.14-.18.26.04.07.09.14.17.16.19.04.35-.03.53-.02m-.87.2c.05-.02 0-.08 0-.11.01-.06.07-.11.04-.17-.03-.02-.06-.04-.1-.04-.09.04-.08.15-.13.22-.03.04.02.08.04.11.05 0 .11.02.14 0m.3-.06c-.06.03-.14.03-.2.09 0 .08.09.09.15.12.1 0 .17.11.28.05.04-.06.06-.15.01-.21-.07-.04-.17-.01-.24-.05m1.1.51c-.04-.11-.16-.04-.23-.08-.04-.04 0-.09 0-.13-.04-.06-.15-.11-.13-.22l-.03-.04c-.09 0-.22 0-.27.08 0 .07-.02.14.02.21.1.07.23.08.35.08.02 0 .04.02.03.05.03.11-.1.13-.11.22-.04.06-.09.07-.15.07-.08.06-.17.09-.19.19.02.07-.07.17.02.23.12-.03.25-.07.37-.04.06-.05.14-.07.22-.05.09-.04.21-.02.32-.03a.14.14 0 0 0 .08-.09c.09-.14-.04-.25-.1-.36-.05-.06-.13-.03-.19-.08m2.82-.11s.03.07.06.07c.04 0 .07 0 .1-.04s0-.09-.01-.14c0-.04-.05-.02-.08-.03-.04.02-.07.08-.07.13m.29-.09s-.06.06-.06.1c.02.04.06.05.12.05.03 0 .04-.04.03-.07.06-.03.09.04.14.04.04-.02.06-.05.06-.09-.01-.12-.17-.05-.19.02-.04-.02-.05-.05-.1-.05m-4.26.22s-.06-.09-.1-.11a.41.41 0 0 0-.07.15c-.05.06-.06.19-.17.18-.02.05.01.09 0 .14.09.1.22.18.32.28h.04v-.19c-.05-.14 0-.31-.03-.47m4.45.82-.08.04c0 .11-.05.21-.03.33-.06.05-.01.13-.01.2.06.04.06.15.17.12.06-.06.16-.09.18-.18-.04-.08-.05-.16-.1-.23-.06-.09-.01-.24-.12-.28m.1.77c-.02.06-.02.16.04.21.12.09.24.18.4.18.05-.03.11-.03.14-.09.02-.07.07-.14.02-.2-.05-.08-.15-.12-.23-.14-.06-.05-.13-.11-.22-.09-.07.02-.09.08-.15.12m-1.31.75c.1-.04.1-.16.11-.26.01-.07-.08-.12-.12-.17-.04-.07-.07-.15-.02-.22.06 0 .13.02.2-.02.03-.05-.03-.08-.05-.13-.05-.03-.12-.06-.18-.05a.2.2 0 0 0-.09.19c-.02.04-.07.02-.1.04-.07.02-.09.07-.1.13.02.16.07.32.18.43.05.04.12.05.17.04M26.01 30.9s.07-.09.06-.13c-.02-.17.06-.31.07-.47-.01-.15-.11-.27-.14-.41-.06-.08-.15-.02-.22 0-.11-.1-.06-.26-.16-.36-.03-.04-.1-.01-.13-.02-.07 0-.13.07-.15.14-.03.1.04.18.06.28.03.05 0 .11.03.15 0 .11.07.19.08.29l.05.1c.06.15.22.25.27.39.06.03.11.06.19.05m10.55-.74c-.14-.07-.31.04-.45-.06-.07-.1-.18-.14-.3-.14-.03.04-.07.04-.11.07-.06.07 0 .16 0 .24l.11.09c.02.08-.06.11-.1.15 0 .1.08.14.14.2.12.11.32.07.45 0 .07-.02.16-.01.22-.05a.31.31 0 0 0 .16-.31.52.52 0 0 0-.14-.19m-10.57 1.21c.05 0 .09.05.14.02.07-.02.1-.08.1-.15-.03-.03 0-.08-.03-.11-.07-.04-.09-.1-.16-.13-.06 0-.12.01-.16.06-.02.06 0 .11 0 .17.02.06.09.07.11.13m.05.28s.02.09.06.12c.05.01.11.04.16.03.03 0 .06-.04.06-.07l-.08-.08c-.06-.02-.16-.07-.21 0m.29.25.05.06c.04.02.07.01.1-.02.02-.01 0-.03 0-.04-.01-.04-.04-.06-.08-.06-.02.02-.08.03-.07.07m.05.15-.01.14c-.04.05-.13.03-.16.1a.14.14 0 0 0 0 .09c.03.02.07.02.11.01.03-.04.09-.02.1-.08 0-.09.09-.15.1-.23-.03-.06-.11-.12-.16-.04m-.3.63c.03-.06.16-.08.1-.17 0-.05-.08-.08-.12-.04 0 .07-.14.11-.07.19.02.02.05.04.09.02m22.59 1.73c.07.04.14.02.21-.03.07-.12.14-.26.12-.4-.05-.13-.19-.07-.28-.06-.07.03-.11.12-.14.18.02.1-.02.25.09.3m-5.87.12c.08-.02.16-.03.22-.1.02-.1.06-.17.07-.27-.02-.06-.08-.04-.12-.06-.12.1-.31.15-.37.3.03.08.12.12.2.12m-3.98.1s.1.02.11-.03c0-.07.02-.13-.03-.19-.03-.02-.08-.02-.12-.01-.03 0-.05.04-.05.08.03.05 0 .14.08.15m-.04.39s0 .1.04.12c.05.02.1.05.16.02.11-.06.12-.2.12-.31-.03-.06-.09-.07-.15-.08-.12.04-.16.14-.17.26m2.84.17c.13-.09.38-.07.35-.28-.05-.11-.2-.07-.28-.01-.1 0-.16.1-.27.08-.07 0-.14.07-.18.1-.03.04.02.08.04.12a.7.7 0 0 0 .35 0m-2.12.16c.1.07.25.05.37.05.08-.06.03-.17.05-.24-.04-.06 0-.14-.07-.17-.05-.02-.11.01-.16.03-.07.06-.14.1-.21.18 0 .05-.04.13.02.16m10.46 4.13s.08-.01.09-.06c-.02-.1-.13-.09-.18-.17-.03-.02-.06-.02-.08 0-.01.06 0 .1.02.15.02.06.09.05.14.07m-16.37 3.44c.06.03.11-.02.16-.05a.21.21 0 0 0 0-.19c-.03-.07-.11-.1-.18-.1-.02 0-.04.03-.04.06-.08.03-.05.11-.07.16 0 .08.07.11.13.12m2.21 1.91.12-.03c.03-.07.06-.17.02-.23-.03-.06-.11-.06-.19-.06-.08.04-.09.13-.09.21.01.08.09.09.14.12" class="cls-1"/>
  <path d="M61.23 36.3a26.2 26.2 0 0 1-5.21 7.83l-3.14-3.14a21.18 21.18 0 0 0 5.91-14.42h4.47a25.47 25.47 0 0 1-2.04 9.73m-9.38 11.34c-4.11 2.79-9 4.35-13.97 4.41v-4.43c1.97 0 3.96-.43 5.81-.89.08-.02.06.09.12.07.06.01.12-.05.17 0 .1.15.27.14.41.2.37.03.45-.07.75-.23.12-.04.06-.17.31-.21.22-.13.47-.11.64-.29.11-.22.44-.27.64-.38.26-.37.81-.62 1.24-.86 1.38-1.17 3.06-2.13 4.38-3.51l3.14 3.14a26.09 26.09 0 0 1-3.65 2.98m-11.55-5.47c.16.17.38.23.54.4-.02.25.32.31.31.56.04.06.04.16.11.19.13.17-.04.41-.11.58-.11.35.12.7.36.92.03.28.38.36.6.43.17.09.65.61.76.77-1.16.61-3.41.72-4.99.82v-4.42c.81-.02 1.63-.11 2.42-.25m-1.06-.97c.14 0 .19 0 .25-.1.34.71-1.17.42-1.62.53v-.62l.09-.03c.44-.12.91.21 1.32.03.02.09-.18.13-.05.2m-1.88-5.41c-.45.31-.59.15-1.07.11-1.2 1.1-4.78-1.27-5.82-2.27l3.08-3.07c.9 1 2.43 1.22 3.43 1.69.06-.03-.02-.15.06-.14-.03-.07.15 0 .19-.02l-.15.02c0 .14.1.23.09.34-.16.09-.14-.03-.28-.02-.06.02 0 .14-.08.16 0-.06-.06-.12 0-.17-.04-.21-.29-.22-.42-.08-.08.1.02.16.01.22-.22.12-.2.36.05.44.2.06.27-.21.34-.36.08.07.23.14.19.28-.09.06-.28.09-.23.25.07.23.26 0 .41.07.05-.02.06-.09.1-.13.1-.01.14-.2.26-.12.12 0 .2-.04.26-.15.09.04.02.14.01.2-.13.06-.28.1-.42.17-.05.03-.02.13-.09.13-.14.02-.33-.1-.42.05-.12.18.05.41.21.36.31.46-.17.49-.51.43-.31-.05-.39.24-.45.48-.03.15-.06.29 0 .44-.03.16-.1.32.05.45.09.04.2.02.25.13 0 .14.15.17.25.1.1-.04.21-.1.33-.13.06-.14.21-.25.38-.18.06-.03.17.05.19-.05-.04-.22.13-.16.16-.3.03-.22.25-.21.36-.36-.04-.08-.11-.16.03-.22.34.09.47-.34.81-.31.14.07.13.26.28.31.22.02.47.06.64.22.1.1.16.22.3.28.14-.11.02-.29.02-.42.03-.04.14 0 .12-.09-.06-.1-.2-.1-.21-.2-.05-.04-.09.01-.14.01-.03-.08-.12-.05-.17-.12-.53-.23-.25-.36.17-.22.13.1.37.11.43.27.02.06-.05.11 0 .16.1.13.11.35.33.24.06.01 0 .06-.02.08.09.22.26.26.44.09.15.02.31-.02.26-.2.04-.23-.22-.2-.24-.34.24-.35.42.24.74.27.12.05.2-.05.28-.12.2-.04.17-.06.25-.26.06-.13.23-.11.35-.16.16-.14.35-.15.4.09.02.18-.01.36-.03.53-.02.04-.07.07-.07.11-.39.36-.92.5-1.43.6-.29-.02-.62.14-.74.4-.29.12-.53.21-.81.08-.12 0-.49.11-.49-.08-.11-.15-.1-.44-.33-.48-.23-.04-.42.12-.65.12-.43-.02-.95-.06-1.22.36m-.27 5.84a15.38 15.38 0 0 1-10.29-4.33l3.12-3.11a10.93 10.93 0 0 0 4.84 2.68l-.17.1c.04.08-.08.12-.12.16-.17.13-.37.24-.5.41a.78.78 0 0 0-.09.33c-.03.17-.14.32-.15.52-.11.12-.4.05-.39.3.17.47.43.93.8 1.28.1.36.45.64.76.8.23.31.57.22.93.27.42.03.85.11 1.27.18v.44Zm0 5.2a20.6 20.6 0 0 1-13.97-5.85l.56-.56c.18.16.37.28.56.46.66.23 1.36-.09 1.99-.37.19-.17.49.06.68-.08.17-.03.32.06.5.03.29-.06.73-.27.72-.61.03-.09-.11-.17-.02-.23l-.31-.43c2.66 2 5.96 3.16 9.29 3.23v4.42Zm0 5.21a25.8 25.8 0 0 1-17.65-7.39l3.12-3.12a21.28 21.28 0 0 0 14.53 6.08v4.43Zm-21-11.38a25.46 25.46 0 0 1-4.44-14.08h4.44c.03 2.09.36 4.14.99 6.12-.24-.03-.23.1-.46-.03-.19-.08-.21-.36-.41-.41-.23-.01-.4.16-.63.17-.1.06.06.16.02.23-.03.12-.08.07-.2.16-.19-.07-.3.19-.46.1-.17-.24-.21-.22-.04-.26 0-.11-.06-.2-.07-.31a.36.36 0 0 0-.31-.16c-.11.05.02.2-.09.26-.1.01-.09-.15-.19-.1-.25.09-.02.32.14.29 0-.13.34-.06.35.03-.14.05-.32 0-.47.06-.19.12-.3.48-.58.42-.19-.12-.27-.04-.3.16.05-.01.38.05.35-.07.08-.06.03.57.1.65.03.24.19.6.09.77-.08-.06-.02-.16-.02-.25-.1-.18-.14-.08-.29-.08.01-.1 0-.18.03-.27.02 0 .06-.03.04-.06-.08-.09-.12-.2-.24-.18-.23.16.13.52.08.61-.08-.01-.11.05-.12.11.06.11.06.26.2.34.02.13.09.24.18.35.07.14.03.3.11.42-.13-.09-.14.02-.16.14.13.22.46.18.22-.09.15-.07.35.39.27.47-.31-.44-.36.12 0 .11.05-.06.11.09.08.14a.5.5 0 0 0 .22.3c.26.03.24-.44.14-.59-.05-.2-.04-.46-.24-.63-.02-.05-.08-.08-.07-.14.07.03.16.06.22 0 .05-.03.13-.05.14-.12.02-.05.07-.05.09 0-.03.22.35.35.48.62.14.17.63.37.66.02 0-.07-.04-.21.05-.24.21.11.16.47.43.53.1.07.05.19.14.26.13.11.29 0 .43.06.02-.02.02-.06 0-.09-.1-.08-.02-.23-.13-.32.02-.21.1-.04.14.05.07.47.05.87.66.69.15.08.03.23.09.34.3.46.66 1.13 1.3 1.04.17 0 .19-.41.31-.19-.02.55.42.99.9 1.22.79.28 1.15 1.25 1.81 1.78l-3.12 3.12a26.14 26.14 0 0 1-2.83-3.47m-2.4-24.32a25.6 25.6 0 0 1 5.32-7.89l3.13 3.13a21 21 0 0 0-6.06 14.32h-4.44c.06-3.31.74-6.52 2.05-9.56M23.1 5.06A25.9 25.9 0 0 1 37.1.7v4.42a21.3 21.3 0 0 0-14.42 5.92l-3.13-3.12a26.77 26.77 0 0 1 3.54-2.85m8.26 24.81c.22.15.54-.02.64.1 0 0 0 .03-.02.03-.11-.03-.08.12-.16.14-.05 0-.09.04-.14 0-.06-.14-.3-.12-.32-.27m-3.81-1.42c.12-.21.02-.22.26.01.11.04.17.17.29.19.1.07.52.01.71.03.09.05.21.03.3.06.19.15.13.64.5.48 0-.08-.07-.26.05-.14.17.01.24.28.41.25.04.05.15.03.16.12-.02.05-.06-.03-.09-.03-.06.03-.1-.02-.16.01-.14.14 0 .26.12.36a.9.9 0 0 0 .31.3c.07.05.1-.08.17-.03.08.06.01.19.11.25.35.05.26-.15.14-.37.01-.02.04 0 .05 0 .1.08.05-.2-.03-.23-.08 0-.11-.14-.05-.19.17.02.26.19.3.33 0 .05-.08.09-.05.15.11.07.08.18.02.29-.04.08.1.11.06.18-.03.04 0 .09.02.13.05.09.22.11.14.25-.08.17.05.18.2.18.15 0 .15-.15.19-.25.1-.1.13-.25.08-.4.05-.13.27-.12.29-.29.04-.06.14-.07.14-.16.09-.19.07-.49.28-.6.11-.12.37.53.54.65l-3.08 3.08a10.17 10.17 0 0 1-2.41-4.63m-1.04.09c-.13-.17-.34-.01-.47.02 0-.17.05-.32.06-.47.05-.01.03.07.08.05.13.11.24.2.41.17.03.04-.03.07-.04.1 0 .04.03.12-.04.12m-3.43 11.41-.49.48c-.11-.14-.58-.56-.47-.56-.02-.02.17-.05.17-.06.25-.28.56-.03.79.13Zm8.13-28.35a16.26 16.26 0 0 0-4.84 3.14l-3.14-3.14a20.7 20.7 0 0 1 13.86-5.69v4.43c-2.03.04-4.01.47-5.88 1.25m-.89 6.56-.28.24-3.11-3.11a15.42 15.42 0 0 1 10.16-4.16v4.41c-2.48.07-4.87.99-6.77 2.61m-3.49 7.68c.06.09-1.5.02-1.51.04l-.03-.07c.03-.21-.1-.37-.02-.55.14-.2.42-.27.66-.34.22.03.54-.06.66.18.18.17.27.51.25.74m-.35-3.42c.12.29.62-.01.81-.04 0 .03-.02.06-.03.08-.26.16-.56.12-.77.32-.21.05-.36.25-.58.2-.1-.06-.22-.04-.32-.02-.25.17-.3.49-.44.7a.8.8 0 0 0-.32.55c-.22.2-.36.66-.22.92.05.33-.38.45-.45.76H22.1a15.14 15.14 0 0 1 4.27-10.06l3.11 3.11c-1.24 1.17-1.43 2.37-2.4 3.07-.17.05-.68.15-.63.42m2.44 6.15s-.09.03-.15.03c-.09-.11.37-.3.15-.03m1.99.65c-.07-.02-.15-.12-.16-.2.11-.02.25.11.16.2m.26.28c.06.07.22.2.13.28-.11-.06-.16-.2-.28-.24 0-.07-.12-.13-.06-.19.1 0 .12.13.2.15m1.25-7.31c-.06-.09-.19-.06-.26-.12-.06-.08-.19.08-.2-.06-.13-.06-.49.1-.62.12.03-.17-.22-.19-.33-.32-.31-.43-1.03-.65-1.55-.55-.38-.08-.57.42-.94.35.42-.77.94-1.48 1.55-2.13l2.68 2.67c-.02.08-.12.12-.19.11-.04.04-.08.1-.14.09-.04-.06.08-.12 0-.17m4.14-2.29c.13.02.23-.09.33-.15.04.12.17.02.19.12l.02-.02v.82c-.5.03-1.01.13-1.5.29-.01-.16.21-.32.02-.45-.09-.02-.17.05-.22.13-.08.23-.31.4-.3.66-.13.14-.12.4-.36.47-.12.11-.16-.02-.27.03-.16.06 0 .32-.22.27-.12-.19-.27.13-.42.05-.12.09-3.15-3.14-3.22-3.15a10.18 10.18 0 0 1 6.49-2.63v3.32c-.14-.09-.15.01-.28 0-.06.03-.14-.03-.2.01-.07.05-.19.2-.06.23M21.3 25.84h-4.46a20.24 20.24 0 0 1 5.83-13.75l3.14 3.14a15.8 15.8 0 0 0-4.51 10.62m-1.66 5.02c.1.23-.13.39-.1.61-.02.15.12.25.11.4l-.13.54c-.35.26-.29.08-.7.2-.27.13-.64.07-.94.06a19.98 19.98 0 0 1-1.04-6.14h4.45c0 .71.07 1.41.17 2.1l-.21-.06c-.51-.12-.51.45-.76.72-.33.19-.46.54-.56.87-.19.18-.32.42-.29.68m3.71-3.5c.01.29-.25.69-.25.89.03.06-.02.1-.02.17.01.38.6.32.15.7-.36.21-.46-.05-.76-.15-.51-.52-.28-1.67-.39-2.43h1.71c-.07.14-.08.3-.13.44-.08.15-.33.17-.31.38m2.02 9.03c.07-.16.26-.2.37-.24.19-.06.2-.34.18-.51-.06-.22-.05-.46-.08-.69-.12-.29-.43-.49-.51-.81-.16-.32-.02-.76-.15-1.08.08-.12.29-.05.32-.23.06-.02.02-.09.07-.12.04-.03.11 0 .15-.04-.05-.23-.16-.09-.28-.06-.08-.02-.04-.18-.16-.12-.06.03 0 .09-.05.14-.03.07-.13.11-.11 0 .02-.18.23-.31.09-.48-.13 0-.32-.33-.33-.46.06-.06.11.04.17.02.14-.2-.24-.18-.25-.36-.05-.14.07-.1.09-.18.03-.12-.08-.22-.04-.34-.06-.09-.14-.16-.21-.05-.14-.02-.48.27-.36-.08.07-.18.3 0 .37-.17.06-.1-.04-.17-.05-.27-.23-.21-.37-.53-.59-.69-.26-.18-.28-.42-.16-.69.04-.18-.14-.28-.19-.43-.07-.18-.05-.49.17-.58.18-.07.37 0 .56-.05.43-.13.14-.73.38-1 .21.08.44.07.66.07.13-.07.12-.23.21-.29l-.02-.07h1.02l-.02.09c.04.35.55.16.2.47 0 .17.03.37-.13.48-.17.01-.28.1-.42.19-.08 0-.15 0-.23-.03-.13-.2-.25-.49-.53-.49-.27.1.06.34 0 .51.03.06 0 .15.04.2-.02.17 0 .68-.12.76-.09-.02-.15-.14-.24-.15-.43-.01-.1.63.03.64.23-.05.22.07.33.23.17.09.23-.06.3-.02 0 .08-.04.12.01.2.06.09.24.16.21 0-.1-.11-.17-.16.03-.19.12-.09.43-.25.17-.37-.19-.07-.17.11-.24.19-.31.25-.13-.57-.05-.59.06.04.11.09.18.12.09-.07.36-.36.36-.11-.09.06-.08.23-.22.21-.08.09.07.13.15.12.1.02.19-.21.24-.04l.11-.08a10.95 10.95 0 0 0 2.55 4.72c0-.02-3.08 3.13-3.08 3.05-.12.11-.3-.19-.46-.04-.27-.07-.64.22-.44-.23m12.65-3.87c.14.14-.01.09-.11.07-.2.05-.12-.05-.2-.17-.16-.08-.1-.15-.11-.31-.21-.12.43-.06.56-.11.16.34-.17.3-.14.53m1.51-.79c.05.15-.07.18-.16.28-.1.05-.1.19-.21.22-.1.03-.17-.08-.27-.05-.07-.04-.15 0-.19-.07.04-.19-.18-.25-.19-.46-.07-.06-.18 0-.16-.14.24-.51.33.4.54.45.42.23.32-.38.42-.61-.01-.08-.09-.15-.14-.2 0-.07 0-.14-.06-.18 0-.18-.02-1.02.27-.54 0 .23-.13.56.05.73.09.05.22.02.29.1 0 .15-.26.09-.32.22-.03.11.07.17.12.25m-2.18-10c.02.12.22.07.3.04.14.06.03.08-.02.16l-.36-.06c-.12-.16-.55 0-.6.14 0 .29.14.41.34.56.05.1.18.09.25.17.02.22.28.37.46.21.23 0 .4.2.64.1.16-.01.15.17.21.26.53.38.39.44.72.75.11.02.22-.04.32.02.06.02.1-.11.14-.03-.12.35-.13.24-.09.71.14.18.23.08.18.36-.04.18-.34.08-.29.29 0 .15-.07.24-.19.33.03.1.09.29.23.26.08-.09.18.06.21.13.14.26.34.98.6.41.02 0 .05 0 .05.03.02.04-.02.05-.03.06-.03.04-.02.11-.04.15-.13.11-.41.24-.06.3.28-.08.58-.11.82-.3.06-.03.14.02.1.09-.09.09-.22.15-.05.27.11-.01.19.11.02.07-.36-.03-.7-.07-1.03-.03-.32.23.3.49.34.66-.19.21-.07.45-.17.69-.21.11-.12.35-.26.5-.04.14-.18.04-.29.04a.84.84 0 0 1-.66-.04c-.2-.05-.44.11-.52.29-.14.25-.34.47-.36.76 0 .32-.17.61-.4.82-.01.1 0 .2-.07.27.21.11-.25.07-.37.08a5.02 5.02 0 0 1-3.33-1.3c.25.1.33-.07.54-.14.24-.24.59.06.84-.19.25-.04.65.09.82-.19.11-.03.29-.18.12-.27-.06.02-.11-.04-.04-.06.09.04.15-.05.23-.06.02-.12.11-.2.1-.32-.02-.06-.11-.07-.1-.13.13-.06.19-.17.3-.28-.03-.24.32-.42.23-.69-.06-.1-.25.03-.2-.14.16-.12.26-.14.12-.34-.4-.3-.86-.27-1.31-.25-.21.13-.48-.02-.71.1-.24.17.03.5-.14.71-.04.12.04.74-.17.5-.04-.1.1-.13.06-.22-.13.05-.31.1-.45.17-.09.04-.11.12-.11.2 0 .14-.17.27-.27.37-.15.3-.43.5-.37.66-.24-.18-.4-.65-.6-.84l.07-.1c.18-.17.24-.09.31-.16.04-.06.09-.14.16-.15.18-.13.09.1.08.17-.01.08.31.11.35.08.18-.11.1-.37.2-.52 0-.23.5-.76.57-.95-.09-.08-.25-.06-.31-.17.04-.2.05-.39.02-.58 0-.07.11-.13.05-.19a3.87 3.87 0 0 0-.21-.17c-.06-.03-.06.09-.13.06-.06-.03-.11.12-.13.15-.03.19.08.28.25.2.09-.03.17.13.06.14-.3.07-.48.17-.44.51.13.13 0 .21-.07.33-.1.07-.18.16-.28.21-.08.03-.1-.09-.04-.14.03 0 .08.02.1-.02 0-.04-.02-.04-.04-.05-.17-.08-.12-.26-.49-.15-.03.06-.05.14-.14.15-.06 0-.14.08-.18 0-.11-.05-.32.04-.46.07-.19-.03-.39.09-.59.07.17-.17-.19-.22-.26-.07.01.06-.05.08-.04.14l-.04.02c-.12-.03-.25 0-.36-.07 0-.28.6-.17.52-.47-.04-.05.02-.23 0-.29.09-.23.29-.42.39-.62.11-.07.28-.05.42-.03.1.11.24.29.4.2l.09-.12c0-.07-.12-.14-.05-.2.15.01.17.16.27.25.06.06 0 .12 0 .19-.04.05-.13-.01-.16.07-.06.03 0 .11-.05.15-.08.06-.14.15-.11.25-.12.18.2.16.31.11.21-.19-.09-.45.03-.55.22.1.09.43.25.57.15.05.34.08.49.03-.02-.09.05-.23-.02-.33-.02-.11.03-.14.1-.2.08-.3-.05-.61.11-.89.19.14.38-.04.58-.04.1-.11.28-.12.29-.32.03-.12-.12-.09-.17-.13-.21-.14-.47-.09-.58.13-.16.09-.1-.23.18-.46.12-.25.21-.25.44-.3.13-.06.07-.23.15-.33.02-.27.28-.3.51-.33.41-.14.83-.27 1.1-.63.07-.1.28-.19.19-.33-.18-.16-.03-.23-.09-.37-.08-.05.01-.13-.03-.19.02-.11-.08-.23.05-.28.66-.13.04-.4-.12-.12-.05.1-.07.16-.16.04-.01-.48.68-.31 1.02-.38-.04.13.1.21.04.33m4.56 10.71c.08-.07.19-.2.27-.06.07.21-.3.31-.27.06m-.42 1.3c.1.15-.2.26-.3.27-.06-.11.12-.16.15-.23-.01-.09.04-.2-.03-.27.08-.1.14-.21.21-.31.02-.13-.11-.19-.1-.3.09-.05.07-.17.16-.2.12.03.03.1.05.15.14.21.4 0 .49-.15.25-.04.61-.22.84.01.05.32-.37.31-.59.39-.18 0-.31.19-.48.22-.14.14-.44.2-.41.43m-3.66-17.43a10.1 10.1 0 0 1 6.37 2.66c-.1.08-.09.17-.21.06-.08-.2-.28.11-.28-.14.04-.04.11-.08.07-.13-.28-.08-.56.28-.77.46-.11.08-.27.13-.33.28.03.12.18.12.27.15.05.03.06.11.13.1.12-.03.27-.23.4-.13.07.05-.82.86-.83.9-.42-.02-.77.39-1.07.65-.14.07-.26.2-.2.34.17.23-.28.21-.4.3-.1.01-.25.06-.34-.01-.01-.12-.13-.26-.25-.28-.2-.12-.36-.33-.64-.33-.32.2-.46.34-.81.24-.02-.03 0-.06 0-.09.15-.08.19-.17.31-.23.23-.2.56-.18.79-.41.16-.16.13-.46.17-.66-.1-.28-.36-.19-.5 0-.11.11-.29.07-.36.22-.17.11-.38.3-.39.49-.27.09-.76-.17-1.13-.14v-4.32Zm0-5.21c3.73.08 7.37 1.6 10.08 4.15l-3.16 3.15a10.83 10.83 0 0 0-6.92-2.88v-4.42Zm7.47 1.1c.18-.11.41.08.61.03.14.04.12.24.29.24.06-.02 0-.11.04-.14.08 0 .03.1.11.11.11.39.03.04.32.53.02.12.13.19.08.3-.24-.29-1.89-1-1.44-1.07m-7.47-4.17.13-.12c.28-.01.55-.24.21-.4-.11-.02-.24 0-.29-.11l-.04.03V5.89c2.68.1 6.81.79 8.48 2.18.09.12-.1.18-.09.29-.02.04-.07 0-.11.02-.16.06-.11.28 0 .37.09.06.1-.07.13-.12.07.15.19.19.32.28.07.13.19.2.31.25.28.35.29.79.4 1.2.09.18.35.15.41.33.08.13.03.35 0 .51-.13.13 0 .37.05.51.32.14.07.57.28.78.11.22.46.06.61-.05.15-.15.41-.29.62-.21.31.26.68.58.69 1.02-.01-.01-1.13 1.22-1.12 1.06-.14-.03-.24-.29-.17-.42.11-.01.38-.02.29-.2-.13-.28-.29-.12-.31.1-.06-.15-.22-.33-.24-.51a.1.1 0 0 0 .01-.12c-.1-.11-.06-.29-.2-.37-.21-.13-.48-.51-.73-.25-.33-.15-.39-.59-.66-.81-.22-.14-.44-.57-.68-.63-.53.09.17.62.27.87-.04.13.14.16.11.28-.06.09-.11-.05-.19-.03-.19.13-.18-.17-.23-.27-.1-.08-.2-.14-.28-.22.12-.15-.03-.24-.11-.36-.08-.07-.15.06-.22.08-.17.09-.11.22.07.25.11-.01.18.08.04.09-.17-.03-.37-.18-.52 0-.06.07.02.22-.11.22-.06-.06-.02-.16-.11-.22-.06-.29-.37.04-.25.22a16.18 16.18 0 0 0-6.76-1.68V8.06Zm0-3.59c.3.08.7-.15.9.18.16.25.33.04.54.08.12.11.14.31.32.33l.58.06c.16-.17-.15-.28-.26-.37-.14-.04-.15-.19-.22-.28-.01-.08.04-.14.07-.2 0-.13-.26-.18-.28-.41.01-.07.04.06.09.06.02.07.1.03.14.07.21-.03.32.2.53.16.36-.11.7-.24 1.06-.33.21-.01.47.11.67-.02.3-.05.16-.1.23-.17.09.07.22.02.33.01.38 0 .11-.14.02-.29a.89.89 0 0 0-.47-.19c-.33-.22-.83-.25-1.14.03-.29.2-.77.07-.97.4-.08.08-.16-.06-.27-.02-.15-.02-.21.41-.25.13-.26-.25-.6.03-.9.06-.09.02-.18.06-.21.15-.29.06-.27.07-.53.21V.69c6.47.08 12.82 2.7 17.48 7.18l-2.7 2.71c-.01-.06.02-.06-.05-.05 0-.16-.19-.31-.3-.38-.26-.05-.34-.06-.45-.33 0-.21-.1-.37-.14-.57-.32-.22-.54-.58-.77-.86-.24-.21-.56-.21-.8-.38-.21-.17-.31-.61-.65-.48-.41.11-.77-.43-1.19-.22-.18.12-.44.05-.62.2-.06.07-.19-.03-.22.08a21.63 21.63 0 0 0-9.59-2.48v-.65Zm11.54 12.39c-.03.06-.09.11-.03.18.03.05.08.15.16.13.49.22.89 1.22 1.27 1.75-.12.09-.34-.04-.38.16-.04.11 0 .22-.04.33a.22.22 0 0 0-.09.35c.18.07.33.23.54.19.27.11.45.38.73.52.19.6.64 1.25.49 1.85.18.44-.03.33-.17.66-.25.36-.41.97-.94.89-.06-.04-.18.06-.19-.06.09-.38 0-.3.16-.63.25-.2.11-.23.1-.45.27-.18.07-.3-.12-.41a.66.66 0 0 0-.33-.29c-.44-.28-.84.05-1.11.4-.1.11-.11.36-.32.34-.16-.01-.17-.2-.29-.27-.05-.07-.16-.06-.17-.15-.13-.07.11-.33.14-.18-.04.41.34.39.5.23.12-.19-.32-.49-.49-.39-.11-.04-.08-.19-.21-.22-.1.08-.13-.07-.2-.12-.07-.74-.96-.85-1.52-.99-.36.24-.62-.72-.94-.96l.31.05c0-.08.15-.07.1-.17-.1-.15-.32-.03-.39-.2l-.09.23-.58-.67 3.16-3.16c.32.34.63.69.93 1.06m2.54-6.17c.1-.05.33-.14.39-.02-.06.2-.78.34-.39.02m-1.36 4.36c.15.22.64.16.26-.06.15-.06.4.02.58.02.08.06.09.16.1.25.02.33.44.7.78.77.12.09.29.09.36.25.1.08.25.11.31.24.17.16.27.01.46.06.14.04.22.17.33.25.54.55.37.38.8.93.11.18.29.31.44.46.01.1-.01.24.09.3.26.09.51-.06.73-.17.18.02.32-.16.44-.27a20.22 20.22 0 0 1 1.74 7.77h-4.45c0-.78-.14-1.56-.22-2.31.08-.26.31-.46.31-.74.08-.1 0-.24.02-.36.07-.16.08-.34-.06-.47-.31.08-.59.38-.69.68-.05.22-.15.44-.2.67.03.15-.16.24-.17.37a1.2 1.2 0 0 1-.2.48c-.02.23 0 .45 0 .66.03.2.25.1.37.07.03.31.05.63.06.94h-3.13s-.04-.08 0-.12c.19-.08.36-.19.56-.27.59-.24.27-.29.22-.76.24-.31.95-.28 1.33-.34.05-.05.18-.05.17-.15.07-.4.54-.52.67-.89.16-.21.17-.49.28-.71.02-.04.03-.1.02-.14.12-.2 0-.34.14-.46.12.02.36-.14.27-.27-.25-.18-.38-.01-.4-.08-.08-.19.02-.09.12-.12.12-.09.06-.59-.28-.39-.11-.13.06-.23.05-.37.07-.13-.03-.27-.08-.39a.33.33 0 0 0-.08-.33c-.07-.14-.07-.32-.15-.46.03-.13-.28-.57-.41-.51-.07-.04-.21.03-.22-.1l-.18-.33a.52.52 0 0 1 .32-.38c.09-.15-.05-.3-.19-.28-.12 0-.25.18-.34.09.11-.14.2-.29.17-.47-.1-.18-.3-.15-.44-.04-.18.02-.34-.16-.35-.32-.28-.16-.16-.39-.17-.64-.06-.16-.28-.05-.3-.23-.19-.25-.34-.69-.71-.6-.17-.11-.11-.19-.07-.36-.06-.22 0-.2-.19-.4l-.05-.08.74-.74v.11c.16.04.21.22.29.34.13.14.4.08.42.29-.05.07-.23-.03-.18.08m-5.89 4.74s-.04-.14.04-.16c-.07-.04-.01-.06.02-.1.17.15.15.16.03.33-.05.07.06.09.05.15.06.1.36.16.38.03.04.08.25.23.14.26-.13.17.1.37.26.26l.34.51c-.11-.05-.17.08-.26.14-.07.05-.03.17-.08.21-.14-.07-.34-.17-.45 0 .01.1.07.18.05.28 0 .16.31.37.18.47-.22 0-.36-.24-.56-.3.09-.08.06.07.25-.14.07-.09-.32-.29-.27-.47.3-.11.13-.36.34-.46.05-.06.11-.12.11-.2-.08-.29-.47-.48-.71-.24-.19.08-.24.47-.5.41-.84.18-.06-.5.15-.7.28-.07.57.14.49-.29m-1.16 11.58c.16.13.34-.09.5.02.07.01.13-.04.21 0 .22-.01.45.14.58.31 0 .06-.19.39-.27.37-.23.01-.18-.32-.37-.35-.22-.02-.67.11-.75-.18-.12-.08-.21-.29-.08-.4.08-.04.11-.15.2-.13.03.06.1.1.1.17-.01.08-.15.09-.12.2m4.18 3.93c-.1.16-.24.31-.31.48.04.17-.03.39-.21.4-.42-.12-.86.27-1.28.08-.44-.21-.93-.19-1.36-.41-.2-.13-.47-.08-.64-.25-.11-.05-.23-.03-.31-.12-.18-.02-.35.01-.5-.06-.1-.18.24-.21.37-.2.03.06.22.12.19 0-.07-.06-.17-.11-.16-.22.07-.04.13-.16.13 0 .08.32.46.36.75.4.37.14.7.27 1.1.27.56.1 1.08.55 1.67.27.09.03.13-.08.14-.16-.03-.19 0-.25.13-.39.2-.13.14-.35.23-.54.25-.3.08-.8.3-1.08 0-.11.17-.15.13-.27-.07-.29-.02-.38-.02-.66.05-.16-.22-.24-.21-.42-.02-.18-.22-.28-.4-.24-.42.23-.53 0-.68.4-.12.18-.08.43-.31.55-.12 0-.24-.09-.35 0-.08.03-.07.13-.15.14-.23 0-.46.04-.6-.17.02-.06.11-.03.13-.11.08-.12.46-.07.61-.08.4-.07.34-.32.52-.55.07-.21.33-.15.5-.21.35-.2.39-.6.64-.86.09-.08-.05-.23.08-.26.1-.13.28-.23.28-.41.08-.13.07-.59.21-.58.07.14-.02.28.05.41-.02.22.44.17.55.06.13-.09.04-.32.18-.39.22 0 .45.22.7.13a5.75 5.75 0 0 1 1.73-.51c.19-.12 0-.31-.06-.45-.05-.26-.35-.35-.47-.55-.08-.04-.18-.08-.23-.17-.08-.12-.25-.04-.35-.11-.17-.13-.11-.33-.18-.49-.03-.2-.3-.27-.29-.48-.04-.43-.43-.54-.48-.83l.01-.1h3.26c.02 3.51-1.74 7.92-4.02 9.95-.04-.63-.32-2.65-1.02-1.21m.97 7.75c.12-.23.42-.51.22-.82-.12-.12-.12-.31-.29-.39.02-.2.77-1.05.93-1.3.14-.29-.19-.43-.28-.67-.17-.11-.24-.34-.43-.41-.25-.04-.42-.18-.59-.39-.17-.22-.13-.65.08-.81 0-.15.22-.33.34-.43l1.07 1.08-.05.02c.08.1-.32.11-.09.28.11 0 .17-.14.22-.23l.54.54c-.02.2.11.44.27.58.03.14.09.3.15.45.2.18.49.15.71.18 1.09.12-2.37 2.4-2.79 2.72a.86.86 0 0 0-.01-.39m3.54-3.25c-.02-.33-.13-.64-.22-.94.01-.19.06-.41-.14-.52-.14-.07-.05-.24-.11-.35-.17-.11-.66-.38-.84-.14-.04.3-.12.57-.14.89-.02.28-1.47-1.39-1.6-1.45a16 16 0 0 0 4.36-10.74H58a20.42 20.42 0 0 1-5.68 13.86l-.2-.2c.11-.08.11-.27.11-.41m6.61-27.83a25.22 25.22 0 0 1 4.42 13.88c-6.26-.2-3.72 1.32-5.01-4.32a20.55 20.55 0 0 0-1.4-4.04c.14-.08.26-.19.24-.38.04-.35-.49-1.11-.81-1.41-.22-.25-.29-.56-.49-.82-.37-.33-.33-.56-.49-.65-.24-.05-.36-.28-.5-.45-.36-.17-.4-.55-.66-.82a5.75 5.75 0 0 1-1.31-1.25l-.04-.23 3.09-3.09c1.09 1.1 2.08 2.3 2.95 3.57m3.11 4.04C54.98-1 31.55-5.53 18.71 7.65 1.85 24.1 14.15 52.91 37.49 52.84c18.49.33 32.09-19.86 24.47-36.8m19.78 7.49h4.06v24.96c0 5.6 3.48 8.49 7.86 8.49s7.86-2.9 7.86-8.49V23.53h4.06v24.96c0 7.76-4.85 12.51-11.92 12.51s-11.93-4.75-11.93-12.51V23.53Zm55.34 36.94h-4.06L117.3 31.39v29.08h-4.07V23.53h4.07l15.72 29.08V23.53h4.06v36.94zm11.71-32.93v28.92h7.86c4.38 0 7.86-2.9 7.86-8.5V36.03c0-5.6-3.48-8.44-7.86-8.5h-7.86Zm7.86-4.01c7.07 0 11.93 4.75 11.93 12.51v11.93c0 7.76-4.86 12.5-11.93 12.5h-11.93V23.53h11.93Zm63.33 4.01h-8.5v12.3h8.5c4.17 0 6.54-2.64 6.54-6.17s-2.38-6.12-6.54-6.12m-8.5 16.2v16.73h-4.06V23.53h12.56c7.86 0 10.66 5.22 10.66 10.13 0 4.49-2.32 9.13-8.66 9.97l9.87 16.83h-4.7l-9.82-16.73h-5.86Zm-22.99-16.21h-8.5v12.3h8.5c4.17 0 6.54-2.64 6.54-6.17s-2.38-6.12-6.54-6.12m-8.5 16.2v16.73h-4.06V23.53h12.56c7.86 0 10.66 5.22 10.66 10.13 0 4.49-2.32 9.13-8.66 9.97l9.87 16.83h-4.7l-9.82-16.73h-5.86ZM8.14 71.58v6.81c0 .95-.3 1.72-.89 2.32-.59.6-1.39.94-2.4 1.01H4.5c-1.1.01-1.97-.28-2.62-.87S.9 79.44.89 78.41v-6.83H2.2v6.79c0 .73.2 1.29.6 1.69s.97.6 1.71.6 1.32-.2 1.72-.6c.4-.4.6-.96.6-1.69v-6.79h1.33Zm9.79 10.02H16.6l-5.04-7.72v7.72h-1.33V71.58h1.33l5.06 7.76v-7.76h1.31V81.6Zm13.54-4.68a6.2 6.2 0 0 1-.5 2.57c-.33.73-.8 1.29-1.4 1.68s-1.31.58-2.12.58a3.76 3.76 0 0 1-3.52-2.24 5.93 5.93 0 0 1-.52-2.5v-.72c0-.96.17-1.81.5-2.55.33-.74.81-1.3 1.42-1.7.61-.39 1.31-.59 2.1-.59s1.51.19 2.12.58c.61.39 1.08.95 1.41 1.69.33.74.5 1.59.5 2.57v.63Zm-1.31-.65a4.5 4.5 0 0 0-.72-2.74c-.48-.63-1.15-.95-2-.95s-1.49.32-1.97.95a4.4 4.4 0 0 0-.74 2.65v.74c0 1.15.24 2.06.73 2.72.48.66 1.15.99 2 .99s1.51-.31 1.98-.93c.47-.62.71-1.51.72-2.67v-.74Zm3.72 5.33v-6.46H32.7v-.98h1.18v-.76c0-.8.21-1.42.64-1.85s1.03-.65 1.81-.65c.29 0 .58.04.87.12l-.07 1.03a3.77 3.77 0 0 0-.69-.06c-.41 0-.73.12-.96.36-.23.24-.34.59-.34 1.04v.79h1.59v.98h-1.59v6.46h-1.27Zm4.89 0v-6.46h-1.18v-.98h1.18v-.76c0-.8.21-1.42.64-1.85s1.03-.65 1.81-.65c.29 0 .58.04.87.12l-.07 1.03a3.77 3.77 0 0 0-.69-.06c-.41 0-.73.12-.96.36-.23.24-.34.59-.34 1.04v.79h1.59v.98h-1.59v6.46h-1.27Zm4.28-9.42c0-.21.06-.38.19-.52s.31-.21.56-.21.44.07.56.21c.13.14.19.32.19.52s-.06.38-.19.52-.32.21-.56.21-.44-.07-.56-.21-.19-.31-.19-.52Zm1.38 9.42h-1.27v-7.45h1.27v7.45Zm5.02-.9c.45 0 .85-.14 1.19-.41.34-.28.53-.62.56-1.03h1.2a2.3 2.3 0 0 1-.44 1.22 3.12 3.12 0 0 1-2.52 1.26 3.07 3.07 0 0 1-2.42-1.02c-.6-.68-.9-1.6-.9-2.78v-.21c0-.72.13-1.37.4-1.93s.65-1 1.15-1.32a3.3 3.3 0 0 1 1.77-.47c.83 0 1.53.25 2.08.75s.85 1.15.88 1.95h-1.2c-.04-.48-.22-.88-.55-1.19s-.73-.46-1.21-.46c-.65 0-1.15.23-1.5.7s-.53 1.14-.53 2.02v.24c0 .86.18 1.52.53 1.98.35.46.86.7 1.51.7Zm7.48 1.04c-1.01 0-1.83-.33-2.46-.99s-.95-1.55-.95-2.66v-.23c0-.74.14-1.4.42-1.98.28-.58.68-1.04 1.18-1.36a2.98 2.98 0 0 1 1.65-.49c.97 0 1.72.32 2.26.96.54.64.81 1.55.81 2.74v.53H54.8c.02.73.23 1.33.64 1.78.41.45.93.68 1.57.68.45 0 .83-.09 1.14-.28s.58-.43.82-.73l.78.61a3.12 3.12 0 0 1-2.81 1.44Zm-.16-6.68c-.51 0-.95.19-1.29.56s-.56.9-.65 1.57h3.73v-.1c-.04-.65-.21-1.15-.52-1.5s-.73-.53-1.27-.53Zm8.65 6.54v-6.46h-1.18v-.98h1.18v-.76c0-.8.21-1.42.64-1.85s1.03-.65 1.81-.65c.29 0 .58.04.87.12l-.07 1.03a3.77 3.77 0 0 0-.69-.06c-.41 0-.73.12-.96.36-.23.24-.34.59-.34 1.04v.79h1.59v.98h-1.59v6.46h-1.27Zm3.93-3.79c0-.73.14-1.39.43-1.97.29-.58.69-1.03 1.2-1.35.51-.32 1.1-.48 1.75-.48 1.01 0 1.83.35 2.46 1.05.63.7.94 1.64.94 2.8v.09a4.4 4.4 0 0 1-.42 1.95 3.19 3.19 0 0 1-2.97 1.83c-1.01 0-1.83-.35-2.45-1.05s-.94-1.63-.94-2.79v-.09Zm1.28.15c0 .83.19 1.49.57 1.99.38.5.9.75 1.54.75s1.16-.25 1.54-.76.57-1.22.57-2.13c0-.82-.19-1.48-.58-1.99-.39-.51-.9-.76-1.54-.76s-1.14.25-1.52.75c-.39.5-.58 1.22-.58 2.15Zm10.7-2.66c-.19-.03-.4-.05-.63-.05-.84 0-1.4.36-1.7 1.07v5.29h-1.27v-7.45h1.24l.02.86c.42-.67 1.01-1 1.78-1 .25 0 .44.03.56.1v1.18Zm4.86 6.3V71.58h2.83c.87 0 1.64.19 2.31.58.67.39 1.19.93 1.55 1.65.36.71.55 1.53.55 2.45v.64c0 .95-.18 1.77-.55 2.49a3.86 3.86 0 0 1-1.56 1.64c-.68.38-1.47.58-2.36.58h-2.77Zm1.32-8.94v7.86h1.39c1.02 0 1.81-.32 2.38-.95s.85-1.54.85-2.71v-.59c0-1.14-.27-2.02-.8-2.66a2.85 2.85 0 0 0-2.27-.96h-1.54Zm7.73-.48c0-.21.06-.38.19-.52s.31-.21.56-.21.44.07.56.21c.13.14.19.32.19.52s-.06.38-.19.52-.32.21-.56.21-.44-.07-.56-.21-.19-.31-.19-.52Zm1.38 9.42h-1.27v-7.45h1.27v7.45Zm6.37-1.97a.94.94 0 0 0-.39-.8 3.8 3.8 0 0 0-1.36-.49 6.08 6.08 0 0 1-1.53-.5 2.11 2.11 0 0 1-.84-.69 1.66 1.66 0 0 1-.27-.95c0-.61.26-1.13.77-1.55a3.05 3.05 0 0 1 1.98-.63c.84 0 1.53.22 2.05.65.53.44.79.99.79 1.67h-1.28c0-.35-.15-.65-.44-.9-.3-.25-.67-.38-1.12-.38s-.83.1-1.09.3a.96.96 0 0 0-.39.79c0 .31.12.54.36.7s.68.3 1.32.45 1.15.31 1.54.51.69.43.88.71.29.62.29 1.02c0 .67-.27 1.2-.8 1.6s-1.22.6-2.07.6c-.6 0-1.12-.11-1.58-.32a2.63 2.63 0 0 1-1.08-.88 2.14 2.14 0 0 1-.39-1.23h1.27c.02.43.19.77.51 1.02s.74.38 1.26.38c.48 0 .87-.1 1.16-.29a.9.9 0 0 0 .44-.78Zm7.53 1.97a3 3 0 0 1-.18-.78c-.59.61-1.3.92-2.12.92-.73 0-1.34-.21-1.81-.62a2.02 2.02 0 0 1-.71-1.58c0-.78.29-1.38.88-1.81a4.17 4.17 0 0 1 2.49-.64h1.24v-.58c0-.45-.13-.8-.4-1.06s-.66-.4-1.18-.4c-.46 0-.84.12-1.14.34-.31.23-.46.51-.46.83h-1.28c0-.37.13-.73.4-1.08.26-.35.62-.62 1.07-.82.45-.2.95-.3 1.49-.3.86 0 1.53.21 2.02.64.49.43.74 1.02.76 1.77v3.43c0 .68.09 1.23.26 1.63v.11h-1.33Zm-2.11-.97c.4 0 .78-.1 1.14-.31.36-.21.62-.47.78-.81v-1.53h-1c-1.56 0-2.34.46-2.34 1.37 0 .4.13.71.4.94.27.22.61.34 1.03.34Zm9.51-1a.94.94 0 0 0-.39-.8 3.8 3.8 0 0 0-1.36-.49 6.08 6.08 0 0 1-1.53-.5 2.11 2.11 0 0 1-.84-.69 1.66 1.66 0 0 1-.27-.95c0-.61.26-1.13.77-1.55a3.05 3.05 0 0 1 1.98-.63c.84 0 1.53.22 2.05.65.52.44.79.99.79 1.67h-1.28c0-.35-.15-.65-.44-.9-.3-.25-.67-.38-1.12-.38s-.83.1-1.09.3a.96.96 0 0 0-.39.79c0 .31.12.54.37.7s.68.3 1.32.45c.63.14 1.15.31 1.54.51s.69.43.88.71c.19.28.29.62.29 1.02 0 .67-.27 1.2-.8 1.6-.53.4-1.22.6-2.07.6-.6 0-1.12-.11-1.58-.32s-.82-.51-1.08-.88a2.14 2.14 0 0 1-.39-1.23h1.27c.02.43.19.77.51 1.02s.74.38 1.26.38c.48 0 .87-.1 1.16-.29a.9.9 0 0 0 .44-.78Zm4.66-7.28v1.8h1.39v.98h-1.39v4.62c0 .3.06.52.19.67s.33.22.63.22c.15 0 .35-.03.61-.08v1.03c-.33.09-.66.14-.98.14-.57 0-1-.17-1.29-.52-.29-.34-.43-.83-.43-1.47v-4.62h-1.36v-.98h1.36v-1.8h1.27Zm5.97 9.39c-1.01 0-1.83-.33-2.46-.99s-.95-1.55-.95-2.66v-.23c0-.74.14-1.4.42-1.98.28-.58.68-1.04 1.18-1.36s1.06-.49 1.65-.49c.97 0 1.72.32 2.26.96s.8 1.55.8 2.74v.53h-5.04c.02.73.23 1.33.64 1.78.41.45.93.68 1.57.68.45 0 .83-.09 1.14-.28.31-.18.58-.43.82-.73l.78.61a3.12 3.12 0 0 1-2.81 1.44Zm-.16-6.68c-.51 0-.95.19-1.29.56s-.56.9-.65 1.57h3.73v-.1a2.42 2.42 0 0 0-.52-1.5 1.58 1.58 0 0 0-1.27-.53Zm8.14.24c-.19-.03-.4-.05-.63-.05-.83 0-1.4.36-1.7 1.07v5.29h-1.27v-7.45h1.24l.02.86c.42-.67 1.01-1 1.78-1 .25 0 .44.03.56.1v1.18Zm8.53 2.25h-2.35v4.05h-1.33V71.58h3.32c1.13 0 2 .26 2.61.77.61.51.91 1.26.91 2.24 0 .62-.17 1.17-.51 1.63-.34.46-.81.81-1.41 1.04l2.35 4.25v.08h-1.42l-2.17-4.05Zm-2.35-1.08h2.03c.66 0 1.18-.17 1.57-.51s.58-.8.58-1.37c0-.62-.18-1.1-.55-1.43s-.9-.5-1.6-.5h-2.02v3.81Zm7.16-4.29c0-.21.06-.38.19-.52s.31-.21.56-.21.44.07.56.21c.13.14.19.32.19.52s-.06.38-.19.52-.32.21-.56.21-.43-.07-.56-.21a.73.73 0 0 1-.19-.52Zm1.38 9.42h-1.27v-7.45h1.27v7.45Zm6.37-1.97a.94.94 0 0 0-.39-.8c-.26-.19-.71-.35-1.36-.49s-1.16-.3-1.53-.5a2.11 2.11 0 0 1-.84-.69 1.66 1.66 0 0 1-.27-.95c0-.61.26-1.13.77-1.55a3.05 3.05 0 0 1 1.98-.63c.84 0 1.53.22 2.05.65.53.44.79.99.79 1.67h-1.28c0-.35-.15-.65-.44-.9-.3-.25-.67-.38-1.12-.38s-.83.1-1.09.3a.96.96 0 0 0-.39.79c0 .31.12.54.37.7s.68.3 1.32.45c.64.14 1.15.31 1.55.51.39.2.69.43.88.71s.29.62.29 1.02c0 .67-.27 1.2-.8 1.6s-1.22.6-2.07.6c-.6 0-1.12-.11-1.58-.32s-.82-.51-1.08-.88a2.14 2.14 0 0 1-.39-1.23h1.27c.02.43.19.77.51 1.02s.74.38 1.26.38c.48 0 .87-.1 1.16-.29a.9.9 0 0 0 .44-.78Zm5.02-1.48-.8.83v2.62h-1.27V71.03h1.27v6.39l.68-.82 2.32-2.45h1.55l-2.9 3.11 3.24 4.34h-1.49l-2.59-3.45Zm12.43-.6h-2.35v4.05h-1.33V71.58h3.32c1.13 0 2 .26 2.61.77.61.51.91 1.26.91 2.24 0 .62-.17 1.17-.51 1.63-.34.46-.81.81-1.41 1.04l2.35 4.25v.08h-1.42l-2.17-4.05Zm-2.35-1.08h2.03c.66 0 1.18-.17 1.57-.51s.58-.8.58-1.37c0-.62-.18-1.1-.55-1.43s-.9-.5-1.6-.5h-2.02v3.81Zm10.24 5.27c-1.01 0-1.83-.33-2.46-.99s-.95-1.55-.95-2.66v-.23c0-.74.14-1.4.42-1.98.28-.58.68-1.04 1.18-1.36s1.06-.49 1.65-.49c.97 0 1.72.32 2.26.96s.8 1.55.8 2.74v.53h-5.04c.02.73.23 1.33.64 1.78.41.45.93.68 1.57.68.45 0 .83-.09 1.14-.28.31-.18.58-.43.82-.73l.78.61a3.12 3.12 0 0 1-2.81 1.44Zm-.16-6.68c-.51 0-.95.19-1.29.56s-.56.9-.65 1.57h3.73v-.1a2.42 2.42 0 0 0-.52-1.5 1.58 1.58 0 0 0-1.27-.53Zm4.23 2.76c0-1.14.27-2.06.81-2.76.54-.7 1.25-1.04 2.13-1.04s1.56.3 2.07.89v-3.88h1.27V81.6h-1.17l-.06-.8c-.51.62-1.22.94-2.13.94s-1.57-.35-2.11-1.06a4.45 4.45 0 0 1-.82-2.77v-.1Zm1.27.14c0 .84.17 1.5.52 1.98s.83.72 1.45.72c.81 0 1.4-.36 1.77-1.09v-3.42a1.87 1.87 0 0 0-1.75-1.05 1.7 1.7 0 0 0-1.46.72c-.35.48-.52 1.2-.52 2.14Zm11.58 2.91c-.5.58-1.22.87-2.18.87-.79 0-1.4-.23-1.81-.69-.42-.46-.62-1.14-.63-2.05v-4.85h1.27v4.81c0 1.13.46 1.69 1.38 1.69.97 0 1.62-.36 1.94-1.09v-5.42h1.27v7.45h-1.21l-.03-.74Zm6.16-.17c.46 0 .85-.14 1.19-.41.34-.28.53-.62.56-1.03h1.2c-.02.43-.17.83-.44 1.22s-.63.69-1.08.92c-.45.23-.93.34-1.44.34a3.07 3.07 0 0 1-2.42-1.02c-.6-.68-.9-1.6-.9-2.78v-.21c0-.72.13-1.37.4-1.93.27-.56.65-1 1.15-1.32.5-.31 1.09-.47 1.76-.47.84 0 1.53.25 2.08.75s.85 1.15.88 1.95h-1.2c-.04-.48-.22-.88-.55-1.19s-.73-.46-1.21-.46c-.65 0-1.15.23-1.5.7a3.26 3.26 0 0 0-.53 2.02v.24c0 .86.18 1.52.53 1.98s.86.7 1.51.7Zm6.12-8.35v1.8h1.39v.98h-1.39v4.62c0 .3.06.52.19.67s.33.22.63.22c.15 0 .35-.03.61-.08v1.03c-.33.09-.66.14-.98.14-.57 0-1-.17-1.29-.52-.29-.34-.43-.83-.43-1.47v-4.62h-1.36v-.98h1.36v-1.8h1.27Zm2.89-.17c0-.21.06-.38.19-.52s.31-.21.56-.21.44.07.56.21c.13.14.19.32.19.52s-.06.38-.19.52-.32.21-.56.21-.43-.07-.56-.21a.73.73 0 0 1-.19-.52Zm1.38 9.42h-1.27v-7.45h1.27v7.45Zm1.69-3.79c0-.73.14-1.39.43-1.97.29-.58.69-1.03 1.2-1.35.51-.32 1.1-.48 1.75-.48 1.01 0 1.83.35 2.46 1.05.63.7.94 1.64.94 2.8v.09a4.4 4.4 0 0 1-.42 1.95 3.19 3.19 0 0 1-2.97 1.83 3.12 3.12 0 0 1-2.45-1.05 4.01 4.01 0 0 1-.94-2.79v-.09Zm1.28.15c0 .83.19 1.49.58 1.99.38.5.9.75 1.54.75s1.16-.25 1.54-.76.57-1.22.57-2.13c0-.82-.19-1.48-.58-1.99-.39-.51-.9-.76-1.54-.76s-1.14.25-1.52.75a3.5 3.5 0 0 0-.58 2.15Zm8.3-3.8.04.94a2.7 2.7 0 0 1 2.23-1.07c1.57 0 2.37.89 2.38 2.66v4.92h-1.27v-4.93c0-.54-.13-.93-.37-1.19-.24-.26-.62-.38-1.13-.38-.41 0-.78.11-1.09.33-.31.22-.56.51-.73.87v5.31h-1.27v-7.45h1.2Z" class="cls-1"/>
</svg>
