<svg xmlns="http://www.w3.org/2000/svg" viewBox="0 0 442 63.9" xml:space="preserve" fill="#fff">
  <path d="m51.3 16.3.1.3.2.2v.1h-.3l-.2-.2c-.1-.1-.3-.2-.3-.4V16h.2l.3.2m.7.8-.2.1h-.1v-.2h.3m0 .6v.1h.2v.3l-.1-.2H52s.1.1 0 .2v.1l-.2-.2.2-.1-.2-.1-.2-.2v-.1s.1-.1.2 0l.3.2zm.4.7v.1l.2.3-.2.2-.2-.2-.1-.1v-.3h.3m.4.8h-.1l-.2.1V19l.2-.1zm.1.3h-.2s-.1.1-.2 0l.2-.1h.2m.1.4v.3l.2.3v.6l.2.5v.5l-.2.1-.1-.1-.1-.2v-.3c0-.3-.1-.6-.3-.8 0-.1 0-.2-.2-.3V20c-.1 0-.2-.2-.1-.3h.2v.5l.2-.2v-.3h.2m.6 3.2v.1h-.1v-.2h.1m-.2.7v.1h-.1c-.1 0 0-.1 0-.2m-1.3 2v.1h-.3c0-.2.1-.2.2-.2h.1m-1.4.4h-.1l.1-.1v.1zm.2 0v.1h-.1v-.2h.1m.6.1-.1.1s-.2-.1-.2 0H51v-.1h.3m.5 2.9v.3c0 .2-.3.1-.5.2l-.3-.2-.1-.1.1-.1.2-.1.3-.1h.3m7.6 2.7c0 .2-.2.1-.2.2H59v-.2c.2 0 .2-.2.4-.1zm-44.3 1.3v.2h-.3v-.2c0-.1.1 0 .2 0h.1zm-1.3.2v.1h-.2l-.2-.2v-.1c.2 0 .3.1.3.2m5.1-.1h-.1s.1 0 0 0m-5.3.4c0 .1-.1 0-.2 0v-.2c.2 0 .2.1.2.2m47.8.5v.2H61v-.2h.2m-47.8.2v.1l-.3-.1c.2 0 .2-.2.3-.1v.1M61 34s-.1.1-.2 0v-.1h.2m-.8.7-.1.3c-.1 0 0 .3-.3.3l-.2-.1v-.3l.4-.3h.2m-46.9.2v-.1m.4.3.1.2-.1.1v-.4m.3.5s-.1 0 0 0m39.7 1.5v.1c-.1 0-.2.2-.3.1v-.3h.3m-39 .6v.1h-.3v-.2l-.1-.2v-.1c.3 0 .3.2.4.4m38.7 0v.2l-.2.1H53v-.2l.2-.1h.1m-36.5 0s0 .1 0 0m-.8 1v.2c0 .1 0 .2-.2.2l-.3-.4V38l.4.2m.5.8.2.4v.1h-.2a.5.5 0 0 1-.3-.3c0-.1-.1-.1 0-.2l.1-.2.2.2m5.9 7.3.2.3v.1l-.1.1-.2-.1-.4-.4-.2-.2V46h.3c.2 0 .2.2.4.3m-9.4 10.9c6 2.5 9.8-1.2 16.3-1.2a23 23 0 0 1 17.6 7.4l-1.4.4c-3-4.1-7-6.4-10.4-6.4-2.9 0-7.2 3-12.3 3-2.8 0-7.9-.6-9.8-3.2"/>
  <path d="M61.5 57.3c-6 2.5-9.9-1.2-16.4-1.2a23 23 0 0 0-17.5 7.3l1.3.5c3-4.2 7-6.4 10.5-6.4 2.9 0 7.1 2.9 12.3 2.9 2.7 0 7.8-.6 9.8-3.1m-36.7-2c-1.2.2-5.1 1.2-7.2 1A13 13 0 0 1 7 49.6c3.1 2.4 8.5 3.3 10.6 3.8 2 .6 3.8 1.3 5 1.5-3-1.2-4.6-2.7-5.3-4.3a35 35 0 0 1-2.4-7c1.5 1.4 4 4.4 5 5.4 1.9 2 2.4 5.4 4.8 6.4"/>
  <path d="M16.2 51.6c-2.1-.8-5.5-1.2-7.3-2.3-2.5-1.5-5.8-5-6.5-10.5 1.9 3.5 5.8 6 7.4 7.3 1.7 1.3 4 3.8 5 4.5a13 13 0 0 1-3.6-6.2c-.1-2.4-.6-4.5-.5-8 .7 2 3.2 6 3.7 7.4 1.3 3.7.5 5.4 1.8 7.8"/>
  <path d="M10.2 44.4c-1.8-1.5-6.3-5-7.4-7a17.2 17.2 0 0 1-2.5-8.8c1 3.9 4.4 6.9 5.7 8.6s2.2 4.5 3 5.5a13.2 13.2 0 0 1-1.6-6.8c0-2.3.4-5 1.2-8 .8 2.1 1 3.3 1.2 4.8.4 5.1-1.3 9.4.4 11.7"/>
  <path d="M5.8 35.4c-1.4-2.7-4.1-5.7-4.9-8.3-.8-2.8-1.3-6-.4-9.3.2 4 2.4 6 3.2 9.4L5 32.3c-.2-3 .5-5 1.2-6.6L9 21c.2 2.7-.7 6.1-1 6.8-.5 1.5-2.7 5-2.1 7.7"/>
  <path d="M4.4 27.6C4 25 2.7 21.4 2.6 19c-.2-2.1.3-7.1 3.2-10-1.2 2.8-.7 5.7-.4 7.8.3 3.1-1 5-.7 6.3.4-1.3.7-3 1.8-4.3 1.5-1.7 2.4-2.2 5.3-5.1-1 2.6-3 6-3.3 6.6-1 1.7-4.1 4.7-4 7.3"/>
  <path d="M6.2 18.2c.3-3-.5-4.3 0-6.7C6.6 9.4 8 5.7 11 3.8 10 5.2 9.4 7 9 9.1 8.6 12 8 12.7 7.8 14c.7-1.1 2-2.6 3.3-3.6 2-1.3 2.7-1.7 4.5-3.5-.8 2.4-3.3 5.2-3.8 5.7C9.6 15 8 15.2 6.2 18.2"/>
  <path d="M17.6 2c-1.4.7-4.7 2.6-5.7 3.8a14 14 0 0 0-2.6 5c1-1 2.5-1.8 3.7-2.8 1.2-1.1 3-4 4.6-6m31.8 53.3c1.2.2 5.2 1.2 7.3 1A13 13 0 0 0 67 49.6c-3.1 2.4-8.5 3.3-10.6 3.9l-5 1.5c3-1.2 4.6-2.7 5.4-4.3a32 32 0 0 0 2.3-7l-5 5.3c-1.8 2-2.3 5.5-4.8 6.4"/>
  <path d="M58 51.6c2.2-.8 5.6-1.2 7.4-2.3 2.5-1.4 5.8-5 6.5-10.5-2 3.5-5.8 6-7.5 7.3-1.6 1.3-4 3.8-5 4.5 2.3-2.3 3.4-4.8 3.7-6.2 0-2.4.6-4.5.4-7.9-.7 1.9-3.2 6-3.6 7.4-1.3 3.7-.5 5.3-1.8 7.8"/>
  <path d="M64 44.4c1.8-1.5 6.3-5 7.5-7 1.4-2.5 2.5-5.4 2.5-8.8-1 3.9-4.5 6.9-5.7 8.6-1.3 1.7-2.2 4.5-3 5.5 1.5-2.8 1.5-5.2 1.5-6.8 0-2.2-.3-5-1.2-8a17 17 0 0 0-1.2 4.8c-.4 5.1 1.4 9.4-.3 11.7"/>
  <path d="M68.5 35.5c1.4-2.8 4-5.8 4.9-8.4.8-2.8 1.3-6 .4-9.3-.2 4-2.5 6-3.3 9.4-.4 1.9-.7 3.9-1.1 5.2.2-3-.6-5-1.3-6.6a40 40 0 0 0-2.8-4.8c-.2 2.6.8 6 1 6.7.6 1.6 2.8 5 2.2 7.8"/>
  <path d="M69.8 27.6c.5-2.7 1.7-6.2 1.9-8.6.1-2.1-.4-7.1-3.3-10 1.2 2.8.7 5.7.5 7.8-.3 3.1 1 5 .7 6.3-.4-1.3-.8-3-1.8-4.3-1.6-1.7-2.4-2.2-5.4-5.1 1.1 2.6 3 6 3.3 6.6 1.1 1.7 4.2 4.7 4.1 7.3"/>
  <path d="M68 18.2c-.3-3 .5-4.3 0-6.7-.4-2-1.8-5.8-4.7-7.6.8 1.3 1.6 3 1.9 5.2.5 3.1 1.2 3.6 1.3 5-.7-1.2-2-2.7-3.3-3.7-2-1.2-2.8-1.7-4.6-3.5a19 19 0 0 0 3.8 5.8c2.3 2.3 3.9 2.6 5.6 5.5"/>
  <path d="M56.6 2.1c1.5.6 4.8 2.6 5.7 3.7 1 1.1 2.2 3.3 2.6 5-1-1-2.5-1.7-3.7-2.8-1.1-1.1-2.8-4-4.6-6M13 33.4h.3-.2zM39.7 1.6v.1h.1m2 .4h-.4v.2c.1.1.3.2.4.1 0 0 .1 0 0-.1.1 0 0-.1 0-.1m1 .8c.1 0 .3.1.4 0v-.2h-.5V3m-.2.3-.2-.2h-.2v.2c.2 0 .3.1.4 0M49 7.4c.2 0 .3.2.5.1l.3.3c.1 0 .2.3.4.2.2 0 0-.2.1-.3v-.3l-.2-.2-.3-.3h-.7L49 7l.2.3zm-7.7.3v-.1l-.2-.1H41v.2h.3m1.1.5V8l-.4-.2-.2-.1h-.3l.1.3.3.2.2.2h.3m-1.7-.6-.2-.1.1.3c.2 0 .2.3.3.2L41 8c0-.1-.1-.3-.3-.3m.4.8v-.1H41s0 .1.1 0m-6.7.1h-.2v.2h.3s.1 0 0-.1v-.1m-.5 0v.2l.1-.2H34m7.2 0-.1.1V9l.2.1.2-.1-.1-.2-.2-.2m-6.2.1h-.2c-.1 0-.2.1-.1.2h.2v-.1zm7.3.8h-.1v.1m.4.5v-.2l-.2-.1v.3h.2m.5.3c.1-.1.1-.2 0-.2L43 10l.1.3zm-.5-.2v.1c-.1 0 0 .1 0 .2l.2.2c.1 0 .2 0 .2-.2 0-.1-.1-.2-.2-.1v-.2c-.1 0-.1.1-.1 0m-14.8.1h-.1l-.2.1v.1h.3v-.2"/>
  <path d="m43 10.8.3.2.1-.3-.1-.1H43l-.1.2m.9.4V11c0-.1 0 0 0 0v-.1l-.2-.2v.4h.1m.3.3v.1l.1.1h.2v-.4L44 11h-.1v.3m-11.2 3.9H32c-.1 0-.2 0-.3.2l.1.1h.4l.1-.1h.4l-.1-.2m17 0v.1h.3v-.1h-.3m-.6 2.4h.1v-.1s0-.1-.1 0h-.1l.1.1m.4.3h.1v-.2h-.2v.2m-.5.6.2.2v.2h.4c.1-.2 0-.3-.1-.5v-.2l-.1-.3h-.7v.2c-.1 0 0 .2 0 .2l.3.2"/>
  <path d="M48.1 18.7v.1c.3.2.3-.1.4-.2v.3h.3v-.4h-.4c-.1 0-.2 0-.3.2m1.6.3h.2v-.1h-.2v.1m-.7-.1-.3.2-.2.1.1.2h.2l.2-.3V19"/>
  <path d="M50 19h.1v-.1h-.2l.1.1m-1 .5h-.3l-.1-.1h-.1c0-.2-.2-.3-.1-.4h-.2v.6c-.2 0-.5 0-.6.3l.1.3h1.1c0-.1 0-.1 0 0l-.3-.2v-.2h.4v-.3m-7.6.5h.3v-.4c-.1.2-.3 0-.4.1v.1l.1.1m.5.1v.3h.7c0-.2.2-.2.2-.3l-.1-.2h-.3v-.1H42l-.2-.1c-.1.2 0 .3 0 .4m-1.4 0c0-.1.1 0 .2 0l.2-.1h.2l.1-.1c-.2-.1-.3 0-.4 0h-.5l.1.2h.1zm8.9-.2h-.1l.3.1h.2s.1 0 0-.1h-.4M40 20c.1.1.2.1.2 0 0-.2-.1 0-.1 0m-2.2-.1v.1s0 .1 0 0h.1l-.1-.1m-1.8.1h-.3l.2.1h.1v-.2m10.7.3c0-.1-.1-.2-.2-.1v.2h.2m-11-.1h-.2v.2h.2v-.1m2.6-.1v.1h.1c0-.2 0-.1-.1-.1m8.6.1-.2.1-.1.2.5.1h.2v-.4h-.3m-6.2 1v.2l.2-.1c0-.2.2-.3.3-.4l.3-.2.1-.1.1-.2-.2-.1-.2.1c-.1.2-.4.1-.4.3l-.2.4v.1m-5.4-.9h-.2l.1.2h.1l.1-.1-.1-.1m3.3 0h-.2v.1h.1m-4.1.5c-.2.1-.2.3-.2.4.1.1.1.1.2 0V21m4.4 3.3c-.1 0-.1-.2-.2-.1 0 0 .1.2.2.1m-.4.1v-.2h-.2v.2h.2m.2.2h.1s.1 0 0-.1c0 0 0-.1-.2 0v.1m-4 .4c.1.1.1 0 .2 0v-.2l-.4-.2-.1.1c.2.1.1.4.3.4m.6.5h.1l-.1-.2v-.2s-.1-.2-.2-.1h-.2v.4l.1.1h-.1v-.3h-.2l-.2.3.2.2h.5m-.8 0v-.2l-.2.1v.1h.2m.3 0h-.2l.1.2h.3v-.2h-.2m1.1.5h-.3V26s-.1-.1 0-.2H35v.2l.4.1-.1.3h-.1l-.2.2v.3c.1 0 .2-.1.4 0l.2-.1h.3v-.1c.2-.2 0-.3 0-.4l-.2-.1m2.9 0h.2v-.1h-.1l-.1.1m.3-.1v.1h.2c0-.2-.1-.1-.1 0l-.1-.1m-4.3.2h-.1l-.2.2v.2l.3.3v-.7m4.4.8v.4c-.1 0 0 .1 0 .2l.1.1s.2 0 .2-.2l-.1-.2-.1-.3m.1.8v.2l.4.2.1-.1s.1-.1 0-.2l-.2-.1c0-.1 0-.2-.2-.1h-.1m-1.3.8v-.4s-.1-.2 0-.2h.1v-.2h-.2s-.1 0 0 .2h-.2v.6h.3M25.7 31v-.1l.1-.5V30h-.3c-.1-.1 0-.3-.2-.4h-.1l-.1.1v.5l.1.2v.1l.3.4h.2m10.6-.7h-.5c0-.1-.1-.2-.3-.2v.1c-.1 0 0 .2 0 .2v.5h.8l.1-.4-.1-.2m-10.6 1.2s0 .1.1 0h.1v-.2l-.2-.1h-.1v.3m.1.3.1.2h.2v-.2h-.3m.3.3h.2-.1s-.1 0 0 0m-.1.1v.4h.1l.1-.1.1-.2c0-.1 0-.2-.1 0m-.5.6c0-.1.2-.1.1-.2 0 0 0-.1 0 0l-.2.1h.1m22.6 1.8h.3V34c0-.2-.1-.1-.2-.1l-.1.2v.3m-5.8.2.2-.1v-.3c-.2 0-.4.1-.4.3h.2m-4 .2h.1v-.2h-.2v.2m0 .3v.2h.2l.2-.3h-.2l-.2.2m2.9.2c.1-.1.4-.1.3-.3h-.5l-.2.1v.2h.4m-2.1.1h.3c.1 0 0-.1 0-.2v-.1h-.1c-.1 0-.2 0-.2.2 0 0-.1 0 0 .1m10.4 4.2.1-.1-.2-.2v.2h.1M33.2 43h.2v-.2l-.2-.1v.2m2.3 2v-.3h-.1v.3"/>
  <path d="M61 36.4a25.8 25.8 0 0 1-5.3 7.8l-3.1-3.1a21.5 21.5 0 0 0 5.9-14.5H63c0 3.4-.7 6.7-2 9.8m-9.4 11.3a26.4 26.4 0 0 1-14 4.4v-4.4c2 0 3.9-.3 5.8-1v.1h.3c0 .2.3.2.4.3h.3l.2-.2h.3c0-.2.2-.2.3-.3l.3-.1c.1 0 .2 0 .3-.2l.2-.1.2-.1.2-.1v-.1c.2 0 .2-.2.3-.2l.3-.2.7-.4c.2 0 .3-.3.5-.4v-.1c1.4-.9 2.7-1.9 3.9-3l3 3.1a24.8 24.8 0 0 1-3.5 3M40 42.2l.2.2.2.1a4.4 4.4 0 0 0 .1.1v.2c.2.1.4.2.4.4v.2l.1.2v.3h-.1v.4l.1.4s.2 0 .2.2.2.3.4.3l.2.1c.2 0 .2.2.3.3l.3.3.2.2c-1.6.5-3.3.8-5 .8v-4.4l2.4-.3m-1-1h.2v.4l-1.6.1v-.6H39s-.2.1 0 .2m-2-5.4-.3.1c0 .1-.1 0-.2 0H36l-.3.2-.2.2a10.3 10.3 0 0 1-4.8-2.3l-.5-.4 3-3 1 .6c.7.5 1.5.7 2.3.8v.2h.2v-.1h.2-.1v.2s.1 0 0 .1h-.1l-.2.2v-.2l-.1-.2-.3.1v.3l-.1.2.2.2h.2l.1-.4.1.1c0 .1.1.1 0 .2s-.2.2-.1.3h.4c.2-.1.2-.3.3-.2l.2-.1c.2 0 .1 0 0 .1v.1l-.3.1-.1.1h-.4v.5h.2v.3l-.1.1H36l-.1.2v.2l-.1.2v.7c.2 0 .3 0 .3.2h.6v-.2h.6v-.2l.1-.2.2-.2.2-.1v-.3h.3l.4-.2h.1c.1 0 .1.2.3.2h.2l.3.2h.1c.1.1 0 .2.2.2l.1.1c.1 0 .1-.1 0-.2v-.1c0-.1.2 0 .2-.2-.1 0-.2 0-.2-.2h-.4v-.1c-.1 0-.2 0-.2-.2h.4c.1 0 .3 0 .4.2v.2l.2.3h.2c0 .1 0 .3.2.3l.2-.2h.2v-.2c0-.1 0-.2-.2-.2v-.2c.3 0 .4.2.5.3h.3c0 .1.2 0 .2 0 .1 0 .2 0 .2-.2 0 0 .1 0 0-.1l.4-.2h.3l.1.1v.6c-.1.2-.3.2-.4.3l-.5.2-.4.1h-.2l-.3.1c-.1 0-.2 0-.3.2l-.1.2-.6.1h-.7v-.1l-.2-.4-.2-.1h-.2l-.4.1h-.8c-.2 0-.3.2-.4.4m-.3 5.8a15.2 15.2 0 0 1-10.3-4.3l3.1-3.1a11.9 11.9 0 0 0 3.8 2.3l1 .3-.1.1-.1.2-.3.2c0 .1-.2 0-.2.2l-.1.3v.2l-.2.3c0 .2-.4.1-.4.3l.3.6.2.3.3.4.2.3.2.2.2.3h.2l.2.3h1.4l.6.2v.4zm0 5.2a20 20 0 0 1-14-5.9l.6-.5h.1l.5.4.4.1h.6l.4-.2.6-.2.2-.1h.8l.4-.1.3-.2v-.5l-.3-.5a16.1 16.1 0 0 0 9.3 3.3v4.4zm0 5.2a25.4 25.4 0 0 1-17.6-7.4l3-3a21.3 21.3 0 0 0 14.6 6V52zm-21-11.4a25.8 25.8 0 0 1-4.4-14h4.4c0 2 .4 4.1 1 6h-.2c0 .2-.2 0-.3 0l-.2-.1c0-.1 0-.3-.2-.3l-.3.1-.3.1v.3l-.2.1-.3.1h-.2l-.1-.2h.1v-.4l-.4-.1v.2h-.3v.2h.5s0 .1-.1 0l-.3.1-.2.2-.3.2h-.3l-.1.2h.3v.4l.1.2.1.5v.2-.2l-.1-.1h-.2v-.2s.1 0 0-.1v-.2H13v.3l.1.3-.1.1c0 .1 0 .3.2.3l.1.3.1.4.1.1h-.1v.2h.2c0 .1 0 0 0 0v-.1l.2.1v.3-.1h-.2v.1l.2.1.1.2.2.3.2-.1V36c0-.2-.1-.3-.3-.4v-.2s.1.1.2 0h.1l.1-.1v.2c.3.1.4.3.5.4.1.2.2.2.3.2h.3V36l.1-.2.2.3.3.3v.2h.5l-.1-.3V36l.1.1v.5c.1 0 .2 0 .2.2h.5v.4l.4.5s0 .2.2.2l.4.4h.4l.2-.2c.1.2 0 .3.2.5 0 .2.2.3.3.4l.5.4.4.1 1.4 1.6-3.1 3.2c-1.1-1.2-2-2.3-2.9-3.6m-2.4-24.3a24.3 24.3 0 0 1 5.3-7.9l3.2 3.1a21 21 0 0 0-6 14.4h-4.4c0-3.3.7-6.6 2-9.6m9.4-11.2a26 26 0 0 1 14-4.4v4.4a21.3 21.3 0 0 0-14.4 6L19.3 8c1-1 2.2-2 3.5-2.8M31.1 30h.6l-.2.2h-.1l-.3-.1V30m-3.9-1.5s.1 0 0 0l.1-.1.2.2.3.1c.1.1.2 0 .4 0h.3l.3.1.2.4.3.1v-.2l.3.2.1.1.2.1h-.2l-.1.1.2.3.3.3s0-.1.2 0v.2h.3v-.7h-.1v-.2h.2v.1l.1.2v.8h.2v.4l.2.1.2-.2v-.4l.3-.3.2-.2c0-.1 0-.3.2-.5v-.1h.1l.5.7-3 3a10 10 0 0 1-2.4-4.6m-1 .1h-.6v-.3l.1-.1.4.2c.1 0 0 0 0 .1v.1M22.8 40l-.5.5-.5-.6h.2l.4-.1.3.2zm8.1-28.3c-1.8.7-3.4 1.8-4.8 3.1l-3.2-3.1A20.7 20.7 0 0 1 36.8 6v4.4c-2 0-4 .5-5.9 1.3m-.9 6.6-.2.2-3.2-3.1a15.2 15.2 0 0 1 10.2-4.2v4.4a11 11 0 0 0-6.8 2.7m-3.5 7.6H25v-.6l.2-.1.4-.2h.4c.1 0 .3 0 .3.2l.1.2.1.3v.2m-.3-3.4c0 .1.1.2.3.1l.5-.1-.3.1-.3.1-.2.2h-.3l-.3.2h-.4l-.3.4v.3c-.2 0-.2.1-.3.2v.3l-.3.3v.6c0 .2-.2.3-.3.5l-.1.2h-2A15.1 15.1 0 0 1 26 16l3.1 3.1c-.8.8-1.4 1.8-2 2.8H27l-.2.3h-.3l-.3.2v.2m2.4 6.2h-.1c0-.1 0-.2.2-.2v.2m2 .6c-.2 0-.2 0-.2-.2l.1.1v.1m.3.3.1.2-.3-.2v-.2l.2.2m1.2-7.3-.2-.1-.2-.1h-.2c-.1 0-.2.1-.4 0v.1l-.4-.3c0-.2-.2-.3-.4-.3l-.4-.2H29l-.4.2c-.1 0-.3.1-.4 0 .4-.7 1-1.4 1.6-2l2.7 2.6-.1.1h-.1l-.2.1s.1 0 0-.1m4.2-2.3h.2v-.2c.1.2.3 0 .3.2v.8a6 6 0 0 0-1.5.2c0-.1.2-.3 0-.4l-.2.1-.2.4-.1.3s-.1 0 0 .2c-.2 0-.2.2-.4.3h-.2c-.2 0 0 .3-.2.2h-.2l-.3.1-3.2-3.2s.2 0 .2-.2c1.8-1.5 4-2.3 6.3-2.4v3.3h-.5l-.1.2M21 26h-4.4a19.8 19.8 0 0 1 5.8-13.7l3.1 3.2A16 16 0 0 0 21 26m-1.6 5-.1.5v.1c0 .1.1.2 0 .4v.5l-.4.2h-.3c-.2.2-.4.1-.6.1h-.3c-.7-2-1-4-1.1-6.1H21l.2 2H21l-.4.1c-.2.2-.2.5-.4.6l-.1.2-.1.1-.2.3-.1.3-.2.2v.2l-.1.1v.2m3.7-3.5-.1.6s-.2.1-.1.3v.4l.3.1c0 .2-.1.3-.2.3s-.3.2-.5 0l-.3-.1-.2-.1a14 14 0 0 1-.2-2.3h1.7l-.1.4c0 .1-.3.2-.3.4m2 9 .2-.2h.2l.2-.2v-.8l-.1-.3-.3-.3-.2-.5-.1-.4v-.6c0-.2.2 0 .3-.3l.2-.1v-.1h-.3s0-.2-.2-.1v.2h-.1v-.2l.1-.2v-.2h-.1l-.1-.1V32c-.1 0-.2-.1-.1-.2h.1l-.1-.2-.1-.1v-.6h-.1c-.2 0-.3.2-.5 0l.2-.2h.2v-.3L24 30v-.2l-.2-.1-.2-.2V29l-.2-.4v-.4l.2-.2h.6l.2-.3v-.1l.1-.6h.7l.1-.1.1-.2h1l.1.2.2.1-.1.2v.2c0 .1 0 .2-.2.3h-.2s0 .2-.2.2h-.2c-.1-.2-.3-.5-.5-.5h-.1v.5l.1.2v.7h-.1l-.3-.1h-.1c-.1.2 0 .3 0 .4 0 .1 0 .2.2.2h.2v.2h.4v.2l.2.1v-.2l.3-.3v-.1h-.2v.2h-.3l.1-.6h.4l.2-.1c0 .1 0 .3-.2.3l.1.1c.1 0 .2-.2.3 0V29a11 11 0 0 0 2.6 4.7l-3 3h-1v-.2m12.7-3.9v.1h-.3v-.2l-.2-.1v-.2l.6-.1v.3h-.1v.2m1.5-.7v.1l-.2.1s0 .2-.2.3h-.3l-.2-.2a.5.5 0 0 1-.1-.4H38v-.4h.2l.1.2.1.2s0 .2.2.2h.2l.1-.2v-.4l-.1-.2v-.7c.2 0 .2 0 .3.2v.7h.3l-.1.2h-.2v.4M37 22h.3v.2L37 22h-.5v.4c0 .2.2.2.3.3 0 0 .2 0 .2.2 0 0 0 .2.2.2h.7c.1.1.2 0 .2 0 .2 0 .2.2.2.3l.3.2.3.4.2.2h.3s0-.1.1 0l-.1.3v.4l.2.1v.2c0 .2-.3.1-.3.3v.1c0 .1 0 .2-.2.2l.1.3h.2l.2.1.2.5s0 .2.2.1h.1v-.2h.1v.4c-.1 0-.2 0-.3.2h.6l.4-.2h.1c0 .1-.2.1-.1.2v.1h.2c0 .1 0 0-.1 0h-1.1v.1c0 .2.1.4.3.5v.5l-.1.2-.2.3v.2c-.2.1-.3 0-.4 0h-.9l-.2.3-.2.2-.1.3v.3c-.1.1 0 .2-.2.3v.2l-.3.3v.3h-.4a5 5 0 0 1-3.4-1.3h.3l.3-.1.2-.1h.6c.2-.2.3 0 .4 0 .2-.1.4-.1.4-.3h.1l.1-.2H36v-.1h.2V29s.2-.1.1-.2v-.1l.1-.2.1-.1.2-.4v-.3s-.2 0-.1-.1l.1-.2v-.2L36 27h-1.2l-.1.2v.6c0 .1-.1.3 0 .4l-.2.1V28l-.4.1-.2.2v.3h-.2l-.3.4v.1l-.1.2a5 5 0 0 1-.6-.8l.2-.2h.2l.1-.2h.1v.2c.2 0 .3.1.4 0v-.2l.1-.3.2-.3.2-.3.2-.2h-.1l-.2-.2v-.5c0-.1.1-.2 0-.2l-.1-.2h-.2v.2s-.1.2 0 .2h.2v.2h-.3l-.1.3v.5l-.3.1v.1h-.1v-.1h.1l-.2-.2h-.3l-.2.1s-.1.1-.2 0H32l-.4.1h-.2v-.1h-.2c0 .1-.1.1 0 .2h-.5v-.2c.2-.1.4 0 .5-.2v-.4l.3-.5.1-.1h.5l.2.1h.2v-.3l.3.3v.2h-.2v.2l-.2.2v.1c.1 0 .3.1.4 0v-.5l.1.2.1.4h.5v-.4l.1-.2c0-.1.1-.2 0-.4v-.3l.1-.1h.6l.1-.2c.1 0 .2 0 .2-.2l-.2-.1c-.1 0-.3-.1-.4 0l-.2.1V25l.2-.3.2-.2h.2c.2-.1.1-.3.2-.4 0 0 0-.2.2-.3h.3l.6-.3h.2l.3-.3.2-.2v-.2l-.1-.2V22l.3-.1v-.1h-.4v.2l-.2-.1v-.3h1s.2.1.1.3m4.6 10.7.1-.2.1.1v.2h-.2v-.1m-.5 1.3c0 .1 0 .2-.2.2l.1-.2v-.5h.2l-.1-.4.1-.2h.1v.2h.2c.1 0 .2 0 .3-.2h.1l.2-.1h.4l.1.1v.2l-.6.2-.3.1-.1.1-.4.3s-.1 0 0 .2m-3.7-17.5a9.8 9.8 0 0 1 6.4 2.7l-.2.1c-.1-.1-.1-.2-.2-.1h-.1v-.2h-.1l-.3.1-.4.3v.1c-.2 0-.3.1-.3.2l.1.1h.2l.1.2.3-.2h.1v.1l-.8.8h-.2l-.3.2-.3.3-.3.2-.2.2v.1s.1.1 0 .2H41l-.2.2h-.3c0-.2-.2-.3-.3-.3l-.2-.2-.4-.2-.4.3h-.4v-.1l.1-.1h.1l.1-.1c.1-.2.3-.2.5-.3l.3-.1.1-.4v-.3l-.1-.2-.3.2c-.1.1-.3 0-.4.2l-.4.4v.1l-1.1-.1v-4.4zm0-5.2a15 15 0 0 1 10 4.2l-3 3.1a11 11 0 0 0-7-2.9v-4.4zm7.5 1.1h.6c.1.1 0 .3.3.3v-.1h.1l.1.3.2.3.1.2-1.6-1h.2m-7.5-4.1.1-.2.4-.1v-.2h-.2s-.2 0-.3-.2V6a20.9 20.9 0 0 1 8.7 2.1H46l-.1.4h-.1l-.1.1v.2h.2l.3.2.3.3c.2 0 .1.2.3.3v.5l.1.4s.2 0 .3.2h.1c.1.1 0 .2 0 .2v.9c.2 0 .2.1.2.2v.1c.1.2 0 .4.2.5l.1.1c.2 0 .3 0 .5-.2.2-.1.4-.3.6-.2l.2.2c.2.2.4.4.4.6 0 0 .1.1 0 .2l-1 1.1-.2-.1V14h.3v-.2s0-.2-.2-.2l-.1.1v.2l-.2-.3v-.3l-.3-.4-.3-.3h-.4l-.2-.2-.2-.3-.2-.3c-.2 0-.2-.1-.3-.3 0 0-.2 0-.3-.2l-.1-.1-.2.1c0 .2 0 .3.2.4l.2.4c0 .1.2.1.1.2h-.2V12l-.3-.1v-.2l-.2-.2c0-.1-.1 0-.2 0l-.1.2.2.1h.1-.6l-.1.3-.1-.2-.1-.2-.2.3v.1a15.8 15.8 0 0 0-6.7-1.7V8.2zm0-3.6h.5c.1 0 .3 0 .4.2h.5c.2.2.2.4.4.4h.5v-.1l-.2-.2c-.2 0-.2-.2-.3-.3v-.1l.1-.1-.1-.3-.1-.1h.2c.2 0 .3.3.5.2l.5-.1.6-.2h.8v-.2h.7c0-.1-.2-.1-.2-.3l-.2-.1h-.3l-.1-.1-.4-.1H41l-.2.2-.6.2c-.2 0-.3 0-.4.2h-.4V4v-.1l-.3-.1-.7.1-.2.2H38l-.3.2V.8A25.7 25.7 0 0 1 55 8l-2.7 2.7-.1-.2-.3-.3-.3-.1-.1-.2-.1-.3v-.2l-.6-.6-.2-.3-.5-.3h-.3c-.1-.2-.3-.3-.3-.5-.1 0-.3-.1-.4 0l-.4-.1c-.2-.1-.5-.3-.8-.2-.2.1-.4 0-.6.2h-.2a20.8 20.8 0 0 0-9.6-2.4v-.6zM49 17v.1s0 .2.2.2a15.9 15.9 0 0 1 1.2 1.7c0 .1-.3 0-.4.2v.3l-.2.2.1.2h.2c.1.1.2.2.4.1l.2.2.3.2.2.2.6 1.6-.1.2v.4l-.2.3-.1.2-.2.3-.3.4h-.5v-.4l.1-.3.2-.3v-.5l-.2-.1-.2-.2h-.1a.9.9 0 0 0-.5-.2h-.1l-.4.4-.1.1c-.1.1-.1.4-.3.3-.2 0-.2-.2-.3-.2 0 0-.2 0-.2-.2v-.2h.1v.2s0 .2.2.2l.3-.1v-.2c-.1-.1-.3-.3-.5-.2 0 0 0-.2-.2-.3H48v-.4l-.2-.1c0-.2-.3-.3-.4-.3l-.5-.1-.2-.1h-.4l-.7-1h.3l.1-.1c-.1-.2-.3 0-.4-.2v.2L45 19l3.2-3.1 1 1m2.5-6.1.3-.1v.1l-.4.2v-.2M50.4 15l.3.2h.1V15h-.1.5l.1.2c0 .3.2.4.3.6l.5.2.4.3s.2 0 .3.2h.4l.4.3.1.2.1.1.4.5.2.2.2.3.2.1v.3h.5l.3-.2h.3l.2-.2a20.2 20.2 0 0 1 1.7 7.8h-4.4c0-.8-.1-1.6-.3-2.3l.2-.5c.1 0 .2-.2.1-.3.1-.1 0-.2 0-.4l.1-.2-.1-.2c-.2 0-.4.2-.5.3l-.1.2v.1l-.1.2-.1.2v.3l-.2.3-.1.3-.1.3v.4s-.1.1 0 .2v.1h.3v1h-3v-.1s-.1 0 0 0l.2-.2.3-.2c.1 0 .4 0 .4-.3a.7.7 0 0 1-.2-.4l.2-.2h.6l.5-.1s.2 0 .2-.2v-.1l.3-.3.4-.5.1-.3v-.3h.2v-.4l.1-.3h.3v-.2l-.3-.1h-.1v-.2h.1v-.2s-.1-.1-.2 0c-.2-.2 0-.3 0-.4v-.2l-.1-.2v-.3l-.2-.3v-.2c0-.2-.2-.3-.3-.4 0 0-.1-.1-.1 0-.1-.1-.3 0-.3-.2l-.1-.3v-.2l.3-.2v-.2h-.5V18l.1-.3s0-.1-.2 0c0-.1-.1 0-.2 0l-.3-.1v-.2c-.2 0-.2-.2-.3-.3v-.4c0-.1-.2 0-.2-.2l-.4-.5h-.3l-.2-.3v-.4l-.1-.1V15l.7-.8v.2c.2 0 .2.2.3.3 0 .1.3 0 .4.2l-.2.1m-6 5v-.2h.2l-.1.2v.2c.1.1.3 0 .4 0l.2.2v.2l.1.2h.1l.4.4h-.1l-.2.2v.1h-.5v.4l.3.4h-.4c0-.2-.1-.2-.2-.3l.2-.1-.1-.2c0-.1-.2-.2-.1-.3l.2-.1.1-.3.1-.2-.2-.3h-.5l-.2.2c0 .1-.1.3-.3.3h-.3v-.2l.5-.5h.3l.2-.1V20m-1.2 11.6h1l.2.3v.1c-.1.1 0 .3-.2.3L44 32l-.2-.2h-.7v-.2H43v-.4l.3-.1v.4m4.1 3.9s0 .2-.2.3v.2l-.1.3h-.6l-.5.2h-.4l-.2-.2h-.3l-.4-.1c-.1 0-.3 0-.4-.2h-.4l-.3-.2-.3-.1-.5-.1v-.2h.5l-.1-.2.1-.1.2.4h.6l.5.3h.6l.2.1h.2l.3.2.4.1.5-.1h.1v-.2c0-.2.1-.3.2-.3l.2-.3V35l.1-.1c0-.2.1-.3 0-.4l.1-.4.1-.2.2-.2c0-.2-.1-.3 0-.4v-.4a.4.4 0 0 1-.3-.3v-.2H47l-.3.1-.3.1v.2l-.1.1-.2.4h-.4l-.1.2c-.2 0-.4 0-.6-.2V33l.3-.1h.4c.2 0 .3 0 .4-.2l.1-.3.2-.2h.3l.4-.4v-.2l.3-.3V31c.2-.1.3-.2.3-.4l.1-.3v-.2h.2v.5h.5l.1-.2v-.1l.1-.2h.3c0 .2.3.2.4.2l.5-.3c.2 0 .5 0 .7-.2h.6v-.1l-.1-.4v-.2H51l-.4-.4-.2-.1-.3-.1-.2-.3V28c0-.2-.3-.3-.3-.5l-.1-.3-.1-.1-.2-.3s-.1 0 0-.1v-.1h3.2a15 15 0 0 1-4 10V36l-.1-.1v-.1l-.1-.4-.1-.3-.2-.2h-.2l-.3.3m1 7.8.1-.2v-.7l-.3-.3.3-.4.2-.3.2-.2.2-.3c.1-.2.1-.3 0-.4L49 40l-.2-.3-.2-.2h-.3l-.3-.3c-.2-.2-.1-.4 0-.6v-.3l.1-.1.3-.3 1 1.1-.1.2v.1l.2-.1V39l.6.5v.5l.3.3v.2l.1.2.2.2h.5l.3.2c-1 1-2 1.8-3 2.5V43m3.4-3.2v-.5l-.2-.5-.1-.5-.1-.1V38l-.2-.1-.5-.2-.2.1v.3l-.1.6h-.1l-1.5-1.4a16.2 16.2 0 0 0 4.4-10.8h4.4a20.3 20.3 0 0 1-5.7 14l-.2-.2c.1-.1.2-.3.1-.4M58.5 12A25.2 25.2 0 0 1 63 26h-4.5a21.5 21.5 0 0 0-2-8.4l.2-.1.1-.3-.1-.4-.1-.2-.2-.3-.2-.3-.2-.2-.2-.4-.3-.4-.2-.3c-.2 0-.1-.3-.3-.4-.1 0-.3 0-.3-.2l-.2-.2a1 1 0 0 1-.3-.3c0-.2-.2-.4-.3-.5-.1-.2-.3-.2-.4-.3l-.5-.4-.4-.6v-.2l3-3.1 3 3.6m3 4a26.7 26.7 0 0 0-49 0 25.8 25.8 0 0 0 2.5 25A27.3 27.3 0 0 0 27 50.9a26.3 26.3 0 0 0 32.3-9.6A26.3 26.3 0 0 0 61.7 16m19.9 7.8h4v25c0 5.5 3.5 8.4 8 8.4 4.3 0 7.8-2.9 7.8-8.5v-25h4v25c0 7.8-4.8 12.5-11.9 12.5-7 0-12-4.7-12-12.5v-25zm55.3 36.9h-4l-15.7-29.1v29.1h-4.1V23.8h4.1l15.7 29.1V23.8h4zm11.8-32.9v28.9h7.8c4.4 0 7.9-2.9 7.9-8.5v-12c0-5.5-3.5-8.4-7.9-8.4h-7.8zm7.8-4c7 0 12 4.7 12 12.5v11.9c0 7.8-5 12.5-12 12.5h-12v-37h12zm63.3 4h-8.5V40h8.5c4.2 0 6.6-2.7 6.6-6.2s-2.4-6.1-6.6-6.1M211.3 44v16.7h-4v-37h12.5c7.9 0 10.7 5.3 10.7 10.2 0 4.5-2.3 9.1-8.7 10l10 16.8H227L217.2 44h-5.9zm-23-16.2h-8.5V40h8.5c4.2 0 6.6-2.7 6.6-6.2s-2.4-6.1-6.6-6.1M179.8 44v16.7h-4v-37h12.5c8 0 10.7 5.3 10.7 10.2 0 4.5-2.3 9.1-8.7 10l10 16.8h-4.8L185.7 44h-5.8zm75.3-18v8.7c0 1.2-.3 2.2-1.1 3s-1.8 1.2-3 1.3h-.5c-1.4 0-2.5-.4-3.4-1.1S246 36 246 34.7V26h1.6v8.7c0 1 .3 1.6.8 2.2s1.2.7 2.2.7c1 0 1.7-.2 2.2-.7s.7-1.3.7-2.2V26h1.7zm3.9 3.3.1 1.2c.7-.9 1.7-1.4 2.9-1.4 2 0 3 1.2 3 3.4v6.3h-1.6v-6.3c0-.7-.2-1.2-.5-1.5s-.8-.5-1.4-.5c-.6 0-1 .2-1.4.4s-.7.7-1 1.2v6.7h-1.6v-9.5h1.6zm8.4-2.5c0-.3.1-.5.3-.7s.4-.3.7-.3.6.1.7.3l.3.7c0 .3-.1.5-.3.6s-.4.3-.7.3-.5 0-.7-.2-.3-.4-.3-.7zm1.8 12h-1.6v-9.5h1.6v9.5zM274 27v2.3h1.8v1.3H274v5.9c0 .3 0 .6.2.8.2.2.5.3.8.3l.8-.1v1.3l-1.2.2c-.8 0-1.3-.2-1.7-.7s-.5-1-.5-1.8v-6h-1.8v-1.2h1.8V27h1.6zm7.6 12c-1.3 0-2.4-.4-3.2-1.3s-1.2-2-1.2-3.4V34c0-1 .2-1.8.6-2.5s.8-1.3 1.5-1.7 1.3-.7 2-.7c1.3 0 2.3.4 3 1.2s1 2 1 3.5v.7h-6.4c0 1 .3 1.7.8 2.3s1.2.9 2 .9c.6 0 1-.2 1.4-.4s.8-.5 1-1l1 .9a4 4 0 0 1-3.5 1.8zm-.2-8.5c-.7 0-1.2.2-1.7.7s-.7 1.1-.8 2h4.8v-.1c0-.9-.3-1.5-.7-2s-1-.6-1.6-.6zm5.4 3.5c0-1.5.3-2.7 1-3.5s1.6-1.4 2.7-1.4 2 .4 2.7 1.2v-5h1.6v13.5h-1.5v-1c-.7.8-1.6 1.2-2.8 1.2-1 0-2-.5-2.7-1.4s-1-2-1-3.5V34zm1.6.2c0 1 .2 1.9.7 2.5s1 1 1.8 1c1 0 1.8-.6 2.3-1.5v-4.4a2.4 2.4 0 0 0-2.3-1.3c-.8 0-1.4.3-1.8 1s-.7 1.5-.7 2.7zm23.4 4.6h-1.7l-6.4-9.8v9.8H302V26h1.7l6.4 10V26h1.7v12.8zm8.6 0-.2-1c-.8.8-1.7 1.2-2.7 1.2-1 0-1.7-.3-2.3-.8s-1-1.2-1-2c0-1 .5-1.8 1.2-2.3s1.8-.9 3.2-.9h1.6v-.7c0-.6-.2-1-.5-1.4s-.9-.5-1.5-.5-1.1.2-1.5.5-.6.6-.6 1h-1.6c0-.4.1-.9.5-1.4s.8-.7 1.3-1 1.3-.4 2-.4c1 0 1.9.3 2.5.8s1 1.3 1 2.3v4.4c0 .8.1 1.5.3 2v.2h-1.7zm-2.7-1.2c.5 0 1-.2 1.5-.4s.8-.6 1-1v-2h-1.3c-2 0-3 .6-3 1.8 0 .5.2.9.5 1.2s.8.4 1.3.4zm8.8-10.6v2.3h1.8v1.3h-1.8v5.9c0 .3.1.6.3.8.1.2.4.3.8.3l.7-.1v1.3l-1.2.2c-.7 0-1.3-.2-1.7-.7s-.5-1-.5-1.8v-6h-1.7v-1.2h1.7V27h1.6zm3.7-.2c0-.3 0-.5.2-.7s.4-.3.8-.3.5.1.7.3.2.4.2.7 0 .5-.2.6-.4.3-.7.3-.6 0-.8-.2-.2-.4-.2-.7zm1.8 12h-1.7v-9.5h1.6v9.5zm2.1-4.8c0-1 .2-1.8.6-2.5s.8-1.4 1.5-1.8 1.4-.6 2.2-.6c1.3 0 2.4.5 3.2 1.4s1.2 2 1.2 3.6c0 1-.2 1.8-.6 2.6s-.8 1.3-1.5 1.7-1.4.6-2.3.6c-1.2 0-2.3-.5-3-1.3S334 35.5 334 34zm1.6.2c0 1 .3 1.9.8 2.5s1.1 1 2 1c.8 0 1.4-.4 1.9-1s.7-1.6.7-2.7c0-1-.2-2-.7-2.6s-1.2-1-2-1-1.4.4-2 1-.7 1.6-.7 2.8zm10.6-4.9v1.2c.8-.9 1.7-1.4 3-1.4 2 0 3 1.2 3 3.4v6.3h-1.7v-6.3c0-.7-.1-1.2-.4-1.5s-.8-.5-1.5-.5c-.5 0-1 .2-1.4.4s-.7.7-.9 1.2v6.7h-1.6v-9.5h1.5zm13.9 7c0-.4-.1-.8-.5-1s-.9-.5-1.7-.7l-2-.6c-.5-.2-.8-.5-1-.9s-.4-.7-.4-1.2c0-.8.3-1.4 1-2s1.5-.8 2.5-.8c1.1 0 2 .3 2.7.9s1 1.2 1 2.1H360c0-.5-.2-.8-.5-1.2s-.9-.4-1.5-.4-1 .1-1.4.4-.4.5-.4 1c0 .4.1.7.4.9l1.7.5c.8.2 1.5.4 2 .7s.9.5 1 .9.5.8.5 1.3c0 .8-.4 1.5-1 2s-1.6.8-2.7.8c-.8 0-1.4-.1-2-.4s-1-.7-1.4-1.1-.5-1-.5-1.6h1.6c0 .5.3 1 .7 1.3s1 .5 1.6.5c.6 0 1-.1 1.5-.4s.5-.6.5-1zm18.3-3.5c0 1.3-.2 2.4-.6 3.3s-1 1.7-1.8 2.1-1.7.8-2.7.8c-1 0-2-.3-2.7-.7s-1.4-1.2-1.8-2.2-.7-2-.7-3.2V32c0-1.2.2-2.3.6-3.2s1-1.7 1.8-2.2a5 5 0 0 1 5.4 0c.7.5 1.4 1.2 1.9 2.1s.6 2 .6 3.3v.8zm-1.7-.8c0-1.5-.3-2.7-.9-3.5s-1.5-1.2-2.6-1.2c-1 0-1.9.4-2.5 1.2s-1 2-1 3.4v1c0 1.4.4 2.6 1 3.4s1.5 1.3 2.6 1.3c1 0 1.9-.4 2.5-1.2s.9-2 1-3.4v-1zm4.8 6.8v-8.2H380v-1.3h1.6v-1c0-1 .2-1.8.8-2.3s1.3-.9 2.3-.9c.4 0 .7 0 1.1.2v1.3a5 5 0 0 0-1 0c-.5 0-.9 0-1.2.4s-.4.7-.4 1.3v1h2v1.3h-2v8.2h-1.6zm6.2 0v-8.2h-1.5v-1.3h1.5v-1c0-1 .2-1.8.8-2.3s1.3-.9 2.3-.9c.4 0 .8 0 1.1.2v1.3a5 5 0 0 0-1 0c-.5 0-.9 0-1.2.4s-.4.7-.4 1.3v1h2v1.3h-2v8.2h-1.6zm5.4-12c0-.3.1-.5.3-.7s.4-.3.7-.3.5.1.7.3.3.4.3.7-.1.5-.3.6-.4.3-.7.3-.6 0-.7-.2l-.3-.7zm1.8 12h-1.6v-9.5h1.6v9.5zm6.4-1.1c.6 0 1-.2 1.5-.6s.7-.8.7-1.3h1.6c0 .6-.3 1-.6 1.6s-.8.9-1.4 1.2-1.2.4-1.8.4c-1.3 0-2.3-.4-3.1-1.3s-1.1-2-1.1-3.5v-.3a4.9 4.9 0 0 1 1.9-4.2c.6-.4 1.4-.6 2.3-.6 1 0 2 .4 2.6 1 .7.6 1.1 1.5 1.2 2.5h-1.6c0-.6-.3-1.1-.7-1.5-.4-.4-1-.6-1.5-.6-.9 0-1.5.3-2 .9s-.6 1.4-.6 2.5v.4c0 1 .2 1.9.7 2.5s1 .9 1.9.9zM411 39c-1.4 0-2.4-.4-3.2-1.3s-1.2-2-1.2-3.4V34c0-1 .1-1.8.5-2.5s.9-1.3 1.5-1.7 1.4-.7 2.1-.7c1.3 0 2.2.4 2.9 1.2s1 2 1 3.5v.7h-6.4c0 1 .3 1.7.8 2.3.5.6 1.2.9 2 .9.6 0 1-.2 1.5-.4s.7-.5 1-1l1 .9a4 4 0 0 1-3.6 1.8zm-.3-8.5c-.7 0-1.2.2-1.6.7s-.8 1.1-.9 2h4.8v-.1c0-.9-.3-1.5-.7-2s-1-.6-1.6-.6zm11 8.3v-8.2h-1.5v-1.3h1.5v-1c0-1 .3-1.8.8-2.3s1.4-.9 2.4-.9c.3 0 .7 0 1 .2v1.3a5 5 0 0 0-.9 0c-.5 0-1 0-1.2.4s-.4.7-.4 1.3v1h2v1.3h-2v8.2h-1.7zm5-4.8c0-1 .2-1.8.6-2.5a3.8 3.8 0 0 1 3.7-2.4 4 4 0 0 1 3.2 1.4 5 5 0 0 1 1.2 3.6 7 7 0 0 1-.5 2.6A4 4 0 0 1 431 39a4 4 0 0 1-3.2-1.3c-.8-1-1.2-2.1-1.2-3.6V34zm1.7.2c0 1 .2 1.9.7 2.5s1.1 1 2 1c.8 0 1.4-.4 2-1s.7-1.6.7-2.7c0-1-.3-2-.8-2.6s-1.1-1-2-1c-.8 0-1.4.4-1.9 1s-.7 1.6-.7 2.8zm13.6-3.4a5 5 0 0 0-.8 0c-1 0-1.8.4-2.2 1.3v6.7h-1.6v-9.5h1.6v1.1c.5-.8 1.3-1.3 2.3-1.3.3 0 .5 0 .7.2v1.5zM246.1 60.4V47.6h3.6c1.1 0 2.1.3 3 .8s1.5 1.2 2 2 .7 2 .7 3.2v.8c0 1.2-.3 2.3-.7 3.2s-1.2 1.6-2 2-1.9.8-3 .8H246zm1.7-11.4v10h1.8c1.3 0 2.3-.4 3-1.2s1.1-2 1.1-3.4v-.8c0-1.4-.3-2.6-1-3.4a3.6 3.6 0 0 0-3-1.2h-1.9zm10.2-.6c0-.3.2-.5.3-.7s.4-.3.7-.3.6.1.8.3.2.4.2.7 0 .5-.2.6-.4.3-.7.3-.6 0-.8-.3l-.2-.6zm1.9 12h-1.7V51h1.7v9.5zm8.5-2.5c0-.4-.2-.8-.5-1-.3-.3-1-.5-1.7-.7l-2-.6c-.5-.2-.8-.5-1-.9s-.4-.7-.4-1.2c0-.8.3-1.4 1-2s1.5-.8 2.5-.8 2 .3 2.6.9 1 1.2 1 2.1h-1.6c0-.5-.2-.8-.6-1.2s-.8-.4-1.4-.4c-.6 0-1 .1-1.4.4s-.5.5-.5 1c0 .4.2.7.5.9l1.7.5 2 .7c.5.3.8.5 1 .9.3.3.4.8.4 1.3 0 .8-.3 1.5-1 2s-1.6.8-2.6.8c-.8 0-1.5-.1-2-.4s-1.1-.7-1.4-1.1c-.4-.5-.5-1-.5-1.6h1.6c0 .5.2 1 .6 1.3.5.3 1 .5 1.7.5.6 0 1-.1 1.4-.4.4-.3.6-.6.6-1zm10 2.5-.2-1c-.8.8-1.7 1.2-2.7 1.2-1 0-1.7-.3-2.3-.8s-1-1.2-1-2c0-1 .5-1.8 1.2-2.3s1.8-.8 3.2-.8h1.6v-.8c0-.6-.2-1-.5-1.4-.4-.3-.9-.5-1.5-.5s-1.1.2-1.5.5-.6.6-.6 1h-1.6c0-.4.2-.9.5-1.3s.8-.8 1.4-1 1.2-.5 1.9-.5c1 0 2 .3 2.5.8s1 1.3 1 2.3v4.4c0 .8.1 1.5.3 2v.2h-1.7zm-2.7-1.2c.5 0 1-.2 1.5-.4s.8-.6 1-1v-2h-1.3c-2 0-3 .6-3 1.8 0 .5.2.9.5 1.1s.8.5 1.3.5zm12.6-1.3c0-.4-.2-.8-.5-1-.3-.3-1-.5-1.7-.7l-2-.6c-.5-.2-.8-.5-1-.9s-.4-.7-.4-1.2c0-.8.3-1.4 1-2s1.5-.8 2.5-.8 2 .3 2.6.9 1 1.2 1 2.1h-1.6c0-.5-.2-.8-.6-1.2s-.8-.4-1.4-.4c-.6 0-1 .1-1.4.4s-.5.5-.5 1c0 .4.2.7.5.9l1.7.5 2 .7c.5.3.8.5 1 .9.3.3.4.8.4 1.3 0 .8-.3 1.5-1 2s-1.5.8-2.6.8c-.8 0-1.5-.1-2-.4s-1.1-.7-1.4-1.1c-.4-.5-.5-1-.5-1.6h1.6c0 .5.2 1 .6 1.3.5.3 1 .5 1.7.5.6 0 1-.1 1.4-.4.4-.3.6-.6.6-1zm6.4-9.3v2.3h1.7v1.3h-1.7V58c0 .3 0 .6.2.8s.4.3.8.3h.8v1.2l-1.3.2c-.7 0-1.2-.2-1.6-.7s-.6-1-.6-1.8v-6h-1.7v-1h1.7v-2.3h1.7zm8 12c-1.3 0-2.3-.4-3.1-1.3s-1.3-2-1.3-3.4v-.3c0-1 .2-1.8.6-2.5s.8-1.3 1.5-1.7 1.3-.7 2.1-.7c1.2 0 2.2.4 2.9 1.2s1 2 1 3.5v.7H300c0 1 .3 1.7.8 2.3.5.6 1.2.9 2 .9.6 0 1-.2 1.5-.4s.7-.5 1-1l1 .8a4 4 0 0 1-3.6 1.9zm-.2-8.5c-.7 0-1.2.2-1.6.7s-.8 1.1-.9 2h4.8v-.1c0-.9-.3-1.5-.7-2s-1-.6-1.6-.6zm10.8.3a5 5 0 0 0-.8 0c-1 0-1.8.4-2.2 1.3v6.7h-1.6V51h1.6v1c.5-.8 1.3-1.3 2.3-1.3.3 0 .5 0 .7.2v1.5zm11.7 2.8h-3v5.2h-1.7V47.6h4.3c1.4 0 2.5.4 3.3 1s1.2 1.6 1.2 2.9c0 .8-.3 1.5-.7 2s-1 1-1.8 1.4l3 5.4v.1h-1.8l-2.8-5.2zm-3-1.3h2.6c.8 0 1.5-.3 2-.7s.7-1 .7-1.7c0-.8-.2-1.4-.7-1.9s-1.1-.6-2-.6H322v5zm9.6-5.5c0-.3 0-.5.2-.7s.4-.3.7-.3.6.1.8.3.2.4.2.7 0 .5-.2.6-.4.3-.8.3-.5 0-.7-.3l-.2-.6zm1.7 12h-1.6V51h1.6v9.5zm8.6-2.5c0-.4-.2-.8-.5-1-.3-.3-1-.5-1.7-.7l-2-.6c-.5-.2-.8-.5-1-.9s-.4-.7-.4-1.2c0-.8.3-1.4 1-2s1.5-.8 2.5-.8 2 .3 2.6.9 1 1.2 1 2.1h-1.6c0-.5-.2-.8-.6-1.2s-.8-.4-1.4-.4c-.6 0-1 .1-1.4.4s-.5.5-.5 1c0 .4.2.7.5.9l1.7.5 2 .7c.5.3.8.5 1 .9.3.3.4.8.4 1.3 0 .8-.3 1.5-1 2s-1.6.8-2.6.8c-.8 0-1.5-.1-2-.4s-1.1-.7-1.4-1.1c-.4-.5-.5-1-.5-1.6h1.6c0 .5.2 1 .6 1.3.4.3 1 .5 1.6.5.7 0 1.2-.1 1.5-.4.4-.3.6-.6.6-1zm6.8-1.9-1 1v3.4H346V47h1.6v8.2l.9-1 3-3.2h1.9l-3.7 4 4.1 5.5H352l-3.3-4.4zm16.7-.8h-3v5.2h-1.7V47.6h4.2c1.5 0 2.6.4 3.4 1s1.1 1.6 1.1 2.9c0 .8-.2 1.5-.6 2s-1 1-1.8 1.4l3 5.4v.1h-1.8l-2.8-5.2zm-3-1.3h2.6c.8 0 1.5-.3 2-.7s.7-1 .7-1.7c0-.8-.2-1.4-.7-1.9s-1.1-.6-2-.6h-2.6v5zm13.5 6.7c-1.3 0-2.3-.4-3.1-1.3s-1.3-2-1.3-3.4v-.3c0-1 .2-1.8.6-2.5s.8-1.3 1.5-1.7 1.3-.7 2-.7c1.3 0 2.3.4 3 1.2s1 2 1 3.5v.7h-6.4c0 1 .3 1.7.8 2.3.5.6 1.2.9 2 .9.6 0 1-.2 1.4-.4s.8-.5 1-1l1 .8a4 4 0 0 1-3.5 1.9zm-.2-8.5c-.7 0-1.2.2-1.6.7s-.8 1.1-.9 2h4.8v-.1c0-.9-.3-1.5-.7-2s-1-.6-1.6-.6zm5.8 3.5c0-1.5.4-2.7 1-3.5.7-1 1.7-1.4 2.8-1.4 1 0 2 .4 2.6 1.2v-5h1.7v13.5H388l-.1-1c-.7.8-1.6 1.2-2.7 1.2s-2-.5-2.7-1.4-1-2-1-3.5v-.1zm1.6.2c0 1 .3 1.9.7 2.5s1 1 1.9 1c1 0 1.7-.5 2.2-1.5v-4.3a2.4 2.4 0 0 0-2.2-1.4c-.8 0-1.4.3-1.9 1s-.7 1.5-.7 2.7zm15.2 3.7c-.6.7-1.5 1.1-2.8 1.1a3 3 0 0 1-2.3-.9c-.5-.6-.8-1.4-.8-2.6v-6.2h1.7V57c0 1.5.5 2.2 1.7 2.2 1.3 0 2-.5 2.5-1.4V51h1.6v9.5h-1.5v-1zm8.3-.2c.6 0 1.1-.2 1.5-.6s.7-.8.8-1.3h1.5c0 .6-.2 1-.6 1.6s-.8.9-1.3 1.2-1.2.4-1.9.4a4 4 0 0 1-3-1.3 5 5 0 0 1-1.2-3.5v-.3c0-1 .2-1.8.5-2.5s.8-1.3 1.5-1.7 1.4-.6 2.2-.6c1 0 2 .4 2.7 1 .7.6 1 1.5 1.1 2.5h-1.5c0-.6-.3-1.1-.7-1.5-.5-.4-1-.6-1.6-.6-.8 0-1.5.3-2 .9s-.6 1.4-.6 2.5v.3c0 1.2.2 2 .7 2.6s1 .9 2 .9zm8.3-10.7v2.3h1.7v1.3h-1.8V58c0 .3.1.6.3.8s.4.3.8.3h.8v1.2l-1.3.2c-.7 0-1.2-.2-1.6-.7s-.6-1-.6-1.8v-6h-1.7v-1h1.7v-2.3h1.7zm4.1-.2c0-.3 0-.5.2-.7s.4-.3.7-.3.6.1.7.3l.3.7c0 .3-.1.5-.3.6s-.4.3-.7.3-.5 0-.7-.3l-.3-.6zm1.7 12h-1.6V51h1.6v9.5zm2.6-4.8c0-1 .2-1.8.5-2.5.4-.8 1-1.4 1.6-1.8a4 4 0 0 1 2.2-.6 4 4 0 0 1 3.1 1.4c.9.9 1.3 2 1.3 3.6 0 1-.2 1.8-.6 2.6a4 4 0 0 1-3.8 2.3 4 4 0 0 1-3.1-1.3c-.8-1-1.2-2.1-1.2-3.6v-.1zm1.6.2c0 1 .3 1.9.8 2.5s1 1 2 1c.7 0 1.4-.3 1.9-1 .5-.6.7-1.5.7-2.7 0-1-.2-2-.7-2.6-.5-.6-1.2-1-2-1s-1.4.4-2 1-.7 1.6-.7 2.8zM436 51v1c.7-.9 1.7-1.4 2.8-1.4 2 0 3 1.2 3 3.4v6.3h-1.5V54c0-.7-.2-1.2-.5-1.5-.3-.3-.8-.5-1.5-.5-.5 0-1 .2-1.3.4s-.8.7-1 1.1v6.8h-1.6V51h1.5z"/>
</svg>
