<svg xmlns="http://www.w3.org/2000/svg" xml:space="preserve" id="Calque_1" x="0" y="0" style="enable-background:new 0 0 424.6 63.8" version="1.1" viewBox="0 0 424.6 63.8">
  <style>
    .st0{fill:#004f91}
  </style>
  <path d="m51.3 16.2.2.4.1.1v.2l-.3-.1-.1-.2c-.2 0-.3-.2-.4-.4l.1-.1h.2l.2.1m.7.7-.3.1.1-.2h.2m0 .6.3.1v.3c-.2 0 0-.2-.2-.2v.3H52l-.1-.2h.1v-.3l-.4-.1v-.1h.3l.2.2H52zm.4.7c.1.2.3.3.2.4 0 .1 0 .2-.2.2l-.2-.2v-.4h.2m.4.8-.3.1.2-.2h.1v.1zm.2.3-.2.1h-.2v-.2h.3m.1.5v.2c.2 0 .2.2.2.3 0 .2 0 .4.2.6v.5l.1.4v.1c0 .2-.1.1-.2.2l-.3-.3v-.5c0-.3-.2-.5-.3-.8l-.2-.3-.1-.3v-.3h.2c-.1.1 0 .3 0 .4v.1l.1-.2v-.3h.2m.8 3.4-.2.1v-.2h.2M52 25.3l-.2.1c0-.1 0-.2.2-.2m-1.3.4h-.2s.1-.1.2 0zm.1 0c0 .1-.1.1 0 0m.6 0v.2c-.1 0-.2-.2-.3 0l-.1-.2h.4m.4 2.9c0 .1.2.2.1.4l-.5.1-.3-.1-.2-.2.2-.1.1-.1h.3c.1-.2.2 0 .3 0m7.7 2.6c0 .2-.2.1-.3.2H59v-.2c.2 0 .3-.2.5 0zm-44.3 1.3v.2h-.3l-.1-.2c.1-.1.2 0 .2 0h.2zm-1.4.2-.2.1-.2-.2h.1c.2-.1.2 0 .3.1m-.3.3h-.3c0 .1 0 0 0 0l.1-.2.2.2m47.8.5v.2H61v-.2h.3m-47.8.2-.3.1v-.2l.3.1m47.5.3c0 .1 0 .2 0 0m-.8.6v.3c-.2 0-.1.3-.3.3h-.2v-.5l.3-.2.2.1m-46.4.3v.4-.4m39.9 1.8v.2l-.2.2-.1-.1v-.3h.3m-38.9.6-.4.1v-.2l-.2-.1v-.2h.1c.3 0 .3.2.4.4m38.7 0v.2s0 .2-.2.1h-.1v-.2l.3-.1m-36.6.1c0-.1 0 0 0 0m-.8.9.1.3H16c-.2 0-.3-.2-.3-.3V38l.3.2m.4.7.3.4v.1h-.2l-.3-.3s-.2-.1 0-.2l.1-.2.1.2m5.9 7.3.3.3v.2h-.1l-.3-.1-.4-.4v-.3h.2l.3.3M13 57.1c5.9 2.5 9.8-1.1 16.3-1.1 6.6-.2 13.1 2.4 17.6 7.3l-1.4.5c-3-4.2-7-6.4-10.5-6.4-2.8 0-7.1 2.9-12.2 2.9-2.8 0-8-.6-9.8-3.2" class="st0"/>
  <path d="M61.5 57.2c-5.9 2.5-9.8-1.2-16.3-1.2-6.6-.2-13.1 2.4-17.6 7.3l1.4.5c3-4.2 7-6.4 10.5-6.4 2.8 0 7 2.9 12.2 2.9 2.8 0 7.9-.6 9.8-3.1m-36.6-2c-1.2.2-5.2 1.2-7.3 1-4.4-.4-8.3-2.9-10.4-6.8 3.1 2.4 8.5 3.3 10.6 3.9 2 .5 3.7 1.2 5 1.4-3-1.1-4.6-2.6-5.3-4.2-1-2.2-1.6-3.8-2.4-7 1.4 1.3 4 4.3 5 5.3 1.8 2 2.4 5.5 4.8 6.4" class="st0"/>
  <path d="M16.2 51.6c-2-.9-5.5-1.3-7.3-2.4-2.5-1.5-5.7-5-6.4-10.5 1.8 3.5 5.7 6 7.4 7.3 1.6 1.3 4 3.8 5 4.5-1.8-1.7-3-3.8-3.6-6.2-.1-2.4-.7-4.5-.5-7.9.7 1.9 3.2 6 3.7 7.4 1.2 3.6.4 5.3 1.7 7.8" class="st0"/>
  <path d="M10.3 44.3c-1.8-1.5-6.3-5-7.5-7C1.2 34.6.3 31.6.3 28.5c1 3.9 4.5 7 5.7 8.6 1.3 1.8 2.2 4.5 3 5.5a13.3 13.3 0 0 1-1.5-6.8c0-2.3.3-5 1.2-8 .8 2.1 1 3.4 1.2 4.8.4 5.1-1.4 9.4.4 11.7" class="st0"/>
  <path d="M5.9 35.4c-1.5-2.8-4.2-5.8-5-8.4-.8-2.8-1.3-6-.4-9.3.2 4 2.5 6 3.3 9.4L5 32.3c-.3-3 .5-5 1.2-6.7.6-1.2 1.1-2.2 2.8-4.7.2 2.6-.7 6-1 6.7-.5 1.5-2.8 5-2.1 7.8" class="st0"/>
  <path d="M4.5 27.6c-.5-2.8-1.7-6.3-1.9-8.7-.1-2.1.4-7.1 3.3-10-1.2 2.8-.7 5.7-.5 7.8.3 3.1-1 5-.7 6.3.4-1.3.8-3 1.8-4.3C8.1 17 9 16.6 12 13.6c-1.1 2.6-3 6-3.4 6.6-1 1.7-4 4.7-4 7.3" class="st0"/>
  <path d="M6.3 18.1c.3-3-.5-4.3 0-6.7.4-2 1.8-5.8 4.7-7.7C10 5.3 9.4 7.1 9.1 9c-.5 3.1-1.2 3.6-1.2 4.9.9-1.4 1.9-2.6 3.2-3.6 2-1.3 2.8-1.7 4.6-3.5-.8 2.4-3.3 5.2-3.8 5.7-2.3 2.4-3.8 2.6-5.6 5.6" class="st0"/>
  <path d="M17.7 2c-1.5.6-4.8 2.5-5.7 3.7-1 1.1-2.2 3.3-2.6 5 1-1 2.5-1.7 3.7-2.8S15.9 4 17.7 2m31.8 53.2c1.2.2 5.1 1.2 7.2 1 4.4-.3 8.4-2.9 10.5-6.8-3.1 2.4-8.5 3.3-10.6 3.9l-5 1.5c3-1.2 4.6-2.7 5.3-4.3 1.1-2.2 1.9-4.6 2.4-7l-5 5.3c-1.9 2.1-2.4 5.5-4.8 6.4" class="st0"/>
  <path d="M58.1 51.6c2.2-.8 5.6-1.3 7.4-2.4 2.4-1.4 5.7-5 6.4-10.5-1.9 3.5-5.8 6-7.4 7.3-1.7 1.3-4 3.8-5 4.5 2.2-2.3 3.4-4.8 3.6-6.2 0-2.3.6-4.5.5-7.9-.7 1.9-3.2 6-3.7 7.4-1.3 3.7-.4 5.3-1.8 7.8" class="st0"/>
  <path d="M64.1 44.4c1.8-1.6 6.3-5.1 7.4-7.1 1.5-2.5 2.5-5.4 2.5-8.8-1 3.9-4.4 7-5.7 8.6-1.2 1.8-2.2 4.5-3 5.5 1.6-2.8 1.6-5.2 1.6-6.8 0-2.2-.4-5-1.3-8-.6 1.5-1 3.2-1.1 4.8-.4 5.1 1.3 9.5-.4 11.8" class="st0"/>
  <path d="M68.5 35.4c1.4-2.8 4.1-5.8 5-8.4.7-2.7 1.2-6 .3-9.2-.2 3.9-2.4 5.9-3.2 9.3l-1.2 5.2c.2-3-.5-5-1.2-6.6-.8-1.7-1.8-3.3-2.8-4.8-.2 2.7.7 6 1 6.7.5 1.6 2.7 5 2.1 7.8" class="st0"/>
  <path d="M69.9 27.6c.5-2.8 1.7-6.3 1.8-8.7.2-2.1-.3-7.1-3.2-10 1.2 2.8.7 5.7.5 7.8-.4 3.2.9 5 .6 6.3-.2-1.5-.8-2.9-1.7-4.2-1.6-1.8-2.5-2.3-5.4-5.2 1.1 2.6 3 6 3.3 6.6 1 1.8 4.1 4.7 4.1 7.4" class="st0"/>
  <path d="M68 18.1c-.2-3 .6-4.3.1-6.7-.4-2-1.8-5.7-4.8-7.6.9 1.3 1.6 3 2 5.2.4 3.1 1.1 3.6 1.2 5-.7-1.2-2-2.7-3.3-3.7-2-1.2-2.7-1.7-4.5-3.5.9 2.2 2.2 4.1 3.8 5.8 2.2 2.3 3.8 2.6 5.5 5.5" class="st0"/>
  <path d="M56.7 2c1.4.6 4.7 2.6 5.7 3.7s2.1 3.3 2.6 5c-1-1-2.5-1.7-3.7-2.8-1.2-1-2.9-3.8-4.6-5.9M13.1 33.3h.3-.3zM39.8 1.6s0 .1 0 0m2 .5c-.1 0-.3-.1-.4 0v.1c.2.1.3.2.5.1l-.1-.2m1 .8c.2 0 .4.2.5 0v-.1l-.3-.2-.3.2.1.1m-.3.3-.1-.2h-.2v.2h.3m6.6 4.1.4.2c.2 0 .2.2.3.2.2.1.3.3.5.2l.1-.3v-.3l-.2-.2-.3-.3h-.7s-.2 0-.2.2l.1.3zm-7.8.3-.3-.1v.2h.3m1.2.4-.1-.3-.4-.2h-.2l-.3-.2v.2l.2.2.3.2s0 .2.2.2h.3m-1.7-.5s-.1-.1-.2 0h-.1l.2.2c.1 0 .1.3.3.2V8s0-.2-.2-.3m-6.3.7h-.2v.2l.3.1-.1-.3m-.5 0 .1.2-.1-.2m7.2.1v.3l.2.1.1-.1v-.2c0-.1-.2-.2-.3-.1m-6.2.1h-.2l-.1.2h.3v-.2zm7.3.9c-.1 0-.1.1 0 0m.4.6v-.3l-.2-.1h-.1v.3l.3.1m.5.2v-.2L43 10l.2.3zm-.5-.2-.1.3.3.2.2-.2c-.1-.1-.1-.2-.2-.1v-.2c-.1 0-.1.1-.2 0m-14.7.1h-.2l-.2.1v.1h.3s.1 0 0-.2m15.1.5.3.2.2-.2-.2-.2h-.1l-.1.2m.7.4.1-.2v-.1l-.2-.1h-.1v.3l.2.1m.2.2.2.2h.1l.1-.2-.1-.2-.3-.1v.3m-11.3 3.8c-.1 0-.1.1-.2 0h-.4s-.2 0-.2.2v.1h.4l.2-.1h.3l-.1-.2m17 0 .3.1v-.1h-.3m-.7 2.5.2-.1v-.1H49v.2m.4.2h.2v-.2h-.3l.1.2m-.6.6c.2 0 .2.2.3.3v.1h.4l-.2-.4v-.6h-.4l-.3.1-.1.2v.1l.3.2" class="st0"/>
  <path d="M48.2 18.6c.2.3.2.1.3-.1v.3c.2 0 .2-.1.4 0v-.2l-.1-.2h-.3c-.2 0-.3 0-.3.2m1.5.3h.2v-.1l-.2.1m-.7-.1-.3.2v.1c-.1.1 0 .1 0 .2h.2l.2-.3-.1-.2m1 .1h.2-.2" class="st0"/>
  <path d="M49 19.4h-.3v-.1h-.2c0-.2-.1-.3 0-.4h-.2v.6c-.3 0-.5 0-.6.3v.3h1.1l-.2-.2v-.3h.4v-.2m-7.6.5h.2l.1-.2v-.2h-.1c0 .2-.3 0-.4.1v.1l.2.1m.4.1v.3h.7l.3-.3-.2-.2h-.2l-.1-.1c0-.1-.2 0-.2 0h-.2s-.1 0 0 0c-.2 0 0 .2 0 .3m-1.4 0c0-.1.1 0 0 0l.4-.1h.2v-.1h-.7c-.1.1 0 .2.1.2zm8.9-.3h-.2v.2h.6v-.1h-.4m-9.3.3c.1-.2.1-.1 0 0 .1-.1 0-.1 0 0m-2.1-.2v.2-.2m-1.8 0h-.3v.2h.2v-.1m10.8.2-.2-.1v.2h.2m-11-.1h-.2v.2h.1l.1-.1m11.2 0-.2.2h-.2l.1.2h.7v-.4c-.1-.1-.2 0-.4 0m-6.1 1s-.1.1 0 .2l.1-.1c0-.2.3-.3.4-.4l.3-.2h.1v-.3l-.2-.1-.2.1c0 .2-.3.1-.3.3l-.2.5m-5.5-.9-.1.2h.2v-.2m-1 .7-.1.3v.1h.1V21m4.4 3.2s0-.2 0 0c-.1-.1-.1.1 0 0m-.4.1s.1-.1 0 0v-.2h-.1l.1.2m.2.3h.2v-.2s-.1-.1-.2 0v.1m-4 .5.1-.3-.3-.2-.2.1v.1c.2 0 .2.3.4.3m.5.6s.2 0 .2-.2h-.2v-.3l-.2-.1-.1.1v.2c.1 0 0 0 0 .1l-.1-.2h-.1c-.1 0-.2 0-.2.2l.2.2h.5m-.9.1c0-.1.1-.2 0-.2l-.2.1v.2l.2-.1m.3 0-.2.1.2.1s.1.1.2 0c0 0 .1 0 0-.1l-.2-.1m1.1.5h-.2V26s-.2-.1-.1-.2h-.3v.2l.3.1v.3h-.2l-.2.2v.3h.4l.2-.1h.3l.1-.1c.1-.2 0-.3 0-.4l-.3-.1m2.9-.1c0-.1-.1-.1 0 0m.3-.1.2.1c0-.2-.1-.1-.2-.1m-4.3.2-.4.3v.1l.4.3v-.7m4.4.8c0 .2-.1.3 0 .4l-.1.2.2.1.1-.2v-.2c-.1 0 0-.2-.2-.3m.1.8v.2l.5.2h.1v-.3l-.2-.1-.2-.1-.2.1m-1.2.8v-.5c-.1 0-.2-.1-.1-.2h.2v-.3h-.2l-.1.2h-.1l-.1.1.1.5h.2m-12.1 2.5.1-.6-.1-.4h-.3l-.1-.4h-.1l-.2.1v.5l.2.3c0 .2.2.3.3.4 0 0 0 .1.2 0m10.5-.7H36l-.3-.2-.1.1v.3c.1.1 0 .2 0 .2l.1.2h.7l.2-.4-.3-.2m-10.6 1.3h.2v-.2l-.1-.2h-.2v.2l.1.2m.1.2v.2h.2v-.2h-.2m.2.3h.2-.1m0 .1v.2H26v.2h.2v-.1l.2-.2s-.1-.1-.3-.1m-.3.6s.2 0 0 0c0-.1-.2-.1 0 0m22.6 1.8h.2l.1-.4c0-.2-.2-.1-.3 0h-.1v.4m-5.8.1.2-.1.1-.3h-.1l-.4.3.2.1m-4 .1h.2v-.2h-.2v.2m0 .4.2.1.1-.3h-.1c-.2 0-.2 0-.2.2m2.8.2c.1-.1.4-.1.4-.3H41l-.2.2c.2.1.3.1.4 0m-2 .2c.1.1.3 0 .4 0v-.2h-.2l-.2.2m10.5 4.2-.1-.3c-.1.1 0 .1 0 .2m-16.3 3.5h.2v-.3l-.2-.1-.1.2.1.2m2.2 1.9.1-.3h-.1l-.1.2.1.1" class="st0"/>
  <path d="M61 36.3c-1.2 2.9-3 5.5-5.2 7.8L52.6 41c3.8-3.9 5.9-9.1 6-14.5H63c0 3.4-.7 6.7-2 9.8m-9.4 11.3c-4.2 2.8-9 4.3-14 4.4v-4.4c2 0 4-.3 5.8-1v.1c.1 0 .1.1.2 0h.1c.1.2.3.2.4.3h.4l.2-.2h.2l.3-.3.3-.1c.2 0 .3 0 .3-.2l.3-.1.1-.1.3-.1v-.1l.2-.2.4-.2.6-.4c.2 0 .3-.3.5-.4v-.1c1.4-.9 2.7-1.9 3.9-3l3.1 3.1c-1.1 1.1-2.3 2.1-3.6 3m-11.5-5.5.1.2.3.1.1.1v.2c.2.1.3.2.3.4l.1.2s.1.1 0 .2v.3l-.1.4.2.4.2.2c0 .2.2.3.3.3l.3.1.3.3.2.3.2.2h.1c-1.6.5-3.3.8-5 .8v-4.4l2.4-.3m-1-1c.3 0 .1.1.2.2v.2l-1.6.1V41h1.4s-.2.1 0 .1m-2-5.3H37l-.2.1c0 .1-.2 0-.2 0H36l-.4.3h-.1c-1.8-.3-3.5-1-4.9-2.1l-.5-.5 3.1-3 .9.6a5 5 0 0 0 2.4.9v.1h.1c.1 0 0-.1.1 0v-.1h.2-.1v.3s0 .1-.1 0h-.1l-.1.2v-.2l-.2-.2-.2.2v.2l-.2.2.2.2h.2l.2-.3h.1v.2l-.1.1s-.1.1 0 .2v.1h.3l.1-.2c.1 0 .2-.2.3 0 0-.1.2 0 .2-.2.1 0 0 .1 0 .2h-.1l-.3.1v.2h-.5v.2l.1.2h.1c.1 0 .2.2.1.3l-.1.1H36l-.2.2v1.2h.3v.2h.2l.4-.1v-.2h.5v-.2s.2 0 .2-.2l.1-.2.2-.1v-.2h.3c.2-.2.3-.3.5-.3s.2.2.4.3h.4l.2.2.2.1v.2c.2-.1.2-.2.1-.3v-.2l.1-.1-.2-.2h-.1c0-.1-.2 0-.2-.2h-.1l-.2-.1v-.1h.5l.3.2h.1v.2l.1.3h.2c0 .2.1.3.3.3l.2-.1h.2v-.2l-.2-.2v-.2c.2 0 .4.2.5.3l.2.1.3-.1.2-.1v-.2l.4-.1.2-.2.2.2v.6h-.1c-.1.2-.3.2-.4.3 0 .2-.3.2-.4.2l-.5.1h-.2l-.3.1-.3.2v.2l-.6.2-.3-.1h-.5v-.1l-.1-.3-.2-.2h-.3l-.4.1h-.6l-.2.1-.4.3m-.3 5.8a15 15 0 0 1-10.2-4.3l3-3.1c1.1 1 2.4 1.8 3.8 2.3l1.1.4h-.2v.2l-.4.2-.2.2v.3l-.1.2-.1.4c-.1 0-.4 0-.4.3l.3.6.1.3.4.3.1.3.2.2.3.3h.1l.3.3h1l.4.1h.6l-.1.5zm0 5.2c-5.2 0-10.3-2.1-14-5.8l.7-.6v.1l.5.3.5.1h.6l.3-.2.6-.2h.2l.5-.1h.5l.4-.1.2-.2.1-.3s-.1-.2 0-.2l-.3-.5c2.7 2 5.9 3.2 9.3 3.3l-.1 4.4zm0 5.2c-6.5-.1-12.8-2.8-17.4-7.4l3.1-3c3.9 3.8 9.1 5.9 14.5 6V52h-.2zM15.9 40.6c-2.8-4.1-4.3-9-4.4-14h4.4c0 2 .4 4.1 1 6h-.2c0 .2-.1 0-.2 0l-.2-.1-.2-.3-.3.1-.4.1v.3l-.2.1-.3.1h-.1l-.2-.2h.2l-.1-.4-.3-.1-.1.2c-.1 0-.1-.1-.2 0H14v.2h.6l-.2.1H14l-.2.3-.3.2-.3-.1v.2h.2v.7l.2.5v.2-.3l-.2-.1h-.1v-.2l-.1-.2h-.1c-.1 0 0 .1 0 .2v.3c.1 0 .1 0 0 0v.2s0 .2.2.3l.1.3c0 .1.1.2 0 .4h.2-.1v.2l.1.1h.1v-.3l.1.2.1.2h-.1l-.1-.1c-.1 0 0 .1 0 .2h.2c0 .1.1.2 0 .2l.3.3h.2V36l-.1-.2c0-.2 0-.3-.2-.4v-.1h.1l.2-.1.2.1.4.5.3.2h.3v-.4c.2 0 .2.1.3.2 0 .1 0 .3.2.3.1 0 0 .2.2.2 0 .2.2 0 .4.1l-.1-.4v-.1l.1.2v.4l.1.2c.2.2.4 0 .6 0v.4l.3.5.2.2c.2 0 .3.3.4.3h.4l.2-.1v-.1h.1l.1.5c0 .2.2.3.3.5.2 0 .3.2.5.3l.4.1 1.4 1.7-3 3c-1.2-1-2.1-2.2-3-3.5m-2.3-24.3c1.2-3 3-5.6 5.3-7.9l3.1 3.2c-3.8 3.8-5.9 8.9-6 14.3h-4.5c0-3.3.8-6.5 2-9.6M23 5.1c4.1-2.8 9-4.3 14-4.4v4.4c-5.4.1-10.6 2.2-14.5 6l-3.1-3.2c1.1-1 2.3-2 3.6-2.8m8 24.8h.6v.1l-.1.1h-.2l-.3-.2c.1.1 0 .1 0 0m-3.8-1.4v-.2h.1l.2.2.3.1h.7l.3.1.1.4.3.1V29h.1l.2.2.2.1.2.1h-.3v.1l.1.3.4.3s0-.1.1 0l.1.2h.3l-.1-.4c.1 0 0-.2 0-.2v-.2h.1v.1l.2.2s-.1.1 0 .2v.3c-.1 0 0 0 0 .1v.2h.1v.4l.3.1.1-.2v-.3c.1-.1.2-.2.1-.3 0-.2.3-.2.3-.3l.1-.2.2-.5h.1v-.2l.6.8-3.1 3c-1.2-1.3-2-2.9-2.4-4.6m-1 .2-.2-.1h-.3V28h.1l.3.2h.1v.4m-3.4 11.3-.5.5-.6-.5h.3c0-.2.2-.2.4-.2l.4.2zm8-28.3c-1.7.8-3.3 1.8-4.8 3.1l-3-3.1C26.8 8 31.7 6 36.9 5.9v4.4c-2 0-4 .5-6 1.3m-.8 6.6-.3.2-3.1-3.1c2.7-2.6 6.3-4.1 10.1-4.2v4.5c-2.5.1-4.8 1.1-6.7 2.7m-3.5 7.6H25v-.3c-.1 0 0-.2 0-.2 0-.2.1-.2.2-.2l.4-.2h.3c.2 0 .3 0 .4.2 0 0 .1.1 0 .2.2 0 .2.2.2.3l.1.2m-.5-3.4.3.2.6-.2-.3.2h-.3l-.3.2H26c-.1.2-.2.2-.3.2h-.4l-.3.5-.1.2-.2.2-.1.3-.2.3v.3h-.1v.3c.1.3 0 .4-.2.5l-.1.2h-2.1c.1-3.8 1.7-7.3 4.3-10l3 3.1c-.7.8-1.4 1.8-1.8 2.8H27l-.2.3h-.3l-.3.2-.1.2m2.5 6.2h-.2l.2-.2v.2m2 .6-.2-.1.2.1m.2.3.2.2c-.2 0-.2-.1-.2-.2-.1 0-.2 0-.1-.2l.1.2m1.3-7.3-.3-.1c0-.1-.2 0-.2 0 0-.1 0-.1-.1 0-.1-.1-.2 0-.4 0H31c0-.2-.2-.2-.3-.3-.1-.2-.3-.3-.4-.3l-.4-.2c-.3 0-.5-.1-.8 0H29l-.4.2-.3.1c.4-.8 1-1.5 1.5-2.1l2.7 2.6v.1h-.4m4.2-2.3h.2l.2-.1h.1v.9c-.5 0-.9.1-1.4.3 0-.2.2-.4 0-.5l-.2.1-.2.4-.1.3s-.2.1-.1.2l-.3.3h-.2c-.2 0 0 .3-.3.3 0 0 0-.1-.1 0h-.3l-3.2-3.1.2-.2c1.8-1.5 4-2.4 6.3-2.5v3.2h-.5l-.1.2v.2m-15.2 5.9h-4.5c.1-5.2 2.2-10.2 5.9-13.8l3.1 3.2c-2.8 2.9-4.4 6.6-4.5 10.6m-1.7 5v1.5l-.4.2h-.3c-.2.2-.4.1-.6.2h-.4c-.7-2-1-4.1-1-6.2H21c0 .7 0 1.4.2 2H21c-.2 0-.4 0-.5.2l-.3.6H20v.3c-.2 0-.2.1-.3.2v.3c-.2.1-.2.2-.2.3l-.1.2v.2m3.6-3.5-.1.6-.1.3v.4c.1 0 .2 0 .3.2 0 0 0 .2-.2.3h-.4l-.3-.2H22c-.1-.8-.2-1.6-.2-2.4h1.7l-.2.4c0 .2-.3.2-.3.4m2 9 .2-.1.3-.1.1-.2v-1c0-.2-.2-.3-.3-.4l-.3-.5v-1c0-.2.3 0 .3-.3l.2-.1v-.1c-.1-.1-.2 0-.2 0-.1 0 0-.2-.2-.1v.1l-.1.1V32l-.2-.1v-.1s-.1-.1 0-.2h.1c0-.1 0-.2-.2-.2v-.6h-.2c-.2 0-.3.2-.4 0l.1-.2h.3v-.3l-.4-.4-.1-.2-.2-.1-.1-.1v-.1l-.1-.2v-.3l-.1-.4c-.1-.1 0-.3 0-.4l.1-.2h.6l.2-.3.1-.6h.7l.1-.1.1-.2h1l.1.3h.2v.2s-.1.1 0 .2l-.2.3h-.2l-.2.2h-.3c0-.3-.2-.6-.5-.6l-.1.1.1.5v.7h-.5v.4l.2.2h.2l.1.2h.3v.2h.3l-.1-.1h.1v-.1l.3-.2-.1-.2H26l-.1.2-.2.1v-.6h.4l.2-.2v.2s0 .2-.2.2h.2c0 .1.2-.1.2 0h.1c.5 1.8 1.4 3.4 2.6 4.7l-3.2 3h-1v-.2m12.9-3.8s.1 0 0 0h-.2v-.1h-.1l-.1-.2v-.2h.6v.2l-.2.1v.2m1.5-.8-.1.3-.2.2h-.3l-.2-.1V32c-.1-.1-.2-.2-.2-.3h-.1v-.4h.2v.2l.2.2.1.2h.2c.2 0 .1 0 .2-.2v-.5l-.1-.1v-.8c.1 0 .2 0 .2.2v.7h.4v.1l-.1.1-.3.1.1.3m-2.1-10h.3v.2H37c-.1-.2-.3-.1-.4-.1h-.1l-.1.1v.3l.3.3.3.2.1.2h.3l.5.1h.2l.2.2.3.2.2.5h.2l.3.1s.1-.1.2 0l-.2.3v.4l.3.1v.2c0 .2-.4.1-.3.3v.1l-.2.3v.2h.5l.1.2.2.4.2.2.2-.1v-.2c.1.1 0 .1 0 .1v.2l-.2.2h.5l.4-.2h.1v.3h.1v.1H40c-.1.2 0 .4.2.5l.1.1-.1.2v.5c-.2 0-.3.2-.2.3l-.1.2h-1.2l-.3.3-.1.3-.2.2v.3l-.1.4-.1.2-.3.2v.3h-.4c-1.2 0-2.4-.4-3.3-1.2h.2l.3-.2.3-.1h.6c.1-.1.2 0 .4 0l.4-.2c.1-.1.2-.2.1-.3l.2-.1v-.2s.1 0 0-.2v-.1l.2-.2.2-.4.1-.4s-.3 0-.2-.1c0 0 .2 0 .2-.2v-.1c-.3-.2-.5-.3-.8-.3h-1.4v.3c-.1 0 0 .1 0 .2l-.1.3v.4l-.1.2-.1-.1c0-.1.1-.1 0-.2l-.4.2-.1.2-.1.2-.2.1c0 .1 0 .3-.2.4 0 0-.1 0 0 0l-.2.2c-.2-.3-.4-.5-.5-.8l.2-.2h.1l.2-.2h.1v.2c.1 0 .2.2.3 0l.1-.1.1-.3.1-.3.3-.4.1-.2v-.1l-.2-.1v-.6s.1-.1 0-.2l-.2-.2s0 .1 0 0h-.1l-.1.2v.3h.4l-.3.2-.1.2v.2l-.1.3-.2.2h-.2l.2-.1c-.2 0-.1-.2-.2-.2h-.3l-.2.1s-.1.1-.2 0h-.2l-.2.1h-.6s0-.1-.1 0h-.2v.1h-.4v-.1c.2-.2.4-.1.5-.3v-.4l.3-.5.1-.1h.4l.3.2h.1l.1-.1c0-.1-.1-.2 0-.2l.2.2c.1 0 0 .1 0 .2h-.1v.2l-.2.3h.3l.1-.2v-.3l.1.2.1.4h.5v-.5c0-.2.2-.3.1-.5v-.3h.7v-.1c.2 0 .2-.2.3-.3h-.2c-.1-.2-.3-.2-.5-.1l-.1.1c-.1 0 0-.1 0-.2l.2-.2.2-.3h.2c.2 0 0-.3.2-.4l.1-.2h.4l.6-.3h.2c0-.2.2-.3.3-.4l.1-.2s.1 0 0-.1v-.4c-.1 0 0-.2 0-.2V22h.3v-.1l-.3-.1h-.1v.2H36v-.4l1-.1v.3m4.6 10.7.2-.2v.1c.1.1 0 .2 0 .2l-.2-.1m-.4 1.3-.2.2.2-.2-.1-.2.1-.2h.1V33l.1-.2v.2h.3s.2 0 .2-.2h.4c.1-.1.3 0 .4 0 0 .1.1.2 0 .2-.1.2-.3.2-.5.2l-.3.1-.2.1-.3.3-.2.1m-3.6-17.4c2.4.1 4.7 1 6.4 2.7l-.1.1h-.1l-.2-.1h-.1c0-.1.1-.2 0-.2l-.4.1-.3.4h-.1l-.2.2v.1c.1 0 .2.1.2 0 0 .1 0 .2.2.2l.3-.2v.1l-.8.9s-.1-.1-.2 0l-.2.1-.4.3-.2.2h-.1l-.1.3v.2l-.2.1h-.2c-.1 0-.3.1-.4 0l-.2-.2-.3-.2-.4-.1s-.3 0-.4.2h-.4l.2-.2.1-.1c.2-.2.3-.2.5-.2l.3-.2c.2-.1.1-.3.2-.4v-.3l-.2-.2-.3.2c0 .1-.3 0-.3.2l-.4.4v.1l-1.2-.1v-4.4zm0-5.2c3.8.1 7.4 1.6 10.1 4.2l-3.1 3.1c-1.9-1.7-4.4-2.7-7-2.8v-4.5zm7.5 1.1h.6c.2.1.1.3.3.3v-.1h.2v.3c.2 0 .2.2.3.3v.2l-1.6-1h.2m-7.5-4.2.2-.2.3-.1v-.2H38c-.1 0-.3 0-.3-.2V5.9c3 .1 5.9.8 8.6 2.1h-.2c.1.2 0 .3 0 .4h-.2v.2c-.1 0 0 .1 0 .2h.1v-.2l.1.2.3.1c0 .2.2.2.3.3.1 0 0 .3.2.4l.1.4v.4l.4.2v.1c.2 0 .1.1.1.2v.3c-.1 0 0 .2 0 .2v.3l.2.2v.2l.1.4.2.1.4-.1.1-.2c.2 0 .4-.2.6 0l.2.1.4.6v.2l-1 1.2c-.2 0-.2-.2-.2-.2v-.3h.2v-.3l-.1-.2-.2.2v.1l-.1-.3-.1-.2v-.1c-.1-.1 0-.3-.2-.4l-.4-.3h-.3c-.2 0-.2-.1-.3-.2 0 0 0-.2-.2-.2l-.2-.4-.3-.2c0-.2-.2-.2-.2-.3h-.4l.2.4.3.4.1.3H46l-.1-.3-.2-.2h-.1v-.1l-.1-.2h-.2l-.2.2.2.1h.1v.1h-.2c-.2 0-.3-.1-.4 0v.2c-.1 0 0-.2-.2-.2v-.2c-.2 0-.2.1-.3.2v.1c-2.1-1.1-4.4-1.6-6.7-1.7V8.1zm0-3.6h.5c.2 0 .4 0 .4.2l.3.1h.3c.1 0 .1.3.3.3h.6V5l-.3-.2-.2-.3v-.4c-.2 0-.2-.2-.2-.2h.2l.6.3.4-.2c.2 0 .4 0 .6-.2h.9v-.2h.6l-.2-.2c0-.1-.2 0-.2-.2h-.3l-.2-.1-.4-.1H41l-.3.2-.6.2c-.1 0-.2 0-.3.2h-.4v.2l-.1-.1-.3-.1-.6.1-.2.2h-.3l-.3.2V.7a26 26 0 0 1 17.5 7.2l-2.7 2.7v-.2c-.2 0-.2-.2-.3-.2-.1 0-.3 0-.4-.2v-.2l-.2-.3v-.2c-.2-.2-.4-.3-.5-.6l-.3-.3-.5-.3H50c0-.2-.2-.3-.3-.5h-.3l-.4-.1c-.3-.1-.5-.3-.8-.2-.2.1-.5 0-.6.2l-.3.1c-3-1.6-6.2-2.5-9.6-2.5l-.1-.6c.1.1 0 0 0 0zm11.6 12.4s-.1 0 0 0l.1.3c.5.5.9 1.1 1.3 1.7-.1.1-.4 0-.4.2v.3l-.2.2v.2h.3l.3.2h.3c0 .2.1.3.2.3l.3.2.5 1.6v.6l-.2.3-.2.2-.1.3-.3.4h-.6l.1-.4.1-.3.2-.3s-.1-.1 0-.2v-.3h-.2c-.1-.2-.1-.3-.3-.3-.1-.1-.3-.2-.5-.2h-.2l-.4.4v.1c-.2.1-.2.4-.4.4l-.3-.3-.1-.2v-.2h.1v.2l.1.2.4-.1v-.2c-.2-.1-.3-.3-.5-.2-.1 0 0-.2-.2-.2h-.1l-.1-.2-.1-.3-.1-.1c-.1-.2-.3-.3-.5-.3l-.4-.1-.2-.1h-.4l-.8-1h.3s.2 0 .1-.1c0-.2-.3 0-.3-.2l-.1.2-.6-.7 3.1-3.1 1 1.1m2.5-6.2h.4l-.5.2.1-.2m-1.3 4.4.3.1V15h.5v.3c0 .2.3.3.4.5l.5.2c0 .1.3.1.3.3.1 0 .3 0 .3.2.1 0 .1.1.2 0h.3l.3.3.2.2.1.1.4.5.1.2.3.3.2.1v.3h.5l.3-.1.3-.1.1-.2c1.1 2.5 1.7 5.1 1.8 7.8h-4.5c0-.8 0-1.6-.2-2.3l.2-.4.1-.4V22c-.2 0-.4.2-.5.4l-.2.1v.3l-.2.3v.2c0 .2-.1.2-.2.3v.3l-.2.3v.8c.2 0 .3-.1.4 0v.9h-3.1v-.3h.3c0-.1.1-.2.3-.2 0-.1.3-.1.3-.4-.1-.1-.1-.3-.1-.4l.2-.1.3-.1h.2l.6-.1s.2 0 .2-.2V24l.2-.3c.2 0 .4-.3.4-.4l.2-.4v-.3h.1v-.2l.1-.2V22l.3-.1v-.2l-.3-.1c.2 0 .1-.2.1-.2v-.2h-.3c-.1-.1 0-.2 0-.4v-.4l-.1-.2-.1-.4v-.1c0-.2-.3-.3-.4-.5-.2-.1-.3 0-.3-.2l-.2-.3v-.1l.3-.2v-.2h-.5l.1-.1v-.5l-.1-.2-.3.1h-.2l-.1-.3-.2-.3v-.3c0-.2-.3 0-.3-.3l-.3-.4-.3-.2h-.1s-.2 0-.1-.1v-.5l-.1-.1H49l.7-.8c.2.1.3.3.3.4.1.2.3 0 .4.2v.1h-.1m-6 4.8.1-.2h.2l-.1.3v.1c.1.1.2 0 .4 0l.2.3-.1.1.2.2h.1l.3.5h-.2v.5l-.4-.1-.1.1v.3l.2.4h-.3c0-.2-.2-.2-.3-.3h.5v-.3l-.2-.2v-.3l.1-.1c0-.1 0-.3.2-.3v-.1c0-.1 0-.3-.2-.3h-.4l-.2.3-.3.2h-.4v-.2l.5-.5h.5v-.3m-1.2 11.6h1l.3.3v.2c-.2 0-.1.2-.3.2l-.2-.2-.1-.2h-.8v-.2c-.1-.2-.2-.3 0-.4 0 0 0-.1.1 0h.1l-.1.3m4.2 3.9-.2.3-.1.2v.3h-.7l-.4.2h-.4l-.2-.2H45l-.4-.1s-.3 0-.4-.2H44l-.3-.2-.3-.1-.5-.1v-.2h.5l-.2-.2.2-.1.2.4h.5l.6.3h.5l.3.1h.1l.3.2.4.1.6-.1.1-.1v-.2l.2-.2.1-.2.1-.4.1-.1v-.4l.1-.4.1-.2.1-.2v-.9c-.1-.1-.2-.2-.2-.3v-.2h-.4l-.4.1-.2.1v.2l-.2.1c0 .2 0 .3-.2.4H46l-.2.2-.5-.1v-.2l.3-.1h.4s.2 0 .3-.2l.1-.3.2-.2h.4l.3-.5.1-.1.2-.3.1-.3c.1-.1.3-.2.3-.4v-.3l.1-.2.1.1v.4h.4l.2-.1v-.2c.1 0 0-.2.2-.2h.2c.1.2.3.2.5.1.1 0 .3 0 .4-.2.3 0 .5 0 .7-.2h.6v-.1c.1-.2 0-.3 0-.4l-.1-.2H51c-.1-.2-.3-.2-.3-.4l-.3-.1c0-.2-.2 0-.3-.1l-.1-.3v-.2c-.1-.2-.4-.3-.4-.5l-.1-.3V27l-.3-.3v-.1h3.2c0 3.7-1.5 7.3-4 10v-.8l-.2-.4v-.3l-.2-.3h-.3l-.2.4-.1.1m1 7.8c0-.2.1-.2.2-.3v-.6h-.1c0-.2 0-.3-.2-.4l.2-.3.3-.4.1-.2.2-.3h.1v-.4l-.3-.3-.2-.3-.2-.1-.2-.1c-.2 0-.3-.2-.4-.3v-.6l.1-.2v-.2c.2 0 .3-.2.4-.3l1 1.1c0 .2-.2 0-.2.2v.1l.3-.1V39l.6.5v.4l.2.3v.2l.2.3h.2l.3.1h.2l.3.3-3.1 2.5v-.5m3.5-3.2-.1-.5-.1-.4c0-.2 0-.4-.2-.6V38l-.3-.1c-.1 0-.3-.2-.5-.1h-.1v.3l-.1.6h-.1L49 37.4a16 16 0 0 0 4.3-10.8h4.5c-.1 5.2-2.1 10.3-5.8 14l-.2-.3.1-.4m6.6-27.8c2.8 4.1 4.4 8.9 4.5 13.8h-4.4c-.1-2.9-.8-5.8-2-8.4l.2-.1v-.7l-.2-.1-.1-.4c0-.1-.2-.1-.2-.3l-.3-.2-.2-.4-.3-.4s0-.2-.2-.2c-.1-.2 0-.4-.2-.4s-.3-.2-.4-.3l-.1-.2c-.2-.1-.3-.2-.4-.3 0-.2-.2-.4-.3-.5l-.4-.3-.4-.4-.5-.6v-.1l3-3c1.2 1 2.1 2.2 2.9 3.5m3.2 4A26.8 26.8 0 0 0 26.6 2.2c-6.2 2.7-11.2 7.7-13.9 13.9a25.7 25.7 0 0 0 2.5 25c2.9 4.3 7 7.7 11.8 9.7 11.7 5.1 25.4 1 32.4-9.6 5-7.4 5.9-16.8 2.3-25.1M81.8 24h4.1v25c0 5.6 3.5 8.5 7.9 8.5 4.3 0 7.8-3 7.8-8.5V24h4v25c0 7.8-4.8 12.5-11.8 12.5-7.1 0-12-4.7-12-12.5V24zm55.4 37h-4.1l-15.7-29.1V61h-4.1V24h4.1l15.7 29.1V24h4.1v37zm11.7-32.9V57h7.9c4.3 0 7.8-3 7.8-8.5v-12c0-5.6-3.5-8.4-7.8-8.5l-7.9.1zm7.9-4c7 0 11.9 4.7 11.9 12.4v12c0 7.7-4.9 12.5-12 12.5h-11.9V24l12 .1zm63.2 4h-8.4v12.3h8.5c4.2 0 6.5-2.7 6.5-6.2 0-3.6-2.3-6.1-6.5-6.1m-8.5 16.2V61h-4V24H220c7.9 0 10.7 5.3 10.7 10.2 0 4.5-2.4 9.1-8.7 10l9.9 16.8h-4.7l-9.9-16.8h-5.8l.1.1zm-23-16.2h-8.5v12.3h8.5c4.2 0 6.5-2.7 6.5-6.2 0-3.6-2.3-6.1-6.5-6.1m-8.5 16.2V61h-4V24h12.5c7.9 0 10.7 5.3 10.7 10.2 0 4.5-2.4 9.1-8.7 10l9.9 16.8h-4.7l-9.9-16.8h-5.8v.1zm73.9-18v8.8c0 1.4-.4 2.4-1 3s-1.8 1.1-3.2 1.1c-1.4 0-2.4-.3-3.1-1s-1.1-1.8-1.1-3.1v-8.8h2.6v8.8c0 .7.1 1.2.3 1.6s.7.4 1.3.4 1-.1 1.3-.4.3-.8.3-1.6v-8.8h2.6zm4.1 3.3v.9c.6-.7 1.4-1.1 2.3-1.1 1.6 0 2.5 1.1 2.5 3.4v6.3h-2.5v-6c0-.6 0-1-.2-1.3s-.5-.3-.9-.3-.8.2-1 .7v6.9h-2.5v-9.5h2.3zm6.6-2.5c0-.4 0-.7.3-1s.6-.3 1-.3.8.1 1 .3.4.6.4 1-.1.7-.4 1-.6.3-1 .3-.7-.1-1-.3-.3-.6-.3-1zm2.6 12h-2.5v-9.5h2.5v9.5zm4.7-11.9v2.4h1.3v1.8h-1.2v4.7l.1.8c.1.2.3.2.6.2h.6V39c-.4.2-.9.2-1.4.2-1.6 0-2.4-.9-2.4-2.7v-5h-1.1v-2h1v-2.3h2.6-.1zm6.5 12.1c-1.2 0-2.2-.4-3-1.2s-1-1.8-1-3.3v-.7c0-1.5.3-2.7 1-3.5s1.6-1.2 2.8-1.2c1.2 0 2 .4 2.7 1.1.6.8.9 2 .9 3.4v1.3h-5c0 .7.2 1.2.5 1.5s.7.5 1.3.5c.8 0 1.5-.3 2-.9l1 1.5c-.2.5-.7.8-1.3 1s-1.2.5-1.9.5zm-1.5-5.9h2.5v-.2c0-.6-.1-1-.3-1.3s-.5-.5-1-.5-.7.2-.9.5c-.2.3-.3.8-.3 1.5zm6 .6c0-1.5.2-2.7.7-3.5s1.3-1.1 2.4-1.1c.7 0 1.3.3 1.8 1v-4.8h2.5v13.5H288v-1c-.6.8-1.3 1.2-2 1.2-1 0-1.8-.4-2.3-1.2s-.8-1.9-.8-3.3V34h.1zm2.4.6c0 1 .2 1.6.4 2s.5.6 1 .6c.4 0 .8-.3 1-.7v-4.3c-.2-.5-.5-.7-1-.7s-.8.1-1 .5c-.2.4-.4 1-.4 2v.6zm20 4.5h-2.6l-3.8-8.5V39h-2.5V26.3h2.5l3.8 8.4v-8.4h2.6v12.8zm6.4 0-.2-.8c-.4.6-1 1-1.8 1s-1.4-.3-2-.9-.8-1.2-.8-2c0-1 .4-1.8 1-2.3s1.5-.8 2.7-.8h.8v-.8c0-.4 0-.7-.2-1s-.4-.2-.7-.2c-.6 0-.9.4-.9 1.1h-2.5c0-.9.4-1.6 1-2.2s1.5-.8 2.5-.8 1.9.3 2.4.8.9 1.3.9 2.3V37c0 .8.1 1.4.3 1.9v.2h-2.5zm-1.4-1.8c.3 0 .5 0 .7-.2l.4-.4v-2h-.6c-.4 0-.7.2-1 .4s-.4.7-.4 1.1c0 .8.3 1.1.9 1.1zm8.3-10.1v2.4h1.2v1.8h-1.2v4.7l.1.8c.1.2.3.2.6.2h.6V39c-.4.2-.9.2-1.4.2-1.6 0-2.4-.9-2.4-2.7v-5H315v-2h1v-2.3h2.7zm2.6-.1c0-.4.1-.7.4-1s.5-.3 1-.3.7.1 1 .3.3.6.3 1-.1.7-.4 1-.5.3-1 .3-.7-.1-1-.3-.3-.6-.3-1zm2.6 12h-2.5v-9.5h2.5v9.5zm1.6-5.1c0-1.4.4-2.6 1-3.4s1.7-1.2 2.9-1.2 2.1.4 2.8 1.2 1 2 1 3.4v.6c0 1.5-.3 2.6-1 3.4s-1.6 1.2-2.8 1.2c-1.2 0-2.2-.4-2.9-1.2s-1-2-1-3.4V34zm2.5.6c0 1.7.5 2.6 1.4 2.6.8 0 1.3-.7 1.3-2.1V34c0-.9 0-1.5-.3-2s-.6-.6-1-.6c-.5 0-.8.2-1 .7-.2.5-.4 1-.4 1.9v.6zm9-5v.9c.6-.7 1.4-1.1 2.3-1.1 1.6 0 2.5 1.1 2.5 3.4v6.3h-2.5v-6c0-.6 0-1-.2-1.3s-.5-.3-.9-.3-.8.2-1 .7v6.9h-2.5v-9.5h2.3zm10.8 7c0-.3-.1-.5-.3-.7l-1.4-.7c-1-.4-1.7-.8-2-1.3s-.6-1-.6-1.6c0-.9.3-1.6.9-2.1s1.4-.8 2.3-.8c1 0 2 .3 2.5.8s1 1.3 1 2.2h-2.5c0-.8-.3-1.2-1-1.2-.2 0-.5 0-.6.3-.1.3-.3.4-.3.7 0 .2.1.4.3.5l1.3.7c1 .4 1.8.8 2.2 1.3s.6 1 .6 1.7c0 .9-.3 1.6-1 2s-1.4.9-2.5.9c-.7 0-1.3-.2-1.8-.5s-1-.6-1.3-1-.4-1.1-.4-1.7h2.4c0 .5 0 .8.3 1s.5.4.9.4c.7 0 1-.4 1-.9zm17.2-2.8c0 1.8-.4 3-1.2 4s-2 1.5-3.4 1.5-2.6-.5-3.4-1.5-1.2-2.2-1.2-4v-2.1c0-1.8.4-3.1 1.2-4.1s2-1.5 3.4-1.5 2.5.5 3.4 1.4 1.2 2.4 1.2 4.1v2.2zm-2.6-2.1c0-1.2-.1-2-.5-2.6s-.8-.8-1.5-.8-1.2.2-1.5.8-.5 1.3-.5 2.4v2.3c0 1.1.1 2 .5 2.5s.8.8 1.5.8 1.2-.3 1.5-.8.5-1.3.5-2.4v-2.2zm4.9 7.4v-7.7H366v-1.8h1.2v-1c0-1 .3-1.9.8-2.4s1.3-1 2.3-1l1.1.3v2l-.6-.1c-.8 0-1.1.4-1.1 1.3v.8h1.5v1.8h-1.5V39h-2.5l.1.1zm5.9 0v-7.7H372v-1.8h1.2v-1c0-1 .3-1.9.8-2.4s1.3-1 2.3-1l1 .3v2l-.5-.1c-.8 0-1.2.4-1.2 1.3v.8h1.5v1.8h-1.5V39l-2.4.1zm5.3-12c0-.4.1-.7.4-1s.5-.3 1-.3.7.1 1 .3.3.6.3 1-.1.7-.4 1-.5.3-1 .3-.7-.1-1-.3-.3-.6-.3-1zm2.6 12h-2.5v-9.5h2.5v9.5zm5.3-1.9c.8 0 1.1-.5 1.1-1.4h2.4c0 1-.4 1.8-1 2.5s-1.4 1-2.4 1c-1.2 0-2.2-.4-2.8-1.2s-1-1.9-1-3.4V34c0-1.5.3-2.7 1-3.5s1.5-1.1 2.8-1.1c1 0 1.8.3 2.4 1s1 1.5 1 2.7h-2.4c0-.5 0-1-.2-1.2s-.5-.5-.9-.5-.7.2-.9.5c-.2.3-.3.9-.3 1.8v1l.1 1.6.4.7c.2.2.4.2.7.2zm8.7 2.1c-1.3 0-2.3-.4-3-1.2s-1-1.8-1-3.3v-.7c0-1.5.3-2.7 1-3.5s1.5-1.2 2.7-1.2 2.1.4 2.7 1.1c.6.8 1 2 1 3.4v1.3h-5c0 .7.2 1.2.5 1.5s.7.5 1.3.5c.8 0 1.5-.3 2-.9l1 1.5c-.3.5-.7.8-1.3 1s-1.2.5-1.9.5zm-1.6-5.9h2.5v-.2c0-.6 0-1-.3-1.3s-.4-.5-.9-.5-.7.2-1 .5c-.3.3-.2.8-.3 1.5zm11.1 5.7v-7.7h-1.2v-1.8h1.2v-1c0-1 .2-1.9.8-2.4.9-.8 2.2-1.1 3.4-.7v2l-.7-.1c-.7 0-1 .4-1 1.3v.8h1.4v1.8H407V39l-2.4.1zm5-5.1c0-1.4.3-2.6 1-3.4s1.6-1.2 2.8-1.2c1.2 0 2.2.4 2.8 1.2s1 2 1 3.4v.6c0 1.5-.3 2.6-1 3.4s-1.6 1.2-2.8 1.2c-1.2 0-2.1-.4-2.8-1.2-.7-.8-1-2-1-3.4V34zm2.5.6c0 1.7.4 2.6 1.3 2.6s1.3-.7 1.4-2.1V34c0-.9-.1-1.5-.4-2s-.5-.6-1-.6c-.4 0-.7.2-1 .7-.3.6-.4 1.3-.3 1.9v.6zm11.4-2.6-.8-.1c-.7 0-1.2.3-1.4.9v6.3h-2.5v-9.5h2.3l.1 1c.4-.8 1-1.2 1.6-1.2l.7.1V32zM245.7 60.6V48h3.4c1.4 0 2.6.4 3.5 1.4s1.4 2.2 1.4 3.9v2c0 1.7-.4 3-1.3 4-1 1-2.1 1.5-3.7 1.5h-3.3v-.2zm2.6-10.6v8.6h.7c.9 0 1.5-.2 1.9-.6.3-.5.5-1.3.5-2.4v-2.2c0-1.2-.2-2-.5-2.5s-.9-.7-1.7-.8h-1l.1-.1zm7.8-1.3c0-.4.2-.7.4-1s.6-.3 1-.3.7.1 1 .3.3.6.3 1 0 .7-.3 1-.6.3-1 .3-.8-.1-1-.4-.4-.5-.4-.9zm2.6 12h-2.4v-9.5h2.4v9.5zm6.6-2.6-.3-.6-1.4-.7c-1-.4-1.7-.8-2-1.3s-.6-1-.6-1.6c0-.9.3-1.6.9-2.1s1.4-.8 2.3-.8c1 0 2 .3 2.5.8s1 1.3 1 2.2h-2.5c0-.8-.3-1.2-1-1.2-.2 0-.5 0-.6.3s-.3.3-.3.6.1.4.3.6l1.3.7c1 .4 1.8.8 2.2 1.2s.6 1.1.6 1.8c0 .9-.3 1.6-1 2s-1.4.9-2.5.9c-.6 0-1.2-.2-1.8-.5-1-.5-1.7-1.5-1.7-2.7h2.4c0 .5 0 .8.3 1s.5.4.9.4c.7 0 1-.4 1-1zm8.9 2.5-.2-.7c-.5.6-1 1-1.8 1s-1.5-.3-2-.9-.8-1.2-.8-2c0-1 .3-1.8 1-2.3s1.5-.8 2.7-.8h.8v-.8c0-.4-.1-.7-.3-1s-.3-.2-.6-.2c-.6 0-1 .4-1 1.1h-2.4c0-.9.3-1.6 1-2.2.6-.5 1.5-.8 2.5-.8s1.8.3 2.4.8.9 1.3.9 2.3v4.5c0 .8 0 1.5.3 2h-2.5zm-1.5-1.7c.3 0 .5 0 .7-.2l.5-.4v-2h-.6c-.5 0-.8.2-1 .4s-.4.7-.4 1.1c0 .8.3 1.1.8 1.1zm10.1-.8-.3-.6-1.4-.7c-1-.4-1.7-.8-2-1.3s-.7-1-.7-1.6c0-.9.3-1.6 1-2.1.5-.5 1.3-.8 2.3-.8s2 .3 2.5.8 1 1.3 1 2.2h-2.5c0-.8-.3-1.2-1-1.2-.3 0-.5 0-.6.3s-.3.3-.3.6.1.4.3.6l1.3.7c1 .4 1.7.8 2.2 1.2s.6 1.1.6 1.8c0 .9-.3 1.6-1 2s-1.4.9-2.5.9c-.6 0-1.2-.2-1.8-.5-1-.5-1.7-1.5-1.7-2.7h2.3c0 .5.1.8.3 1s.5.4 1 .4c.6 0 1-.4 1-1zm7.2-9.3v2.4h1.3V53H290v4.7l.2.8c.1.2.3.2.6.2h.6v2l-1.4.2c-1.6 0-2.4-1-2.4-2.8v-5h-1.1v-2h1v-2.3h2.6-.1zm7 12.1c-1.3 0-2.3-.4-3-1.2s-1.1-1.8-1.1-3.3v-.7c0-1.5.3-2.7 1-3.5s1.6-1.2 2.8-1.2c1.2 0 2 .4 2.7 1.1s.9 2 .9 3.4v1.3h-5c0 .7.2 1.2.5 1.5s.7.5 1.3.5c.8 0 1.5-.3 2-.9l1 1.5c-.2.5-.7.8-1.3 1a4.14 4.14 0 0 1-1.8.5zm-1.6-5.9h2.5v-.2c0-.6-.1-1-.3-1.3s-.5-.5-1-.5-.7.2-.9.5-.3.8-.3 1.5zm11.4-1.4-.8-.1c-.7 0-1.1.3-1.4.9v6.2h-2.5v-9.5h2.4v1c.4-.8 1-1.2 1.7-1.2l.7.1v2.6h-.1zM317 56h-1.2v4.7h-2.6V47.9h4.1c1.3 0 2.3.3 3 1s1 1.6 1 2.9c0 1.7-.5 2.8-1.8 3.5l2.3 5.3H319l-2-4.6zm-1.2-2.2h1.4c.6 0 1-.1 1.2-.5.3-.3.4-.8.4-1.4 0-1.2-.5-1.9-1.5-1.9h-1.5v3.8zm7.6-5.1c0-.4.2-.7.4-1s.6-.3 1-.3.7.1 1 .3.4.6.4 1-.2.7-.4 1-.6.3-1 .3-.8-.1-1-.4-.4-.5-.4-.9zm2.7 12h-2.5v-9.5h2.5v9.5zm6.5-2.6c0-.2 0-.4-.3-.6l-1.3-.7c-1-.4-1.8-.8-2.2-1.3s-.5-1-.5-1.6c0-.9.3-1.6.9-2.1s1.4-.8 2.4-.8 1.8.3 2.5.8.9 1.3.9 2.2h-2.5c0-.8-.3-1.2-1-1.2-.2 0-.4 0-.6.3s-.3.3-.3.6.1.4.3.6l1.3.7c1 .4 1.8.8 2.2 1.2s.6 1.1.6 1.8c0 .9-.3 1.6-1 2s-1.4.9-2.4.9c-.7 0-1.3-.2-1.9-.5-1-.5-1.7-1.5-1.7-2.7h2.4c0 .5 0 .8.3 1s.5.3.9.3c.7 0 1-.3 1-.9zm7.5-1.1-.6.8v2.8H337V47.2h2.5v7.3l.3-.5 1.7-2.8h3l-2.8 3.9 3 5.6H342l-1.9-3.7zm14.5-1h-1.3v4.7h-2.6V47.9h4.1c1.3 0 2.3.3 3 1 .8.7 1.1 1.6 1.1 2.9 0 1.7-.6 2.8-1.8 3.5l2.2 5.3h-2.8l-1.9-4.6zm-1.3-2.2h1.5c.5 0 .9-.1 1.1-.5.3-.3.4-.8.4-1.4 0-1.2-.5-1.9-1.5-1.9h-1.5v3.8zm11.5 7.1c-1.3 0-2.3-.4-3-1.2s-1-1.8-1-3.3v-.7c0-1.5.3-2.7 1-3.5s1.5-1.2 2.7-1.2 2.1.4 2.7 1.1 1 2 1 3.4v1.3h-5c0 .7.2 1.2.5 1.5s.7.5 1.3.5c.8 0 1.5-.3 2-.9l1 1.5c-.3.5-.7.8-1.3 1-.6.3-1.2.5-1.9.5zm-1.6-5.9h2.5v-.2c0-.6 0-1-.3-1.3s-.4-.5-.9-.5-.7.2-1 .5-.2.8-.3 1.5zm6.4.6c0-1.5.3-2.7.8-3.5s1.3-1.1 2.3-1.1c.8 0 1.4.3 1.9 1v-4.8h2.5v13.4h-2.3l-.1-1c-.5.8-1.2 1.2-2 1.2-1 0-1.7-.4-2.3-1.2s-.7-1.9-.7-3.3l-.1-.7zm2.5.7c0 .9.1 1.5.3 2 .3.3.6.5 1 .5.6 0 1-.3 1.2-.7v-4.3c-.3-.5-.6-.7-1.1-.7s-.8.1-1 .5-.4 1-.4 2v.7zm11.9 3.5c-.5.7-1.2 1-2 1-1 0-1.6-.3-2-.9s-.7-1.4-.7-2.6v-6.1h2.4v6.2c0 1 .4 1.4 1 1.4.5 0 1-.3 1.2-.8v-6.8h2.5v9.4h-2.3l-.1-.8zm8-1c.7 0 1.1-.5 1.1-1.4h2.4c0 1-.4 1.9-1 2.5s-1.4 1-2.4 1c-1.2 0-2.2-.4-2.8-1.2s-1-1.9-1-3.4v-.7c0-1.5.3-2.7 1-3.5s1.5-1.1 2.8-1.1c1 0 1.8.3 2.4 1 .7.7 1 1.7 1 2.7H393c0-.5 0-1-.2-1.2s-.5-.5-.9-.5-.7.2-.9.5c-.2.3-.3.9-.3 1.8v1l.1 1.6c0 .3.2.5.4.7l.7.2h.1zm8.2-10v2.4h1.3V53h-1.3v4.7l.1.8c.1.2.3.2.6.2h.6v2l-1.4.2c-1.6 0-2.4-1-2.4-2.8v-5h-1.1v-2h1v-2.3h2.6zm3-.1c0-.4.2-.7.4-1s.6-.3 1-.3.7.1 1 .3.3.6.3 1 0 .7-.3 1c-.3.2-.6.3-1 .3s-.8-.1-1-.4-.4-.5-.4-.9zm2.6 12h-2.5v-9.5h2.5v9.5zm2.1-5.1c0-1.4.3-2.6 1-3.4s1.6-1.2 2.8-1.2c1.2 0 2.2.4 2.9 1.2s1 2 1 3.4v.6c0 1.5-.4 2.6-1 3.4s-1.6 1.3-2.9 1.3c-1.2 0-2.1-.5-2.8-1.3-.7-.8-1-2-1-3.4v-.6zm2.5.6c0 1.7.4 2.6 1.3 2.6s1.3-.7 1.4-2.2v-1c0-.7-.1-1.4-.4-2-.2-.4-.5-.6-1-.6-.4 0-.7.2-1 .7-.3.6-.4 1.3-.3 1.9v.6zm9.4-5v.9c.6-.7 1.4-1.1 2.3-1.1 1.6 0 2.5 1.1 2.5 3.4v6.3h-2.5v-6c0-.6 0-1-.2-1.3-.2-.2-.5-.3-.9-.3s-.8.2-1 .7v6.8h-2.5v-9.5l2.3.1z" class="st0"/>
</svg>
