<svg id="arrow-up" width="24" height="25" viewBox="0 0 24 25" fill="none" xmlns="http://www.w3.org/2000/svg">
<path d="M2.63574 14.5585L1.59512 13.5179C1.15449 13.0772 1.15449 12.3647 1.59512 11.9288L10.7029 2.81631C11.1436 2.37568 11.8561 2.37568 12.292 2.81631L21.3998 11.9241C21.8404 12.3647 21.8404 13.0772 21.3998 13.5132L20.3592 14.5538C19.9139 14.9991 19.1873 14.9897 18.7514 14.5351L13.3748 8.89131V22.3632C13.3748 22.9866 12.8732 23.4882 12.2498 23.4882H10.7498C10.1264 23.4882 9.62481 22.9866 9.62481 22.3632V8.89131L4.24356 14.5397C3.80762 14.9991 3.08106 15.0085 2.63574 14.5585Z" fill="currentColor"/>
</svg>
