<svg id="arrow-down" width="24" height="25" viewBox="0 0 24 25" fill="none" xmlns="http://www.w3.org/2000/svg">
<path d="M20.3639 11.418L21.4045 12.4586C21.8451 12.8992 21.8451 13.6117 21.4045 14.0477L12.2967 23.1602C11.8561 23.6008 11.1436 23.6008 10.7076 23.1602L1.59512 14.0477C1.15449 13.607 1.15449 12.8945 1.59512 12.4586L2.63574 11.418C3.08106 10.9727 3.80762 10.982 4.24356 11.4367L9.62481 17.0852V3.61328C9.62481 2.98984 10.1264 2.48828 10.7498 2.48828H12.2498C12.8732 2.48828 13.3748 2.98984 13.3748 3.61328V17.0852L18.7561 11.4367C19.192 10.9773 19.9186 10.968 20.3639 11.418Z" fill="currentColor"/>
</svg>
