<svg id="arrow-right" width="24" height="25" viewBox="0 0 24 25" fill="none" xmlns="http://www.w3.org/2000/svg">
<path d="M9.92969 4.12402L10.9703 3.0834C11.4109 2.64277 12.1234 2.64277 12.5594 3.0834L21.6719 12.1912C22.1125 12.6318 22.1125 13.3443 21.6719 13.7803L12.5594 22.8928C12.1187 23.3334 11.4062 23.3334 10.9703 22.8928L9.92969 21.8522C9.48437 21.4068 9.49375 20.6803 9.94844 20.2443L15.5969 14.8631H2.125C1.50156 14.8631 1 14.3615 1 13.7381V12.2381C1 11.6147 1.50156 11.1131 2.125 11.1131H15.5969L9.94844 5.73184C9.48906 5.2959 9.47969 4.56934 9.92969 4.12402Z" fill="currentColor"/>
</svg>
