<svg id="arrow-left" width="24" height="25" viewBox="0 0 24 25" fill="none" xmlns="http://www.w3.org/2000/svg">
<path d="M13.0702 21.8522L12.0296 22.8928C11.589 23.3334 10.8765 23.3334 10.4405 22.8928L1.32803 13.785C0.887402 13.3443 0.887402 12.6318 1.32803 12.1959L10.4405 3.0834C10.8811 2.64277 11.5936 2.64277 12.0296 3.0834L13.0702 4.12402C13.5155 4.56934 13.5061 5.2959 13.0515 5.73184L7.40302 11.1131H20.8749C21.4983 11.1131 21.9999 11.6147 21.9999 12.2381V13.7381C21.9999 14.3615 21.4983 14.8631 20.8749 14.8631H7.40302L13.0515 20.2443C13.5108 20.6803 13.5202 21.4068 13.0702 21.8522Z" fill="currentColor"/>
</svg>
