<svg id="close" width="24" height="25" viewBox="0 0 24 25" fill="none" xmlns="http://www.w3.org/2000/svg">
<path d="M18.3002 6.69801C17.9102 6.30801 17.2802 6.30801 16.8902 6.69801L12.0002 11.578L7.11022 6.68801C6.72022 6.29801 6.09021 6.29801 5.70021 6.68801C5.31021 7.07801 5.31021 7.70801 5.70021 8.09801L10.5902 12.988L5.70021 17.878C5.31021 18.268 5.31021 18.898 5.70021 19.288C6.09021 19.678 6.72022 19.678 7.11022 19.288L12.0002 14.398L16.8902 19.288C17.2802 19.678 17.9102 19.678 18.3002 19.288C18.6902 18.898 18.6902 18.268 18.3002 17.878L13.4102 12.988L18.3002 8.09801C18.6802 7.71801 18.6802 7.07801 18.3002 6.69801Z" fill="currentColor"/>
</svg>
