<svg id="download" width="24" height="24" viewBox="0 0 24 24" fill="none" xmlns="http://www.w3.org/2000/svg">
<path d="M16.5895 9H14.9995V4C14.9995 3.45 14.5495 3 13.9995 3H9.99951C9.44951 3 8.99951 3.45 8.99951 4V9H7.40951C6.51951 9 6.06951 10.08 6.69951 10.71L11.2895 15.3C11.6795 15.69 12.3095 15.69 12.6995 15.3L17.2895 10.71C17.9195 10.08 17.4795 9 16.5895 9ZM4.99951 19C4.99951 19.55 5.44951 20 5.99951 20H17.9995C18.5495 20 18.9995 19.55 18.9995 19C18.9995 18.45 18.5495 18 17.9995 18H5.99951C5.44951 18 4.99951 18.45 4.99951 19Z" fill="currentColor"/>
</svg>
