<svg id="envelope" width="24" height="25" viewBox="0 0 24 25" fill="none" xmlns="http://www.w3.org/2000/svg">
<g clip-path="url(#clip0_163_16550)">
<path d="M8.25 11.1134H15.75C16.1644 11.1134 16.5 10.7778 16.5 10.3634V9.61343C16.5 9.19906 16.1644 8.86343 15.75 8.86343H8.25C7.83563 8.86343 7.5 9.19906 7.5 9.61343V10.3634C7.5 10.7778 7.83563 11.1134 8.25 11.1134ZM7.5 14.8634C7.5 15.2778 7.83563 15.6134 8.25 15.6134H15.75C16.1644 15.6134 16.5 15.2778 16.5 14.8634V14.1134C16.5 13.6991 16.1644 13.3634 15.75 13.3634H8.25C7.83563 13.3634 7.5 13.6991 7.5 14.1134V14.8634ZM12 20.5414C11.2303 20.5414 10.4606 20.3042 9.80344 19.8294L0 12.7475V22.7384C0 23.9811 1.00734 24.9885 2.25 24.9885H21.75C22.9927 24.9885 24 23.9811 24 22.7384V12.7475L14.1966 19.8294C13.5394 20.3038 12.7697 20.5414 12 20.5414ZM23.138 8.62671C22.7231 8.3014 22.3298 7.99531 21.75 7.5575V5.48843C21.75 4.24577 20.7427 3.23843 19.5 3.23843H15.8648C15.7223 3.1353 15.5897 3.03874 15.4411 2.93093C14.6531 2.35577 13.0875 0.97202 12 0.988426C10.9125 0.97202 9.34734 2.35577 8.55891 2.93093C8.41031 3.03874 8.27766 3.1353 8.13516 3.23843H4.5C3.25734 3.23843 2.25 4.24577 2.25 5.48843V7.5575C1.67016 7.99484 1.27688 8.3014 0.862031 8.62671C0.593512 8.83715 0.376366 9.1059 0.227022 9.41263C0.0776778 9.71936 4.62097e-05 10.056 0 10.3972L0 10.8964L4.5 14.1472V5.48843H19.5V14.1472L24 10.8964V10.3972C24 9.70625 23.6822 9.05328 23.138 8.62671Z" fill="currentColor"/>
</g>
<defs>
<clipPath id="clip0_163_16550">
<rect width="24" height="24" fill="white" transform="translate(0 0.988281)"/>
</clipPath>
</defs>
</svg>
