<svg id="error" width="24" height="25" viewBox="0 0 24 25" fill="none" xmlns="http://www.w3.org/2000/svg">
<path d="M4.47012 21.988H19.5301C21.0701 21.988 22.0301 20.318 21.2601 18.988L13.7301 5.97797C12.9601 4.64797 11.0401 4.64797 10.2701 5.97797L2.74012 18.988C1.97012 20.318 2.93012 21.988 4.47012 21.988ZM12.0001 14.988C11.4501 14.988 11.0001 14.538 11.0001 13.988V11.988C11.0001 11.438 11.4501 10.988 12.0001 10.988C12.5501 10.988 13.0001 11.438 13.0001 11.988V13.988C13.0001 14.538 12.5501 14.988 12.0001 14.988ZM13.0001 18.988H11.0001V16.988H13.0001V18.988Z" fill="currentColor"/>
</svg>
