<svg id="expand" width="24" height="25" viewBox="0 0 24 25" fill="none" xmlns="http://www.w3.org/2000/svg">
<path d="M1 9.42578V3.61328C1 2.98984 1.50156 2.48828 2.125 2.48828H7.9375C8.24687 2.48828 8.5 2.74141 8.5 3.05078V4.92578C8.5 5.23516 8.24687 5.48828 7.9375 5.48828H4V9.42578C4 9.73516 3.74688 9.98828 3.4375 9.98828H1.5625C1.25313 9.98828 1 9.73516 1 9.42578ZM14.5 3.05078V4.92578C14.5 5.23516 14.7531 5.48828 15.0625 5.48828H19V9.42578C19 9.73516 19.2531 9.98828 19.5625 9.98828H21.4375C21.7469 9.98828 22 9.73516 22 9.42578V3.61328C22 2.98984 21.4984 2.48828 20.875 2.48828H15.0625C14.7531 2.48828 14.5 2.74141 14.5 3.05078ZM21.4375 15.9883H19.5625C19.2531 15.9883 19 16.2414 19 16.5508V20.4883H15.0625C14.7531 20.4883 14.5 20.7414 14.5 21.0508V22.9258C14.5 23.2352 14.7531 23.4883 15.0625 23.4883H20.875C21.4984 23.4883 22 22.9867 22 22.3633V16.5508C22 16.2414 21.7469 15.9883 21.4375 15.9883ZM8.5 22.9258V21.0508C8.5 20.7414 8.24687 20.4883 7.9375 20.4883H4V16.5508C4 16.2414 3.74688 15.9883 3.4375 15.9883H1.5625C1.25313 15.9883 1 16.2414 1 16.5508V22.3633C1 22.9867 1.50156 23.4883 2.125 23.4883H7.9375C8.24687 23.4883 8.5 23.2352 8.5 22.9258Z" fill="currentColor"/>
</svg>
