<svg id="eye-hide" width="24" height="25" viewBox="0 0 24 25" fill="none" xmlns="http://www.w3.org/2000/svg">
<path d="M12 7.48828C15.79 7.48828 19.17 9.61828 20.82 12.9883C19.17 16.3583 15.8 18.4883 12 18.4883C8.2 18.4883 4.83 16.3583 3.18 12.9883C4.83 9.61828 8.21 7.48828 12 7.48828ZM12 5.48828C7 5.48828 2.73 8.59828 1 12.9883C2.73 17.3783 7 20.4883 12 20.4883C17 20.4883 21.27 17.3783 23 12.9883C21.27 8.59828 17 5.48828 12 5.48828ZM12 10.4883C13.38 10.4883 14.5 11.6083 14.5 12.9883C14.5 14.3683 13.38 15.4883 12 15.4883C10.62 15.4883 9.5 14.3683 9.5 12.9883C9.5 11.6083 10.62 10.4883 12 10.4883ZM12 8.48828C9.52 8.48828 7.5 10.5083 7.5 12.9883C7.5 15.4683 9.52 17.4883 12 17.4883C14.48 17.4883 16.5 15.4683 16.5 12.9883C16.5 10.5083 14.48 8.48828 12 8.48828Z" fill="currentColor"/>
<line x1="3.64645" y1="21.6054" x2="20.617" y2="4.63487" stroke="black"/>
</svg>
