<svg id="help-outline" width="24" height="25" viewBox="0 0 24 25" fill="none" xmlns="http://www.w3.org/2000/svg">
<path d="M11 18.9878H13V16.9878H11V18.9878ZM12 2.98779C6.48 2.98779 2 7.46779 2 12.9878C2 18.5078 6.48 22.9878 12 22.9878C17.52 22.9878 22 18.5078 22 12.9878C22 7.46779 17.52 2.98779 12 2.98779ZM12 20.9878C7.59 20.9878 4 17.3978 4 12.9878C4 8.57779 7.59 4.98779 12 4.98779C16.41 4.98779 20 8.57779 20 12.9878C20 17.3978 16.41 20.9878 12 20.9878ZM12 6.98779C9.79 6.98779 8 8.77779 8 10.9878H10C10 9.88779 10.9 8.98779 12 8.98779C13.1 8.98779 14 9.88779 14 10.9878C14 12.9878 11 12.7378 11 15.9878H13C13 13.7378 16 13.4878 16 10.9878C16 8.77779 14.21 6.98779 12 6.98779Z" fill="currentColor"/>
</svg>
