<svg id="information" width="24" height="25" viewBox="0 0 24 25" fill="none" xmlns="http://www.w3.org/2000/svg">
<path d="M11 7.98779H13V9.98779H11V7.98779ZM11 11.9878H13V17.9878H11V11.9878ZM12 2.98779C6.48 2.98779 2 7.46779 2 12.9878C2 18.5078 6.48 22.9878 12 22.9878C17.52 22.9878 22 18.5078 22 12.9878C22 7.46779 17.52 2.98779 12 2.98779ZM12 20.9878C7.59 20.9878 4 17.3978 4 12.9878C4 8.57779 7.59 4.98779 12 4.98779C16.41 4.98779 20 8.57779 20 12.9878C20 17.3978 16.41 20.9878 12 20.9878Z" fill="currentColor"/>
</svg>
