<svg id="link" width="24" height="25" viewBox="0 0 24 25" fill="none" xmlns="http://www.w3.org/2000/svg">
<path d="M3.9 12.9878C3.9 11.2778 5.29 9.88779 7 9.88779H11V7.98779H7C4.24 7.98779 2 10.2278 2 12.9878C2 15.7478 4.24 17.9878 7 17.9878H11V16.0878H7C5.29 16.0878 3.9 14.6978 3.9 12.9878ZM8 13.9878H16V11.9878H8V13.9878ZM17 7.98779H13V9.88779H17C18.71 9.88779 20.1 11.2778 20.1 12.9878C20.1 14.6978 18.71 16.0878 17 16.0878H13V17.9878H17C19.76 17.9878 22 15.7478 22 12.9878C22 10.2278 19.76 7.98779 17 7.98779Z" fill="currentColor"/>
</svg>
