<svg id="refresh" width="24" height="25" viewBox="0 0 24 25" fill="none" xmlns="http://www.w3.org/2000/svg">
<path d="M17.6498 7.33779C16.0198 5.70779 13.7098 4.76779 11.1698 5.02779C7.49978 5.39779 4.47978 8.37779 4.06978 12.0478C3.51978 16.8978 7.26978 20.9878 11.9998 20.9878C15.1898 20.9878 17.9298 19.1178 19.2098 16.4278C19.5298 15.7578 19.0498 14.9878 18.3098 14.9878C17.9398 14.9878 17.5898 15.1878 17.4298 15.5178C16.2998 17.9478 13.5898 19.4878 10.6298 18.8278C8.40978 18.3378 6.61978 16.5278 6.14978 14.3078C5.30978 10.4278 8.25978 6.98779 11.9998 6.98779C13.6598 6.98779 15.1398 7.67779 16.2198 8.76779L14.7098 10.2778C14.0798 10.9078 14.5198 11.9878 15.4098 11.9878H18.9998C19.5498 11.9878 19.9998 11.5378 19.9998 10.9878V7.39778C19.9998 6.50778 18.9198 6.05779 18.2898 6.68779L17.6498 7.33779Z" fill="currentColor"/>
</svg>
