<svg id="settings" width="24" height="25" viewBox="0 0 24 25" fill="none" xmlns="http://www.w3.org/2000/svg">
<path d="M19.4298 13.9678C19.4698 13.6478 19.4998 13.3278 19.4998 12.9878C19.4998 12.6478 19.4698 12.3278 19.4298 12.0078L21.5398 10.3578C21.7298 10.2078 21.7798 9.93779 21.6598 9.71779L19.6598 6.25779C19.5698 6.09779 19.3998 6.00779 19.2198 6.00779C19.1598 6.00779 19.0998 6.01779 19.0498 6.03779L16.5598 7.03779C16.0398 6.63779 15.4798 6.30779 14.8698 6.05779L14.4898 3.40779C14.4598 3.16779 14.2498 2.98779 13.9998 2.98779H9.99984C9.74984 2.98779 9.53984 3.16779 9.50984 3.40779L9.12984 6.05779C8.51984 6.30779 7.95984 6.64779 7.43984 7.03779L4.94984 6.03779C4.88984 6.01779 4.82984 6.00779 4.76984 6.00779C4.59984 6.00779 4.42984 6.09779 4.33984 6.25779L2.33984 9.71779C2.20984 9.93779 2.26984 10.2078 2.45984 10.3578L4.56984 12.0078C4.52984 12.3278 4.49984 12.6578 4.49984 12.9878C4.49984 13.3178 4.52984 13.6478 4.56984 13.9678L2.45984 15.6178C2.26984 15.7678 2.21984 16.0378 2.33984 16.2578L4.33984 19.7178C4.42984 19.8778 4.59984 19.9678 4.77984 19.9678C4.83984 19.9678 4.89984 19.9578 4.94984 19.9378L7.43984 18.9378C7.95984 19.3378 8.51984 19.6678 9.12984 19.9178L9.50984 22.5678C9.53984 22.8078 9.74984 22.9878 9.99984 22.9878H13.9998C14.2498 22.9878 14.4598 22.8078 14.4898 22.5678L14.8698 19.9178C15.4798 19.6678 16.0398 19.3278 16.5598 18.9378L19.0498 19.9378C19.1098 19.9578 19.1698 19.9678 19.2298 19.9678C19.3998 19.9678 19.5698 19.8778 19.6598 19.7178L21.6598 16.2578C21.7798 16.0378 21.7298 15.7678 21.5398 15.6178L19.4298 13.9678ZM17.4498 12.2578C17.4898 12.5678 17.4998 12.7778 17.4998 12.9878C17.4998 13.1978 17.4798 13.4178 17.4498 13.7178L17.3098 14.8478L18.1998 15.5478L19.2798 16.3878L18.5798 17.5978L17.3098 17.0878L16.2698 16.6678L15.3698 17.3478C14.9398 17.6678 14.5298 17.9078 14.1198 18.0778L13.0598 18.5078L12.8998 19.6378L12.6998 20.9878H11.2998L11.1098 19.6378L10.9498 18.5078L9.88984 18.0778C9.45984 17.8978 9.05984 17.6678 8.65984 17.3678L7.74984 16.6678L6.68984 17.0978L5.41984 17.6078L4.71984 16.3978L5.79984 15.5578L6.68984 14.8578L6.54984 13.7278C6.51984 13.4178 6.49984 13.1878 6.49984 12.9878C6.49984 12.7878 6.51984 12.5578 6.54984 12.2578L6.68984 11.1278L5.79984 10.4278L4.71984 9.58779L5.41984 8.37779L6.68984 8.88779L7.72984 9.30779L8.62984 8.62779C9.05984 8.30779 9.46984 8.06779 9.87984 7.89779L10.9398 7.46779L11.0998 6.33779L11.2998 4.98779H12.6898L12.8798 6.33779L13.0398 7.46779L14.0998 7.89779C14.5298 8.07779 14.9298 8.30779 15.3298 8.60779L16.2398 9.30779L17.2998 8.87779L18.5698 8.36779L19.2698 9.57779L18.1998 10.4278L17.3098 11.1278L17.4498 12.2578ZM11.9998 8.98779C9.78984 8.98779 7.99984 10.7778 7.99984 12.9878C7.99984 15.1978 9.78984 16.9878 11.9998 16.9878C14.2098 16.9878 15.9998 15.1978 15.9998 12.9878C15.9998 10.7778 14.2098 8.98779 11.9998 8.98779ZM11.9998 14.9878C10.8998 14.9878 9.99984 14.0878 9.99984 12.9878C9.99984 11.8878 10.8998 10.9878 11.9998 10.9878C13.0998 10.9878 13.9998 11.8878 13.9998 12.9878C13.9998 14.0878 13.0998 14.9878 11.9998 14.9878Z" fill="currentColor"/>
</svg>
