<svg id="delete" width="24" height="25" viewBox="0 0 24 25" fill="none" xmlns="http://www.w3.org/2000/svg">
<g clip-path="url(#clip0_163_16565)">
<path d="M2.5 22.7383C2.5 23.335 2.73705 23.9073 3.15901 24.3293C3.58097 24.7512 4.15326 24.9883 4.75 24.9883H18.25C18.8467 24.9883 19.419 24.7512 19.841 24.3293C20.2629 23.9073 20.5 23.335 20.5 22.7383V6.98829H2.5V22.7383ZM15.25 10.7383C15.25 10.5394 15.329 10.3486 15.4697 10.208C15.6103 10.0673 15.8011 9.98829 16 9.98829C16.1989 9.98829 16.3897 10.0673 16.5303 10.208C16.671 10.3486 16.75 10.5394 16.75 10.7383V21.2383C16.75 21.4372 16.671 21.628 16.5303 21.7686C16.3897 21.9093 16.1989 21.9883 16 21.9883C15.8011 21.9883 15.6103 21.9093 15.4697 21.7686C15.329 21.628 15.25 21.4372 15.25 21.2383V10.7383ZM10.75 10.7383C10.75 10.5394 10.829 10.3486 10.9697 10.208C11.1103 10.0673 11.3011 9.98829 11.5 9.98829C11.6989 9.98829 11.8897 10.0673 12.0303 10.208C12.171 10.3486 12.25 10.5394 12.25 10.7383V21.2383C12.25 21.4372 12.171 21.628 12.0303 21.7686C11.8897 21.9093 11.6989 21.9883 11.5 21.9883C11.3011 21.9883 11.1103 21.9093 10.9697 21.7686C10.829 21.628 10.75 21.4372 10.75 21.2383V10.7383ZM6.25 10.7383C6.25 10.5394 6.32902 10.3486 6.46967 10.208C6.61032 10.0673 6.80109 9.98829 7 9.98829C7.19891 9.98829 7.38968 10.0673 7.53033 10.208C7.67098 10.3486 7.75 10.5394 7.75 10.7383V21.2383C7.75 21.4372 7.67098 21.628 7.53033 21.7686C7.38968 21.9093 7.19891 21.9883 7 21.9883C6.80109 21.9883 6.61032 21.9093 6.46967 21.7686C6.32902 21.628 6.25 21.4372 6.25 21.2383V10.7383ZM21.25 2.48829H15.625L15.1844 1.61173C15.091 1.42433 14.9473 1.26669 14.7692 1.15655C14.5912 1.04641 14.3859 0.988139 14.1766 0.988289H8.81875C8.60987 0.987486 8.40498 1.04554 8.22756 1.1558C8.05015 1.26607 7.90739 1.42407 7.81562 1.61173L7.375 2.48829H1.75C1.55109 2.48829 1.36032 2.56731 1.21967 2.70796C1.07902 2.84861 1 3.03938 1 3.23829L1 4.73829C1 4.9372 1.07902 5.12797 1.21967 5.26862C1.36032 5.40927 1.55109 5.48829 1.75 5.48829H21.25C21.4489 5.48829 21.6397 5.40927 21.7803 5.26862C21.921 5.12797 22 4.9372 22 4.73829V3.23829C22 3.03938 21.921 2.84861 21.7803 2.70796C21.6397 2.56731 21.4489 2.48829 21.25 2.48829Z" fill="currentColor"/>
</g>
<defs>
<clipPath id="clip0_163_16565">
<rect width="24" height="24" fill="white" transform="translate(0 0.988281)"/>
</clipPath>
</defs>
</svg>
